<?xml version="1.0" encoding="utf-8"?>
<!-- Generator: Adobe Illustrator 23.0.3, SVG Export Plug-In . SVG Version: 6.00 Build 0)  -->
<svg version="1.1" id="Layer_1" xmlns="http://www.w3.org/2000/svg" xmlns:xlink="http://www.w3.org/1999/xlink" x="0px" y="0px"
	 viewBox="0 0 1126.8 845.1" style="enable-background:new 0 0 1126.8 845.1;" xml:space="preserve">
<style type="text/css">
	.st0{fill:#1B2852;}
	.st1{opacity:0.1;fill:#55A4FF;enable-background:new    ;}
	.st2{fill:#0A754C;}
	.st3{fill:url(#SVGID_1_);}
	.st4{fill:url(#SVGID_2_);}
	.st5{fill:url(#SVGID_3_);}
	.st6{fill:#FD7E79;}
	.st7{fill:url(#SVGID_4_);}
	.st8{fill:url(#SVGID_5_);}
	.st9{fill:url(#SVGID_6_);}
	.st10{fill:#6AFDFF;}
	.st11{fill:#4169C9;}
	.st12{fill:url(#SVGID_7_);}
	.st13{fill:#074F33;}
	.st14{fill:url(#SVGID_8_);}
</style>
<g>
	<g>
		<rect y="-0.03" class="st0" width="1126.8" height="845.1"/>
		<path class="st1" d="M0,465.51c152.83-55.07,304.17,119.59,479.71,46.34c183.41-76.53,225.15-335.1,647.09-353.66V842.5L0,845.07
			V465.51z"/>
		<path class="st2" d="M540.7,357.2l29.76,3.24l-66.12,114.07l-33.68-14l23.75-108.34l22.23,2.42l-21.29,89.12l0,0L540.7,357.2z"/>
		
			<linearGradient id="SVGID_1_" gradientUnits="userSpaceOnUse" x1="386.05" y1="-2121.1472" x2="847.0878" y2="-2121.1472" gradientTransform="matrix(1 0 0 1 0 2619.77)">
			<stop  offset="0" style="stop-color:#FD2371"/>
			<stop  offset="1" style="stop-color:#FD6747"/>
		</linearGradient>
		<path class="st3" d="M386.05,614.88c0,0,5.09-29.42,57.61-20.79c0,0-11.65,1.87-15,11.13s6.73,18.44,20.83,11
			c14.45-7.58,33.56-15.12,64.1-7c32,8.56,42.16,8.79,44-1.57c0,0,7.23,11-6.36,24.66c-13.29,13.4-11.52,24.85-2.23,27.39
			s19.92-5.44,24.58-26.13c4.72-20.91,19.51-47.65,79.06-62.89c65.16-16.67,105.22-52.35,85.87-117.17
			c-10.49-35.14-46-34.51-63-65.1c-16.73-30,7.14-71.87,7.14-71.87s-10,39.47,24.16,48.57c35.68,9.53,70-30.56,38.27-67.18
			c-30.61-35.36-91.59,16.15-118.31-38.26c0,0,13.75,2.55,64.13-5.11c57.45-8.74,135.47-1.72,141.21,89.3
			c2.53,40.19-24.23,84.4-33.06,114.88c-8.69,30-1.27,46,17.14,47.81c18.83,1.9,27.74-17.07,21.16-29.43c0,0,15.65,13.44,7.27,50.42
			c-8.25,36.42-56.8,77.83-136.16,88.91c-71.53,10-77.8,43.4-62,56.28c13.45,11,34.27,5.91,43.89-21.81c6.62-19,26.88-18.4,36-11.61
			c0,0-18.73-6.36-22.66,31.59c-3.9,37.54-49.67,70.3-103,45.13c-49.63-23.43-81-32.18-88.24-13c-7.17,18.89,13.74,39,31.77,32.5
			c0,0-28.33,27.39-65.65-8.65c-35.4-34.19-39.45-67.46-55.31-62.33c-9,2.92-7.57,15.11-3.27,20.81
			C420,685.43,388.22,657.12,386.05,614.88z"/>
		
			<linearGradient id="SVGID_2_" gradientUnits="userSpaceOnUse" x1="833.3408" y1="-2218.9202" x2="889.9387" y2="-2218.9202" gradientTransform="matrix(1 0 0 1 0 2619.77)">
			<stop  offset="0" style="stop-color:#FD2371"/>
			<stop  offset="1" style="stop-color:#FD6747"/>
		</linearGradient>
		<path class="st4" d="M844.42,447.72c0,0-4.22-12,12.23-26.39c16.82-14.68,33.73-19.88,33.28-42.35c-0.37-18.61-19.78-25-19.78-25
			s1.57,13.85-16.76,32.87C831.47,409.54,826.1,436.21,844.42,447.72z"/>
		
			<linearGradient id="SVGID_3_" gradientUnits="userSpaceOnUse" x1="660.8215" y1="-2125.4651" x2="710.5933" y2="-2125.4651" gradientTransform="matrix(1 0 0 1 0 2619.77)">
			<stop  offset="0" style="stop-color:#FD2371"/>
			<stop  offset="1" style="stop-color:#FD6747"/>
		</linearGradient>
		<path class="st5" d="M666.89,547.14c0,0,38.87-8.73,43.29-45.6c3.48-28.9-16.56-39.58-2.76-60.07c0,0-26.25,14.37-21.29,46.44
			c4.96,32.07-5.67,38.67-11,35.34s-4.05-11.4,2.57-15.7c0,0-14.73,1.91-16.67,16.68C659.5,535.81,666.89,547.14,666.89,547.14z"/>
		<path class="st6" d="M782,500.31c-11.9-36.75,14.5-87.62,21.27-115.45c18.63-76.45-25.61-90.39-25.61-90.39
			c19.12,46.59-7.24,77-42.61,89.9c-33.75,12.26-51.79-15.52-51.79-15.52c-0.91,15,11.32,28.4,27.88,38.78
			c16.9,10.6,35.8,14.42,42.22,81.86S709.62,574.85,684,591.34c-24.66,15.88-56,24.54-54.48,13.44s18-16.71,18-16.71
			c-24.49,2.86-55,15.38-60.76,38.47c-5.67,22.81-11.18,36.94-23.23,45.51c-30.53,21.71-45-3.8-36.7-7
			c-20.23,1.6-49.29-13.31-41.51-30.2c7.89-17.16,27.95-12.33,27.95-12.33c-24.78-9.7-47.46-3.54-57.72,2.61
			c-10.09,6-24.92,11.77-33.94-1.48c-8.91-13.08-2.4-22.93-2.4-22.93c-23.47,0.65-29.79,14.44-29.79,14.44l0,0
			c5,32,22.16,42.4,22.16,42.4c8.38-13,28-6.61,51.4,29c24.15,36.81,43.53,39.29,43.53,39.29c-5-12-7.14-32.31,11.34-39.86
			c19-7.78,57.65,11,93.32,21.1c37.58,10.63,48.09-11.12,48.09-11.12c-18.63,3.14-42.59-22.16-30.43-50.71
			c12.44-29.2,56.7-34.85,118.39-55.23c67.37-22.25,83.54-65.78,83.54-65.78S794.07,537.44,782,500.31z"/>
		<path class="st6" d="M839.89,435.31c0,0-4.92-18.79,14.4-33.73c19.83-15.33,18.3-21.09,18.3-21.09s6.64,12.81-7.3,23.21
			C851.6,413.91,838.94,425.61,839.89,435.31z"/>
		<path class="st6" d="M668.17,543.17c0,0-7.08-10.46-2.13-19.72c0,0,10.53,16.32,25.2-0.15
			C691.24,523.3,686.44,538.21,668.17,543.17z"/>
		
			<linearGradient id="SVGID_4_" gradientUnits="userSpaceOnUse" x1="13232.4297" y1="-2977.7947" x2="13633.1416" y2="-2977.7947" gradientTransform="matrix(-1 0 0 -1 13939.4297 -2641.2197)">
			<stop  offset="0" style="stop-color:#606EFB"/>
			<stop  offset="1" style="stop-color:#26E6FD"/>
		</linearGradient>
		<path class="st7" d="M707,193.25c0,0-9.62,42.12-87.45,50.27c0,0,16.09-6.38,21.06-19.2s-9.1-20.36-28.44-5.61
			c-18.79,14.33-42.14,29.33-76.33,29.54c-32.53,0.21-42.18,2.77-43.89,13.75c0,0-6.73-9.11,5.87-26.84c12.88-18.13,11.1-29.59,2-29
			s-18.58,12.16-22.63,34.23c-4,21.85-16.42,50.92-62.15,75.21c-42.35,22.5-64.61,53.85-52.43,101.95
			c6.75,26.64,28.25,26.62,39.77,51.52c11.7,25.27-3.42,56.33-3.42,56.33s5.81-30.22-16-39.71c-21-9.17-38.63,17.61-20.89,46.72
			c18.2,29.88,56.26-1.64,76,46.86c0,0-9.93-4.61-43.31-7.26s-72.86-18.12-77.64-78.9c-2.12-27,9.5-56.75,13.14-78.25
			c3.68-21.74-0.44-32.85-9.52-33.15c-8.93-0.3-12.54,13.13-9.23,21.33c0,0-7.42-8.58-4.57-34.2c2.87-25.88,25.57-61.37,70.19-82.59
			c48.49-23.06,52.73-55.08,40.77-62.48c-9.85-6.08-24.07,4-29.9,30.09c-3.91,17.44-16.56,20.88-22.17,17.13
			c0,0,11.54,1.53,13.25-30.87c1.72-32.69,32.24-76.14,74-72c44.65,4.44,76.33,1,84.18-23.57c8-24.92-14.65-36.67-33-20.54
			c0,0,29.38-45.3,72.31-24.81c45.59,21.77,50.53,61.56,73.37,46.77c13.63-8.85,11.79-24.18,5.44-29.14
			C655.38,116.8,705.06,136.03,707,193.25z"/>
		
			<linearGradient id="SVGID_5_" gradientUnits="userSpaceOnUse" x1="13624.7412" y1="-3095.0249" x2="13648.3271" y2="-3095.0249" gradientTransform="matrix(-1 0 0 -1 13939.4297 -2641.2197)">
			<stop  offset="0" style="stop-color:#606EFB"/>
			<stop  offset="1" style="stop-color:#26E6FD"/>
		</linearGradient>
		<path class="st8" d="M309.07,423.2c0,0,2.2,8.1-4.81,17.64s-13.86,12.44-13.1,26.75c0.62,11.8,8.91,16.82,8.91,16.82
			s-1-9,6.48-20.71C315.92,449.04,317.78,430.91,309.07,423.2z"/>
		
			<linearGradient id="SVGID_6_" gradientUnits="userSpaceOnUse" x1="13529.3389" y1="-3023.3848" x2="13561.1621" y2="-3023.3848" gradientTransform="matrix(-1 0 0 -1 13939.4297 -2641.2197)">
			<stop  offset="0" style="stop-color:#606EFB"/>
			<stop  offset="1" style="stop-color:#26E6FD"/>
		</linearGradient>
		<path class="st9" d="M405.55,337.84c0,0-25.13,11.53-27.15,41.38c-1.54,23,11.06,30.79,2.85,47.27c0,0,16.33-11.87,12.54-37.75
			s3-32.19,6.62-29.93s2.91,9.16-1.41,13.26c0,0,9.91-2.76,11-15.43C410.84,346.62,405.55,337.84,405.55,337.84z"/>
		<path class="st10" d="M338,384.38c7.06,26.42-5.37,63-8.08,82.31c-7.18,50.89,14.89,64.69,14.89,64.69
			c-10.69-34,2.1-53.89,21.21-61.69c19.8-8.07,31.67,14.62,31.67,14.62c0.34-11.84-7.69-22.95-18.09-31.52
			c-10.22-8.43-21.05-11.51-26.05-61.84s23.76-70.56,39.74-88c16.47-18,39.26-32.11,38.26-21.7s-13.06,18.34-13.06,18.34
			c18.23-7,42.66-25.05,47.31-48.67c4.69-23.9,9.44-39.64,20.3-52.36c29.52-34.57,44.53-12.76,35.88-6.06
			c21.59-9.75,55.08-4.75,45.65,17.87c-9.26,22.24-31.43,23.44-31.43,23.44c27.56,2.73,54.95-12.25,68.14-23.47
			c13.47-11.46,34.19-25.14,46.93-12.32c12.94,13,2.93,28.33,2.93,28.33c36.27-10.42,47.74-32.89,47.74-32.89l0.24-0.15
			c-7-41.23-34.85-44.47-34.85-44.47c-13.06,21.45-41.11,22.86-71.68-9.44c-29.45-31.12-51.77-23.55-51.77-23.55
			c5.57,11.16,7.9,33.33-12.46,50.13c-19.71,16.26-56.38,11.57-86.83,14.7c-29,3-36.24,25.94-36.24,25.94
			c13.49-8.57,32.27,7.54,23.18,37.51c-8.9,29.39-39.58,43-76.71,69.38c-34.72,24.64-41.36,56.71-41.36,56.71S331,358.16,338,384.38
			z"/>
		<path class="st10" d="M311.42,431.55c0,0,2.71,12.72-5.63,22.39c-8.21,9.5-7.42,13.26-7.42,13.26s-3.12-8.44,2.56-14.88
			S312.09,438.1,311.42,431.55z"/>
		<path class="st10" d="M404.75,341.35c0,0,5,8.08,1.78,16.43c0,0-7.38-12.62-16.68,2.46C389.85,360.24,392.68,347.52,404.75,341.35
			z"/>
		<path class="st11" d="M891.6,515.39c-2.6-0.91-5.45,0.45-6.37,3.05c-20.92,59.36-53.78,89.06-77.67,103.52
			c-25.87,15.67-47.13,17.38-47.33,17.4l-4.07,0.28l-0.54,4c-8.12,60.11-43.7,93.41-44.28,93.94c-2.04,1.86-2.19,5.02-0.34,7.07
			s5.02,2.19,7.07,0.34c1.55-1.41,37.33-34.56,46.9-96.19c7.81-1.21,26-5.23,47.24-18c25.47-15.29,60.44-46.61,82.45-109.07
			C895.55,519.13,894.18,516.31,891.6,515.39z M945,402.91c-2.76-0.1-5.08,2.05-5.18,4.81c-3.19,87.08-21.64,138.54-36.56,166.37
			c-16,29.91-31.49,39.59-31.7,39.72c-2.36,1.43-3.12,4.5-1.7,6.86c0.9,1.5,2.53,2.41,4.28,2.42c0.9,0,1.78-0.24,2.55-0.7
			c0.71-0.42,17.48-10.63,34.82-42.53c15.66-28.81,35-82,38.3-171.77C949.91,405.33,947.76,403.01,945,402.91z M328,280.09
			c-0.7,0.45-17.21,11.41-33.3,33.21c-21.2,28.55-31.76,63.61-29.84,99.12c0.13,2.66,2.33,4.75,5,4.75h0.25
			c2.76-0.13,4.88-2.48,4.75-5.24l0,0c-1.68-34,7.63-65.09,27.66-92.37c15-20.47,30.82-31,31-31.11c2.36-1.43,3.12-4.5,1.69-6.87
			c-1.43-2.36-4.5-3.12-6.87-1.69c-0.11,0.06-0.21,0.13-0.31,0.2L328,280.09z M927.37,601.09c-2.23-1.63-5.36-1.14-6.99,1.09
			s-1.14,5.36,1.09,6.99c2.22,1.62,5.34,1.14,6.98-1.08c1.62-2.23,1.14-5.35-1.09-6.98L927.37,601.09z M901.07,623.82
			c-2.03,1.88-2.15,5.04-0.28,7.07c1.88,2.03,5.04,2.15,7.07,0.28s2.15-5.03,0.28-7.06C906.26,622.07,903.1,621.95,901.07,623.82
			c0,0.01-0.01,0.02-0.01,0.02L901.07,623.82z M941.46,574.6c-2.56-1.02-5.47,0.23-6.49,2.79l0,0c-1.03,2.56,0.22,5.47,2.79,6.5l0,0
			c0.59,0.24,1.22,0.36,1.86,0.36c2.76,0.01,5.01-2.23,5.01-4.99C944.64,577.21,943.38,575.36,941.46,574.6L941.46,574.6z
			 M877.95,641.19c-2.36,1.43-3.12,4.5-1.7,6.86c0.9,1.5,2.53,2.41,4.28,2.42c0.9,0,1.79-0.24,2.56-0.71
			c2.42-1.33,3.3-4.37,1.97-6.79s-4.37-3.3-6.79-1.97C878.16,641.06,878.05,641.12,877.95,641.19z M851.75,653.36L851.75,653.36
			c-2.61,0.9-4,3.74-3.11,6.35c0.69,2.02,2.59,3.37,4.72,3.38c0.55,0,1.1-0.09,1.62-0.27c2.6-0.92,3.97-3.78,3.05-6.38
			c-0.91-2.57-3.7-3.93-6.29-3.08L851.75,653.36z M712.23,134.9c0.91,1.49,2.53,2.4,4.28,2.4c0.91,0,1.81-0.25,2.59-0.73
			c2.36-1.44,3.1-4.52,1.66-6.87c-1.44-2.36-4.52-3.1-6.87-1.66C711.53,129.47,710.79,132.55,712.23,134.9
			C712.23,134.91,712.23,134.91,712.23,134.9L712.23,134.9z M724.47,160.97c0.68,2.04,2.59,3.42,4.74,3.42
			c0.54,0,1.07-0.09,1.58-0.26c2.62-0.88,4.03-3.71,3.15-6.33s-3.71-4.03-6.33-3.15s-4.03,3.71-3.16,6.32L724.47,160.97
			L724.47,160.97z M701.8,104.88c-1.97-1.93-5.14-1.9-7.07,0.08c-1.93,1.97-1.9,5.14,0.08,7.07s5.14,1.9,7.07-0.08l0,0
			C703.81,109.98,703.77,106.81,701.8,104.88z M729.8,189.02L729.8,189.02c0.11,2.68,2.32,4.79,5,4.79h0.2
			c2.76-0.11,4.9-2.44,4.79-5.2c-0.11-2.76-2.44-4.9-5.2-4.79C731.83,183.93,729.69,186.26,729.8,189.02L729.8,189.02z
			 M250.05,346.35c2.76,0,5-2.24,5-5s-2.24-5-5-5s-5,2.24-5,5S247.29,346.35,250.05,346.35z M243.12,375.66
			c0.25,0.03,0.49,0.05,0.74,0.05c2.76-0.02,4.98-2.27,4.97-5.03c-0.02-2.76-2.27-4.98-5.03-4.97c-2.76,0.02-4.98,2.27-4.97,5.03
			C238.84,373.22,240.67,375.31,243.12,375.66z M241.66,405.61c2.76,0,5-2.24,5-5s-2.24-5-5-5s-5,2.24-5,5
			S238.9,405.61,241.66,405.61z M251.55,454.39c-2.51,1.16-3.6,4.13-2.45,6.63c0.82,1.77,2.59,2.9,4.54,2.91
			c0.72,0,1.43-0.15,2.08-0.46c2.55-1.05,3.77-3.97,2.72-6.53c-1.05-2.55-3.97-3.77-6.53-2.72
			C251.79,454.27,251.67,454.33,251.55,454.39L251.55,454.39z M249.42,429.46c-0.55-2.71-3.19-4.45-5.9-3.9
			c-2.71,0.55-4.45,3.19-3.9,5.9c0.47,2.32,2.52,3.99,4.89,4c0.34,0,0.67-0.03,1-0.1C248.22,434.81,249.97,432.18,249.42,429.46
			C249.42,429.47,249.42,429.46,249.42,429.46L249.42,429.46z"/>
		
			<linearGradient id="SVGID_7_" gradientUnits="userSpaceOnUse" x1="736.6522" y1="-846.3102" x2="881.9822" y2="-682.3302" gradientTransform="matrix(0.9733 0.2295 -0.2295 0.9733 -439.7306 987.3054)">
			<stop  offset="0" style="stop-color:#31DD13"/>
			<stop  offset="0.26" style="stop-color:#4CE21E"/>
			<stop  offset="1" style="stop-color:#96F13C"/>
		</linearGradient>
		<path class="st12" d="M525.12,341.62l29.76,3.24l-66.12,114.11l-33.68-14l23.75-108.34l22.23,2.34l-21.3,89.11l0,0L525.12,341.62z
			"/>
		<polygon class="st13" points="455.08,444.92 488.76,458.93 504.34,474.51 470.66,460.51 		"/>
		<polygon class="st2" points="501.06,339 516.64,354.58 515.23,360.49 479.76,428.12 		"/>
		<polygon class="st2" points="488.76,458.93 554.88,344.85 570.46,360.43 504.34,474.51 		"/>
		<polygon class="st2" points="625.61,434.29 610.03,418.71 627.35,390.54 642.93,406.13 		"/>
		<path class="st2" d="M577,424.84c3.27-1.12,7.77-1,13.59,0.39c7.37,1.76,18.85,4.73,35,9.07l17.32-28.17
			c-8.7-3.1-16.28-5.5-22.82-7.24c-6.38-1.69-13.15-3.15-20.31-4.38c-17.66-3-30.88-1.1-40.36,5.47
			c-9.17,6.35-15.69,15.12-19.75,26.4c-3.22,8.95-4,16.64-2.25,23.18c0.18,0.67,0.39,1.33,0.62,2l-5.75-1.84l12.13,12.21l0,0
			c1.95,2.12,4.1,4.06,6.41,5.78l6.75,5c3.83,3.11,6.23,5.83,7.14,8.14s0.7,5.33-0.69,9c-2.94,7.9-9.6,9.63-19.63,5.36
			c-10.71-4.55-21.22-9.35-31.55-14.39l-6,10.77l-7.12-6.53l-14.28,1.42l15.58,15.58c5.31,3.94,10.34,7.42,15.08,10.43
			c5.39,3.41,10.95,6.53,16.67,9.35c16.3,8.14,30.28,10.33,41.3,5.94c11.46-4.57,20-13.84,25.37-27.76c4-10.44,4.65-19.57,2-27.22
			s-8.56-14.54-17.5-20.95l-8.38-6.17c-3.3-2.38-5.32-4.41-6.09-6.11s-0.62-4,0.46-6.94C571.43,428.54,573.78,425.95,577,424.84z"/>
		
			<linearGradient id="SVGID_8_" gradientUnits="userSpaceOnUse" x1="732.8933" y1="-887.7111" x2="917.8333" y2="-679.0311" gradientTransform="matrix(0.9733 0.2295 -0.2295 0.9733 -439.7306 987.3054)">
			<stop  offset="0" style="stop-color:#31DD13"/>
			<stop  offset="0.26" style="stop-color:#4CE21E"/>
			<stop  offset="1" style="stop-color:#96F13C"/>
		</linearGradient>
		<path class="st14" d="M528.84,479.61c10,4.26,16.68,2.54,19.63-5.37c1.38-3.7,1.61-6.7,0.69-9c-0.91-2.3-3.31-5-7.14-8.13l-6.76-5
			c-7.24-5.47-11.65-11.48-13.4-18.12s-1-14.23,2.25-23.19c4.06-11.28,10.58-20,19.75-26.4c9.48-6.56,22.7-8.49,40.36-5.46
			c7.15,1.23,13.92,2.69,20.31,4.38c6.54,1.74,14.11,4.14,22.82,7.24L610,418.72c-16.17-4.34-27.66-7.31-35-9.07
			c-5.81-1.39-10.32-1.51-13.58-0.39s-5.59,3.7-7.1,7.79c-1.08,2.93-1.24,5.24-0.46,6.94s2.79,3.73,6.09,6.11l8.38,6.17
			c8.94,6.41,14.85,13.42,17.5,20.95s2,16.77-2,27.22c-5.35,13.92-13.91,23.19-25.38,27.76c-11,4.38-25,2.2-41.29-5.94
			c-5.72-2.82-11.28-5.95-16.67-9.36c-4.75-3.03-9.75-6.51-15-10.44l11.81-21.25C507.61,470.25,518.13,475.05,528.84,479.61z"/>
	</g>
</g>
</svg>
