<?xml version="1.0" encoding="utf-8"?>
<!-- Generator: Adobe Illustrator 23.0.3, SVG Export Plug-In . SVG Version: 6.00 Build 0)  -->
<svg version="1.1" id="Layer_1" xmlns="http://www.w3.org/2000/svg" xmlns:xlink="http://www.w3.org/1999/xlink" x="0px" y="0px"
	 viewBox="0 0 1126.8 845.27" style="enable-background:new 0 0 1126.8 845.27;" xml:space="preserve">
<style type="text/css">
	.st0{fill:#1B2852;}
	.st1{opacity:0.1;fill:#55A4FF;enable-background:new    ;}
	.st2{fill:#44AAFC;}
	.st3{fill:#FA902C;}
	.st4{fill:#FAC02C;}
	.st5{fill:#FAE22C;}
	.st6{fill:#FAF02C;}
	.st7{fill:#FFFFFF;}
	.st8{fill:#D9EBFF;}
	.st9{fill:url(#SVGID_1_);}
	.st10{fill:url(#SVGID_2_);}
	.st11{fill:url(#SVGID_3_);}
	.st12{opacity:0.5;fill:#30A1BB;enable-background:new    ;}
	.st13{fill:url(#SVGID_4_);}
	.st14{fill:url(#SVGID_5_);}
	.st15{opacity:0.5;fill:#B22443;stroke:#FD485A;stroke-miterlimit:10;enable-background:new    ;}
	.st16{fill:#4643E0;}
	.st17{fill:#1CE5FF;}
	.st18{fill:url(#SVGID_6_);}
	.st19{fill:url(#SVGID_7_);}
	.st20{fill:#0BFFFF;}
	.st21{opacity:0.2;fill:#4643E0;enable-background:new    ;}
	.st22{fill:none;stroke:#FFFFFF;stroke-width:10;stroke-linecap:round;stroke-miterlimit:10;}
	.st23{fill:#4169C9;enable-background:new    ;}
</style>
<title>Crash</title>
<g>
	<g>
		<rect x="0" y="0.17" class="st0" width="1126.8" height="845.1"/>
		<path class="st1" d="M0,465.71c152.83,0,225.87,201,401.41,191c183.41-10.49,219.12-305.96,725.39-233.99v422.55H0V465.71z"/>
		<path class="st2" d="M0,780.87c46.36,0.77,92.68,0.2,138.79-2.37c46.02-2.47,91.88-7.27,137.41-14.38
			c45.31-7.07,90.09-17.26,134-30.49c43.75-13.18,86.24-30.19,127-50.84c40.74-20.71,79.36-45.35,115.32-73.57
			c36-28.51,69.28-60.29,99.41-94.93c30.32-34.9,57.9-72.1,82.49-111.25c24.74-39.39,47.17-80.18,67.16-122.18l22.77,10.36
			c-18.94,43.68-40.42,86.22-64.32,127.39c-24.05,41.43-51.26,80.94-81.39,118.17c-30.38,37.47-64.17,72.04-100.93,103.27
			c-37.04,31.25-77.04,58.8-119.44,82.27c-42.36,23.57-87,42.89-132.7,58.61c-45.69,15.54-92.4,27.9-139.8,37
			c-47.16,9.07-94.75,15.75-142.58,20C95.48,842.27,47.7,844.52,0,845.4L0,780.87z"/>
		<path class="st3" d="M507.79,245.78L507.79,245.78l-14,7.07l1.25,2.37c-14.23,15.38-16.52,40.34-6,61.15
			c10.86,21.43,33.57,35,55.3,32.26l1.21,2.29l12.38-6.26l0,0c23.36-11.2,33.3-41.76,18.71-70.57S531.07,234.44,507.79,245.78z"/>
		<path class="st3" d="M536.85,349.69c-21.87,7.07-46.89-5.85-58.12-28s-6.57-49.44,12.45-62.13c21.73-14.49,53.48-4.91,67.8,23.36
			S561.83,341.62,536.85,349.69z"/>
		<path class="st4" d="M544.66,345.73c-21.87,7.07-46.89-5.84-58.12-28s-6.61-49.51,12.45-62.15c21.73-14.5,45.7-1.89,60,26.38
			S569.64,337.66,544.66,345.73z"/>
		<path class="st5" d="M493.17,263.47c19.84-12.89,48.48-3.94,61.4,21.55s2.82,53.16-19.72,60.73c-19.95,6.71-43-5-53.35-25.43
			S475.6,274.89,493.17,263.47 M489.17,255.6c-20.46,14-25.3,43.44-13.18,67.38s39,38,62.84,30.65
			c27.54-8.55,40.44-41.77,24.66-72.93S512.84,239.4,489.17,255.6z"/>
		<path class="st3" d="M540.34,294.46c-3.04-0.55-6.17-0.29-9.07,0.75l-0.32-0.63c1.32-1.09,2.45-2.39,3.35-3.85
			c2.49-4.06,2.6-9.14,0.3-13.31c-2.1-4.15-5.11-6.57-9-7.23c-2.49-0.39-5.04-0.16-7.42,0.68l-5.54-10.93l-4.62,2.34l2.91,12.16
			l-4.7,2.74l-5.09-10.06l-4.62,2.34l3.2,11.5l-10.66,6.2l4.82,9.51l2.47-1.34c1.53-0.63,3.29,0.1,3.92,1.63
			c0,0.01,0.01,0.02,0.01,0.03l10.43,20.58c0.82,1.64,0.36,3.46-1,4.07l-2.58,1.12l4.82,9.51l11.47-4.58l7.48,9.59l4.62-2.34
			l-5.09-10.05l5-2l8.21,9.76l4.62-2.34l-5.51-10.87c2.28-1.41,4.23-3.3,5.71-5.54c2.23-3.46,2.19-7.53-0.14-12.13
			C546.2,297.44,543.51,295.01,540.34,294.46z M514.23,285.68c0.84-0.54,1.89-0.65,2.83-0.3c1.05,0.58,1.88,1.5,2.33,2.61l1.14,2.23
			c0.63,1.03,0.88,2.24,0.73,3.43c-0.26,0.98-0.96,1.77-1.89,2.16l-2.91,1.46l-5.09-10.05L514.23,285.68z M525.34,314.83L520,304.28
			l3.33-1.58c0.89-0.5,1.96-0.57,2.9-0.18c1.06,0.6,1.88,1.53,2.35,2.65l1.35,2.75c0.63,1.01,0.89,2.22,0.72,3.4
			c-0.31,0.95-1.05,1.69-2,2L525.34,314.83z"/>
		<path class="st6" d="M535.72,296.8c-3.04-0.55-6.17-0.29-9.07,0.75l-0.32-0.63c1.32-1.09,2.45-2.39,3.35-3.85
			c2.49-4.06,2.6-9.14,0.3-13.31c-2.1-4.15-5.11-6.57-9-7.23c-2.49-0.39-5.04-0.16-7.42,0.68l-5.54-10.93l-6.88,4.3l5.17,10.2
			l-4.7,2.74l-5.09-10.06l-6.41,4l5,9.84l-10.65,6.2l4.81,9.51l2.47-1.34c1.53-0.63,3.29,0.1,3.92,1.63c0,0.01,0.01,0.02,0.01,0.03
			l10.43,20.58c0.82,1.64,0.36,3.46-1,4.07l-2.58,1.12l4.82,9.51l11.47-4.58l5,9.85l7.11-2.6l-5.1-10.06l5.06-2l5.17,10.21
			l7.65-2.79l-5.51-10.88c2.29-1.41,4.25-3.3,5.74-5.54c2.23-3.46,2.19-7.53-0.14-12.13C541.58,299.78,538.93,297.35,535.72,296.8z
			 M509.61,288.02c0.84-0.54,1.89-0.65,2.83-0.3c1.05,0.58,1.88,1.5,2.33,2.61l1.14,2.25c0.63,1.03,0.88,2.24,0.73,3.43
			c-0.26,0.98-0.96,1.77-1.89,2.16l-2.91,1.46l-5.09-10.06L509.61,288.02z M520.73,317.22l-5.35-10.55l3.33-1.58
			c0.89-0.5,1.96-0.57,2.9-0.18c1.06,0.6,1.88,1.53,2.35,2.65l1.39,2.75c0.63,1.01,0.89,2.22,0.72,3.4c-0.31,0.95-1.05,1.69-2,2
			L520.73,317.22z"/>
		<path class="st3" d="M309.52,606.89L309.52,606.89l-7.04-7.67l-1.3,1.23c-12.43-6.36-28.86-3.33-40.31,7.18
			c-11.8,10.83-16.4,27.84-10.74,41.3l-1.2,1.15l6.21,6.76l0,0c11.39,13,32.8,13.84,48.65-0.71S320.99,619.79,309.52,606.89z"/>
		<path class="st3" d="M248.08,644.22c-8.48-12.75-4.69-31.13,7.52-42.34s30.54-13.12,42.1-3.2c13.23,11.36,12.79,33.46-2.77,47.74
			S257.76,658.83,248.08,644.22z"/>
		<path class="st4" d="M252.02,648.55c-8.47-12.76-4.69-31.14,7.52-42.34s30.54-13.12,42.11-3.2c13.21,11.33,9.44,29-6.12,43.26
			S261.71,663.13,252.02,648.55z"/>
		<path class="st5" d="M295.54,600.7c11.84,10.4,11.26,30.39-2.77,43.27s-33.6,11.39-42.52-1.7c-7.9-11.6-4.54-28.5,6.71-38.82
			S285.05,591.45,295.54,600.7 M299.87,596.7c-12.67-10.61-32.44-8.41-45.61,3.68s-17.33,31.91-8.33,45.84
			c10.44,16.13,34.09,18.42,51.24,2.69s17.37-40,2.72-52.21H299.87z"/>
		<path class="st3" d="M284.15,636.55c-0.19-2.05-0.92-4.01-2.12-5.69l0.35-0.32c0.94,0.65,1.97,1.14,3.07,1.46
			c1.35,0.38,2.77,0.43,4.15,0.15c1.68-0.34,3.22-1.16,4.45-2.36c2.1-1.71,3.22-4.35,3-7.05c-0.2-1.67-0.82-3.26-1.78-4.64l6-5.52
			l-2.33-2.54l-7.28,4l-2.6-2.52l5.54-5.08l-2.34-2.54l-6.8,4.12l-5.9-5.72l-5.23,4.81l1.3,1.34c0.68,0.87,0.53,2.13-0.34,2.81
			c0,0-0.01,0.01-0.01,0.01l-11.34,10.4c-0.69,0.79-1.89,0.87-2.68,0.17c-0.04-0.03-0.07-0.07-0.11-0.1l-1.19-1.45l-5.23,4.8l5,6.54
			l-4.8,6.59l2.33,2.54l5.54-5.08l2.21,2.88l-4.79,7l2.34,2.55l6-5.5c1.31,1.21,2.87,2.12,4.57,2.67c2.63,0.8,5.23,0,7.76-2.28
			C283.29,640.84,284.36,638.68,284.15,636.55z M285.07,618.21c0.5,0.44,0.77,1.09,0.71,1.76c-0.17,0.79-0.61,1.5-1.25,2l-1.24,1.14
			c-0.55,0.59-1.28,0.97-2.07,1.09c-0.67,0.01-1.31-0.29-1.73-0.82l-1.46-1.61l5.53-5.08L285.07,618.21z M268.38,630.59l5.8-5.33
			l1.61,1.85c0.48,0.48,0.72,1.15,0.64,1.83c-0.19,0.79-0.64,1.5-1.28,2l-1.51,1.39c-0.53,0.57-1.23,0.95-2,1.07
			c-0.66-0.01-1.28-0.34-1.66-0.89L268.38,630.59z"/>
		<path class="st6" d="M281.81,634c-0.19-2.05-0.92-4.01-2.11-5.68l0.35-0.32c0.94,0.65,1.97,1.14,3.07,1.45
			c1.35,0.38,2.77,0.44,4.14,0.16c1.68-0.34,3.23-1.16,4.45-2.36c2.29-2.1,3.3-4.46,3-7c-0.2-1.67-0.81-3.26-1.77-4.64l6-5.52
			l-4-3.65l-5.61,5.16l-2.6-2.52l5.53-5.08l-3.72-3.39l-5.42,5l-5.89-5.72l-5.24,4.81l1.31,1.34c0.68,0.87,0.53,2.13-0.34,2.81
			c-0.01,0-0.01,0.01-0.02,0.01l-11.29,10.36c-0.71,0.79-1.92,0.85-2.71,0.14c-0.03-0.02-0.05-0.05-0.08-0.07l-1.19-1.45l-5.23,4.8
			l5,6.54l-5.43,5l2.92,4.04l5.54-5.08l2.2,2.88l-5.57,5.2l3.16,4.4l6-5.49c1.32,1.21,2.88,2.12,4.58,2.67
			c2.63,0.8,5.23,0.05,7.76-2.28C280.96,638.32,282.03,636.15,281.81,634z M282.74,615.67c0.5,0.44,0.76,1.09,0.71,1.76
			c-0.17,0.79-0.62,1.5-1.26,2l-1.26,1.1c-0.53,0.58-1.23,0.96-2,1.09c-0.67,0-1.31-0.3-1.72-0.83l-1.46-1.6l5.53-5.08
			L282.74,615.67z M266.04,628.05l5.81-5.33l1.61,1.85c0.48,0.48,0.72,1.15,0.64,1.83c-0.19,0.79-0.64,1.49-1.28,2l-1.51,1.39
			c-0.54,0.58-1.26,0.96-2.05,1.07c-0.67-0.02-1.28-0.35-1.66-0.9L266.04,628.05z"/>
		<path class="st3" d="M948.93,711.54L948.93,711.54l-7.82-7.88l-1.33,1.36c-13.49-6.25-30.84-2.35-42.59,9.31
			c-12.1,12-16.29,30.3-9.71,44.38l-1.29,1.32l6.9,6.93l0,0c12.65,13.33,35.46,13.37,51.73-2.77S961.69,724.78,948.93,711.54z"/>
		<path class="st3" d="M885.13,753.84c-9.54-13.22-6.28-32.94,6.24-45.36s31.95-15.23,44.67-5.16c14.53,11.51,15,35-1,50.88
			S896.04,768.94,885.13,753.84z"/>
		<path class="st4" d="M889.51,758.22c-9.55-13.22-6.29-32.94,6.24-45.37s31.95-15.22,44.67-5.15
			c14.51,11.52,11.24,30.52-4.72,46.31S900.41,773.35,889.51,758.22z"/>
		<path class="st5" d="M933.82,705.53c13,10.58,13.24,31.87-1.15,46.16s-35.28,13.5-45.31-0.06c-8.89-12-6-30.12,5.52-41.57
			S922.27,696.16,933.82,705.53 M938.26,701.12c-13.92-10.76-34.86-7.61-48.37,5.8s-17.17,34.65-7,49.12
			c11.78,16.73,37,18.19,54.62,0.73s16.83-43.21,0.73-55.65L938.26,701.12z"/>
		<path class="st3" d="M923.19,744.14c-0.29-2.18-1.15-4.25-2.49-6l0.36-0.36c1.02,0.66,2.15,1.14,3.33,1.43
			c3.27,0.76,6.7-0.27,9-2.71c2.34-2.32,3.32-4.88,2.93-7.62c-0.29-1.77-1-3.44-2.08-4.87l6.17-6.12l-2.59-2.61l-7.58,4.62
			l-2.87-2.58l5.68-5.63l-2.59-2.61l-7.07,4.67l-6.46-5.8l-5.37,5.33l1.44,1.38c0.76,0.89,0.65,2.22-0.23,2.98
			c-0.01,0.01-0.02,0.02-0.03,0.02l-11.62,11.56c-0.67,0.88-1.93,1.04-2.8,0.37c-0.07-0.05-0.13-0.11-0.2-0.17l-1.32-1.5l-5.34,5.3
			l5.6,6.74l-4.84,7.15l2.58,2.61l5.68-5.63l2.47,3l-4.8,7.67l2.59,2.6l6.19-6.14c1.45,1.24,3.16,2.14,5,2.65
			c2.83,0.75,5.57-0.16,8.17-2.74C922.45,748.75,923.51,746.4,923.19,744.14z M923.41,724.59c0.55,0.45,0.86,1.14,0.83,1.85
			c-0.16,0.84-0.6,1.59-1.26,2.14l-1.27,1.26c-0.55,0.65-1.31,1.09-2.15,1.25c-0.72,0.04-1.41-0.26-1.88-0.81l-1.62-1.65l5.68-5.63
			L923.41,724.59z M906.16,738.46l6-5.91l1.79,1.9c0.53,0.49,0.81,1.2,0.75,1.92c-0.17,0.85-0.62,1.61-1.27,2.17l-1.56,1.54
			c-0.54,0.65-1.3,1.08-2.13,1.22c-0.71,0.02-1.39-0.31-1.81-0.88L906.16,738.46z"/>
		<path class="st6" d="M920.6,741.53c-0.28-2.19-1.14-4.26-2.49-6l0.36-0.36c1.02,0.66,2.15,1.14,3.33,1.43
			c1.45,0.35,2.96,0.35,4.41,0c1.77-0.44,3.38-1.37,4.64-2.7c2.34-2.33,3.32-4.88,2.93-7.63c-0.28-1.77-1-3.44-2.08-4.86l6.17-6.13
			l-4.41-3.71l-5.76,5.72l-2.87-2.57l5.68-5.64l-4.1-3.45l-5.56,5.59l-6.51-5.85l-5.41,5.3l1.45,1.38c0.76,0.9,0.64,2.24-0.26,3
			l-11.59,11.54c-0.67,0.88-1.93,1.04-2.8,0.37c-0.07-0.05-0.13-0.11-0.2-0.17l-1.32-1.5l-5.37,5.33l5.6,6.74l-5.51,5.52l3.31,4.24
			l5.67-5.63l2.47,3l-5.78,5.73l3.55,4.56l6.14-6.1c1.45,1.24,3.16,2.14,5,2.65c2.82,0.75,5.56-0.16,8.16-2.74
			C919.86,746.14,920.93,743.79,920.6,741.53z M920.82,721.99c0.55,0.45,0.86,1.13,0.83,1.84c-0.16,0.84-0.6,1.59-1.25,2.14
			l-1.27,1.25c-0.56,0.65-1.32,1.09-2.16,1.25c-0.72,0.04-1.41-0.26-1.87-0.81l-1.63-1.64l5.68-5.64L920.82,721.99z M903.57,735.85
			l6-5.91l1.79,1.9c0.53,0.49,0.81,1.2,0.75,1.92c-0.17,0.85-0.61,1.61-1.27,2.17l-1.56,1.54c-0.54,0.65-1.3,1.08-2.13,1.22
			c-0.71,0.02-1.39-0.31-1.81-0.88L903.57,735.85z"/>
		<path class="st7" d="M272.93,172.22c-0.02,49.04-39.79,88.77-88.83,88.75c-49.04-0.02-88.77-39.79-88.75-88.83
			c0.02-49.04,39.79-88.77,88.83-88.75c13.66,0.01,27.14,3.16,39.38,9.23c0.52,0.25,1.03,0.51,1.53,0.78
			C254.49,108.69,272.94,139.08,272.93,172.22z"/>
		<ellipse class="st8" cx="185.19" cy="144.63" rx="30.27" ry="25.79"/>
		<ellipse class="st8" cx="202.79" cy="168.03" rx="15.14" ry="12.9"/>
		<ellipse class="st8" cx="144.97" cy="214.44" rx="15.14" ry="12.9"/>
		<ellipse class="st8" cx="246.27" cy="147.46" rx="9" ry="7.67"/>
		<ellipse class="st8" cx="165.46" cy="103.45" rx="7.46" ry="6.36"/>
		<path class="st7" d="M393.2,93.55l6.23-2.28c1.52-0.55,2.31-2.23,1.76-3.75c-0.3-0.82-0.94-1.46-1.76-1.76l-6.23-2.28
			c-0.81-0.29-1.45-0.93-1.74-1.74l-2.28-6.23c-0.56-1.52-2.24-2.3-3.76-1.74c-0.81,0.3-1.44,0.93-1.74,1.74l-2.29,6.23
			c-0.29,0.81-0.93,1.45-1.74,1.74l-6.23,2.28c-1.52,0.57-2.3,2.26-1.73,3.78c0.3,0.8,0.93,1.43,1.73,1.73l6.23,2.28
			c0.81,0.29,1.45,0.93,1.74,1.74l2.29,6.23c0.56,1.52,2.24,2.3,3.76,1.74c0.81-0.3,1.44-0.93,1.74-1.74l2.28-6.23
			C391.75,94.48,392.39,93.84,393.2,93.55z"/>
		<path class="st7" d="M651.63,284.74l6.24-2.28c1.52-0.57,2.3-2.26,1.73-3.78c-0.3-0.8-0.93-1.43-1.73-1.73l-6.24-2.28
			c-0.81-0.29-1.45-0.93-1.74-1.74l-2.28-6.23c-0.56-1.52-2.24-2.3-3.76-1.74c-0.81,0.3-1.44,0.93-1.74,1.74l-2.28,6.23
			c-0.3,0.81-0.94,1.45-1.75,1.74l-6.23,2.28c-1.52,0.57-2.3,2.26-1.73,3.78c0.3,0.8,0.93,1.43,1.73,1.73l6.23,2.28
			c0.81,0.29,1.45,0.93,1.75,1.74l2.28,6.23c0.56,1.52,2.24,2.3,3.76,1.74c0.81-0.3,1.44-0.93,1.74-1.74l2.28-6.23
			C650.18,285.67,650.82,285.04,651.63,284.74z"/>
		<path class="st7" d="M1068.78,298.6l6.23-2.28c1.52-0.56,2.3-2.24,1.74-3.76c-0.3-0.81-0.93-1.44-1.74-1.74l-6.23-2.28
			c-0.8-0.31-1.44-0.94-1.74-1.75l-2.28-6.23c-0.56-1.52-2.24-2.3-3.76-1.74c-0.81,0.3-1.44,0.93-1.74,1.74l-2.29,6.23
			c-0.29,0.81-0.93,1.45-1.74,1.75l-6.23,2.28c-1.52,0.56-2.3,2.24-1.74,3.76c0.3,0.81,0.93,1.44,1.74,1.74l6.23,2.28
			c0.81,0.3,1.45,0.94,1.74,1.75l2.29,6.23c0.56,1.52,2.24,2.3,3.76,1.74c0.81-0.3,1.44-0.93,1.74-1.74l2.28-6.23
			C1067.34,299.55,1067.98,298.91,1068.78,298.6z"/>
		<path class="st7" d="M280.93,393.75l6.23-2.28c1.52-0.56,2.3-2.24,1.74-3.76c-0.3-0.81-0.93-1.44-1.74-1.74l-6.23-2.28
			c-0.81-0.3-1.45-0.94-1.75-1.75l-2.28-6.23c-0.56-1.52-2.24-2.3-3.76-1.74c-0.81,0.3-1.44,0.93-1.74,1.74l-2.28,6.23
			c-0.3,0.81-0.94,1.45-1.75,1.75l-6.23,2.28c-1.52,0.56-2.3,2.24-1.74,3.76c0.3,0.81,0.93,1.44,1.74,1.74l6.23,2.28
			c0.81,0.3,1.45,0.94,1.75,1.75l2.28,6.23c0.56,1.52,2.24,2.3,3.76,1.74c0.81-0.3,1.44-0.93,1.74-1.74l2.28-6.23
			C279.48,394.69,280.12,394.06,280.93,393.75z"/>
		
			<linearGradient id="SVGID_1_" gradientUnits="userSpaceOnUse" x1="565.3" y1="318.9516" x2="924.5491" y2="318.9516" gradientTransform="matrix(1 0 0 -1 -0.07 845.15)">
			<stop  offset="0" style="stop-color:#FB571D"/>
			<stop  offset="1" style="stop-color:#FACC2C"/>
		</linearGradient>
		<path class="st9" d="M811.41,376.98c-5.43,27.17-65.57,31.51-71.72,85.85c0,0,13.88-19.93,25.35-6.15c5.44,6.52-1.44,22-46.36,39
			c-132.69,50.27-55.28,165.9-153.45,197.31c0,0,120.55,34.07,137.86-102c4.21-33.13,41.72-59.28,51.85-41.36
			c6.49,11.47-6.06,25.83-18.72,26.57c0,0,60.65,15.61,95.45-29.4s-2.2-63.57,26.5-89.64s61.79-27.25,66.14-47.36
			s-76.68-54.19-76.68-54.19L811.41,376.98z"/>
		
			<linearGradient id="SVGID_2_" gradientUnits="userSpaceOnUse" x1="711.53" y1="213.2133" x2="756.9082" y2="213.2133" gradientTransform="matrix(1 0 0 -1 -0.07 845.15)">
			<stop  offset="0" style="stop-color:#FB571D"/>
			<stop  offset="1" style="stop-color:#FACC2C"/>
		</linearGradient>
		<path class="st10" d="M741.8,601.6c0,0,1.39,30.33-30.34,60.67C711.46,662.27,788.52,656.69,741.8,601.6z"/>
		
			<linearGradient id="SVGID_3_" gradientUnits="userSpaceOnUse" x1="597.3101" y1="345.2221" x2="711.5301" y2="345.2221" gradientTransform="matrix(1 0 0 -1 -0.07 845.15)">
			<stop  offset="0" style="stop-color:#FB571D"/>
			<stop  offset="1" style="stop-color:#FACC2C"/>
		</linearGradient>
		<path class="st11" d="M711.46,483.55c0,0-25.86,0.22-43.81,20c-27.56,30.37-50.88,28.57-70.41,22.38
			c12.32-7.2,23.17-16.65,32-27.85C647.33,474.69,672.38,456.88,711.46,483.55z"/>
		<path class="st6" d="M814.15,393c0,0-5.53,9.12-22.32,22.55s-20.9,16.81-24.09,23.32c0,0,12.05-7.12,19,6.7s9.29,33.94-37.6,59.57
			c-46.89,25.63-66,25.63-86.43,67.07c0,0,16.72-29.17,71.48-39.26s44.12,28.63,44.12,28.63s32.45-4.72,32.17-31.94
			s10.91-32.95,21-28c0,0-11.73-51,55.89-73.89s-62.71-52.62-62.71-52.62L814.15,393z"/>
		<path class="st7" d="M964.46,328.9l-6.18,11.42l1,0.46l-55.12,98.09l-121.83-54.92l27.87-88l-1.09-1.34l11.24-30.69
			c16-50.58,32.49-87.72,50.85-115.33c16.83-25.33,35.26-42.62,56.42-54.9c8.85-5.09,18.13-9.4,27.74-12.87
			c12.74-4.57,25.81-8.17,39.09-10.79c7.16,12.22,13.34,24.99,18.48,38.19c4.96,12.76,8.32,26.09,10,39.68
			C1028.51,195,1012.61,248.61,964.46,328.9z"/>
		<path class="st12" d="M958.28,340.32l1,0.46l-55.12,98.09l-43.56-19.65c8-15.86,18-35.55,30.4-59.54c4.54-8.74,9.4-18.07,14.58-28
			c2.18-4.17,4.25-8.28,6.22-12.35c46.36-95.65,32.7-160.39-40.6-170.76c16.83-25.33,35.26-42.62,56.42-54.9l77.57,40l17.74,14.22
			c5.61,47.11-10.29,100.72-58.44,181L958.28,340.32z"/>
		
			<linearGradient id="SVGID_4_" gradientUnits="userSpaceOnUse" x1="937.7855" y1="448.3155" x2="907.4055" y2="471.3755" gradientTransform="matrix(1 0 0 -1 -0.07 845.15)">
			<stop  offset="0" style="stop-color:#FD2371"/>
			<stop  offset="1" style="stop-color:#FD6747"/>
		</linearGradient>
		<path class="st13" d="M967.72,376.22l-49.18,81c-1.17,1.91-11-0.52-21.88-5.44c-7.64-3.45-13.87-7.22-16.56-9.86l0,0
			c-1.15-1.13-1.66-2-1.35-2.65l43.3-83.68c2.94-5.46,7.29-10.03,12.59-13.25l20.51-12.94c2.7-1.69,6.35-1.61,9.52-0.41
			c3.68,1.4,6.7,4.33,6.79,7.76l0.64,22.48C972.32,365.2,970.8,371.1,967.72,376.22z"/>
		<circle class="st12" cx="929.31" cy="239.51" r="40.18"/>
		
			<linearGradient id="SVGID_5_" gradientUnits="userSpaceOnUse" x1="1020.6222" y1="640.4603" x2="919.5922" y2="750.2803" gradientTransform="matrix(1 0 0 -1 -0.07 845.15)">
			<stop  offset="0" style="stop-color:#FD2371"/>
			<stop  offset="1" style="stop-color:#FD6747"/>
		</linearGradient>
		<path class="st14" d="M1017.2,214.44c-0.07-0.09-21.44-23-57.64-41.49c-3.05-1.56-6.19-3.08-9.44-4.57
			c-41.38-18.46-77.67-19.73-78.9-19.76l0,0c16.2-24.38,33.89-41.32,54.07-53.52c9.54-5.72,19.61-10.5,30.07-14.28
			c12.69-4.54,25.69-8.13,38.91-10.74h0.2c0.04,0.06,0.07,0.12,0.1,0.18c7.11,12.15,13.25,24.84,18.36,37.96l0,0
			c0.06,0.13,0.11,0.27,0.15,0.41c0.12,0.31,0.24,0.64,0.36,1c0.61,1.63,1.19,3.26,1.76,4.91c0.23,0.7,0.47,1.4,0.7,2.09
			c0.67,2.08,1.31,4.17,1.93,6.27c0,0.02,0,0.03,0,0.05c0.59,2.07,1.14,4.13,1.64,6.2c0.19,0.75,0.37,1.51,0.54,2.26
			s0.32,1.41,0.47,2.12s0.31,1.42,0.45,2.14s0.28,1.43,0.42,2.14s0.21,1.19,0.32,1.79c0.15,0.84,0.29,1.67,0.42,2.52
			c0.11,0.69,0.21,1.38,0.31,2.07s0.23,1.59,0.33,2.39l0.24,2c0.01,0.03,0.01,0.07,0,0.1c0.08,0.71,0.16,1.43,0.23,2.15
			s0.15,1.47,0.2,2.2s0.13,1.48,0.17,2.22s0.1,1.48,0.15,2.22c0,0.54,0.05,1.07,0.08,1.6l0.06,1.54c0,0.08,0,0.15,0,0.24
			c0,0.65,0,1.31,0,2c0,0.12,0,0.25,0,0.36c0,0.62,0,1.23,0,1.84c0,1,0,2.07,0,3.09c0,0.5,0,1,0,1.49c0,0.22,0,0.42,0,0.63
			c0,0.61,0,1.22,0,1.82c0,0.12,0,0.24,0,0.37c0,0.67-0.03,1.33-0.09,2c0,0.58-0.05,1.16-0.1,1.74s-0.05,0.9-0.08,1.35
			c0,0.62-0.09,1.25-0.15,1.88s-0.11,1.32-0.17,2c-0.09,1-0.19,2-0.31,3.07c-0.08,0.71-0.16,1.44-0.25,2.17s-0.19,1.52-0.3,2.29
			c0.01,0.1,0.01,0.19,0,0.29c-0.08,0.61-0.17,1.22-0.25,1.83c-0.16,1.09-0.34,2.18-0.52,3.28l-0.3,1.76c0,0.22-0.07,0.44-0.12,0.65
			c-0.08,0.5-0.17,1-0.27,1.48s-0.2,1.11-0.31,1.66s-0.25,1.26-0.37,1.89s-0.25,1.16-0.37,1.74c-0.23,1.09-0.47,2.19-0.72,3.29
			c-0.2,0.83-0.39,1.67-0.6,2.5s-0.36,1.5-0.55,2.26c0,0.18-0.09,0.36-0.14,0.54c-0.17,0.64-0.33,1.3-0.51,2
			C1017.29,214.1,1017.24,214.27,1017.2,214.44z"/>
		<path class="st15" d="M994.45,70.03c0.04,0.06,0.07,0.12,0.1,0.18c7.12,12.16,13.27,24.87,18.38,38.01l0,0
			c0.06,0.13,0.11,0.27,0.15,0.41c0.12,0.31,0.24,0.64,0.36,1c0.61,1.63,1.19,3.26,1.76,4.91c0.23,0.7,0.47,1.4,0.7,2.09
			c0.67,2.08,1.31,4.17,1.93,6.27c0,0.02,0,0.03,0,0.05c0.59,2.07,1.14,4.13,1.64,6.2c0.19,0.75,0.37,1.51,0.54,2.26
			s0.32,1.41,0.47,2.12s0.31,1.42,0.45,2.14s0.28,1.43,0.42,2.14s0.21,1.19,0.32,1.79c0.15,0.84,0.29,1.67,0.42,2.52
			c0.11,0.69,0.21,1.38,0.31,2.07s0.23,1.59,0.33,2.39l0.24,2c0.01,0.03,0.01,0.07,0,0.1c0.08,0.71,0.16,1.43,0.23,2.15
			s0.15,1.47,0.2,2.2s0.13,1.48,0.17,2.22s0.1,1.48,0.15,2.22c0,0.54,0.05,1.07,0.08,1.6l0.06,1.54c0,0.08,0,0.15,0,0.24
			c0,0.65,0,1.31,0,2c0,0.12,0,0.25,0,0.36c0,0.62,0,1.23,0,1.84c0,1,0,2.07,0,3.09c0,0.5,0,1,0,1.49c0,0.22,0,0.42,0,0.63
			c0,0.61,0,1.22,0,1.82c0,0.12,0,0.24,0,0.37c0,0.67-0.03,1.33-0.09,2c0,0.58-0.05,1.16-0.1,1.74s-0.05,0.9-0.08,1.35
			c0,0.62-0.09,1.25-0.15,1.88s-0.11,1.32-0.17,2c-0.09,1-0.19,2-0.31,3.07c-0.08,0.71-0.16,1.44-0.25,2.17s-0.19,1.52-0.3,2.29
			c0.01,0.1,0.01,0.19,0,0.29c-0.08,0.61-0.17,1.22-0.25,1.83c-0.16,1.09-0.34,2.18-0.52,3.28l-0.3,1.76c0,0.22-0.07,0.44-0.12,0.65
			c-0.08,0.5-0.17,1-0.27,1.48s-0.2,1.11-0.31,1.66s-0.25,1.26-0.37,1.89s-0.25,1.16-0.37,1.74c-0.23,1.09-0.47,2.19-0.72,3.29
			c-0.2,0.83-0.39,1.67-0.6,2.5s-0.36,1.5-0.55,2.26c0,0.18-0.09,0.36-0.14,0.54c-0.17,0.64-0.33,1.3-0.51,2
			c0,0.17-0.09,0.34-0.13,0.51c-0.07-0.09-21.44-23-57.64-41.49C988.18,181.22,1022.13,121.35,994.45,70.03z"/>
		<circle class="st16" cx="924.72" cy="227.39" r="40.18"/>
		<path class="st17" d="M952.41,234.22c-0.42,1.68-0.99,3.32-1.7,4.9c-6.5,14.35-23.41,20.7-37.75,14.2
			c-12.94-5.87-19.59-20.37-15.59-34.01c1.48-4.99,4.29-9.48,8.13-13c11.64-10.62,29.67-9.79,40.29,1.85
			C952.21,215.19,954.7,224.97,952.41,234.22z"/>
		<path class="st12" d="M830.76,405.78l-37.41-16.87l22.52-56.61l11.32-8c-11.78,33.21,5.44,53.51,5.44,53.51L830.76,405.78z"/>
		
			<linearGradient id="SVGID_6_" gradientUnits="userSpaceOnUse" x1="881.9984" y1="478.5049" x2="846.5583" y2="495.9449" gradientTransform="matrix(1 0 0 -1 -0.07 845.15)">
			<stop  offset="0" style="stop-color:#FD2371"/>
			<stop  offset="1" style="stop-color:#FD6747"/>
		</linearGradient>
		<path class="st18" d="M903.66,335.96L855.77,436.8c-0.94,2-10.45-0.39-21.25-5.26c-7.46-3.36-13.64-7.07-16.48-9.72
			c-1.27-1.17-1.88-2.13-1.63-2.76l40.93-104c2.32-5.76,6.21-10.75,11.22-14.41l19-14.28c2.7-2,6.66-1.86,10-0.33
			s6.16,4.39,6.5,7.79l2.44,23.95C907.25,323.99,906.27,330.28,903.66,335.96z"/>
		
			<linearGradient id="SVGID_7_" gradientUnits="userSpaceOnUse" x1="813.8086" y1="509.0138" x2="778.9286" y2="520.2638" gradientTransform="matrix(1 0 0 -1 -0.07 845.15)">
			<stop  offset="0" style="stop-color:#FD2371"/>
			<stop  offset="1" style="stop-color:#FD6747"/>
		</linearGradient>
		<path class="st19" d="M799.14,403.4c-0.75,2.11-10.21-0.17-21.13-5.1c-4.26-1.89-8.37-4.08-12.32-6.55l0,0
			c-4.2-2.7-6.69-5.06-6.35-6.28l25.7-91.61c1.6-5.71,4.86-10.83,9.35-14.71l16.74-14.64c2.32-2,6-2,9.22-0.56
			c3.42,1.46,6.44,4.39,7.09,7.9l4.42,24.19c1.24,6.13,0.84,12.48-1.15,18.41L799.14,403.4z"/>
		<path class="st15" d="M903.66,335.96L855.77,436.8c-0.94,2-10.45-0.39-21.25-5.26c-7.46-3.36-13.64-7.07-16.48-9.72
			c13.67,10,33.11-3.48,54.75-52.19s29.95-80.66,24.83-83.57c3.37,1.52,6.16,4.39,6.5,7.79l2.44,23.95
			C907.29,324.01,906.28,330.29,903.66,335.96z"/>
		<path class="st15" d="M799.14,403.4c-0.75,2.11-10.21-0.17-21.13-5.1c-4.26-1.89-8.37-4.08-12.32-6.55
			c10.81,5.44,28.49-16.8,38.68-43.83s23-80.79,16-84c3.42,1.46,6.44,4.39,7.09,7.9l4.42,24.19c1.24,6.13,0.84,12.48-1.15,18.41
			L799.14,403.4z"/>
		<path class="st15" d="M967.72,376.22l-49.18,81c-1.17,1.91-11-0.52-21.88-5.44c-7.64-3.45-13.87-7.22-16.56-9.86
			c13.94,9.35,30.66-0.21,50.18-32.57c19.35-32.08,41.72-76,34.38-80.36c3.68,1.4,6.7,4.33,6.79,7.76l0.64,22.48
			C972.32,365.2,970.8,371.1,967.72,376.22z"/>
		<path class="st20" d="M925.42,198.88c-7.35-0.17-14.48,2.49-19.92,7.44l34.49,45.16c4.71-2.98,8.44-7.28,10.72-12.37
			c0.71-1.58,1.28-3.22,1.7-4.9L925.42,198.88z M900.93,211.72c-1.54,2.34-2.73,4.89-3.53,7.58l27.95,36.61
			c2.81-0.06,5.59-0.53,8.26-1.41L900.93,211.72z"/>
		<path class="st21" d="M898.55,224.41c1.48-4.99,4.29-9.48,8.13-13c11.65-10.59,29.68-9.73,40.27,1.92
			c2.69,2.96,4.72,6.45,5.98,10.25c-2.1-15.6-16.45-26.55-32.06-24.45c-5.75,0.77-11.13,3.28-15.41,7.19
			c-3.84,3.52-6.65,8.01-8.13,13c-1.65,5.56-1.55,11.49,0.27,17C897.07,232.33,897.39,228.27,898.55,224.41z"/>
		<path class="st6" d="M697.32,480.73c0,0-27-14.8-41.75,15.56C655.57,496.29,669.48,482.81,697.32,480.73z"/>
		<path class="st6" d="M744.86,612.22c0,0,3.82,16-8.37,33.34c0,0,11-1.45,13.65-12.31S744.86,612.22,744.86,612.22z"/>
		<path class="st22" d="M1061.93,400.68"/>
		<path class="st22" d="M1084.17,314.83"/>
		<path class="st23" d="M969.17,9.05c-12.29,2.85-24.39,6.43-36.24,10.74c-14.4,5.21-28.26,11.82-41.38,19.71l-1.79,1.11l-0.74,0.46
			c-2.34,1.47-3.05,4.55-1.59,6.89c1.47,2.34,4.55,3.05,6.9,1.59l0.75-0.48l1.64-1c12.58-7.56,25.87-13.87,39.68-18.85
			c11.47-4.16,23.18-7.64,35.07-10.4c2.67-0.69,4.29-3.41,3.6-6.09c-0.67-2.6-3.27-4.21-5.9-3.64V9.05z M833.68,90.1
			c-0.89,1.09-1.78,2.21-2.6,3.24l-0.38,0.48l-1.32,1.66c-0.94,1.22-1.88,2.46-2.84,3.74l-0.16,0.21l-1.21,1.61
			c-1,1.39-2,2.81-3,4.24l-1.05,1.48c-1.35,1.93-2.7,3.91-4,5.89l-2.81,4.25l-0.08,0.18c-7.13,11.16-13.65,22.71-19.52,34.58
			c-1.23,2.47-0.22,5.47,2.25,6.7c0.69,0.35,1.45,0.53,2.22,0.53c1.9,0,3.63-1.07,4.48-2.77c5.74-11.64,12.12-22.96,19.11-33.9
			l2.61-4c1.27-1.91,2.58-3.83,3.88-5.69c0.32-0.46,0.64-0.9,1-1.35l0.08-0.11c1-1.35,1.94-2.72,2.92-4.06l1.13-1.49l0.18-0.25
			c0.94-1.24,1.84-2.44,2.75-3.61c0.38-0.49,0.8-1,1.23-1.55l0.4-0.5c0.79-1,1.64-2.08,2.5-3.12c1.75-2.13,1.44-5.29-0.69-7.04
			c-2.13-1.75-5.29-1.44-7.04,0.69l0,0L833.68,90.1z M1088.93,164.5c0-0.79,0-1.59,0-2.34c0-0.29,0-0.59,0-0.86
			c0-0.62,0-1.25,0-1.79v-1.28c0-0.76-0.06-1.51-0.1-2.26s-0.07-1.58-0.12-2.34c0,0-0.13-2.16-0.17-2.78
			c-0.19-2.76-2.57-4.85-5.33-4.67c-2.76,0.19-4.85,2.57-4.67,5.34l0,0c0,0.61,0.17,2.71,0.17,2.71c0,0.71,0.08,1.46,0.12,2.21
			s0.06,1.4,0.08,2.1v1.29c0,0.51,0,1.09,0,1.69c0,0.25,0,0.5,0,0.81c0,0.75,0,1.49,0,2.26v2.4c0,0.52,0,1,0,1.58s0,1.37,0,2.08v0.1
			c0,0.48,0,0.95,0,1.49c0,0.71,0,1.42-0.06,2.11v0.35c0,0.87-0.07,1.75-0.12,2.62l-0.11,1.86c0,0.6-0.07,1.2-0.1,1.79
			c-0.07,1-0.15,1.9-0.22,2.78l-0.19,2.29c-0.11,1.17-0.22,2.29-0.34,3.39l-0.41,3.59c-0.11,0.95-0.23,1.9-0.36,2.88
			c-0.06,0.44-0.12,0.87-0.19,1.35l-0.25,1.72c-0.21,1.42-0.43,2.85-0.67,4.27l-0.27,1.63c-0.1,0.59-0.2,1.18-0.33,1.84
			s-0.19,1.06-0.3,1.62l-0.41,2.17c-0.13,0.66-0.27,1.4-0.42,2.12l-0.42,2c-0.07,0.34-0.16,0.75-0.26,1.19l-0.39,1.77
			c-0.11,0.51-0.23,1-0.34,1.52c-0.24,1.04-0.48,2.04-0.72,3l-0.53,2.15c-0.13,0.54-0.26,1.08-0.41,1.64l-0.63,2.4l-6.53,24.93
			c-0.69,2.67,0.92,5.4,3.59,6.09c2.67,0.69,5.4-0.92,6.09-3.59l6.44-24.83c0.17-0.68,0.54-2.09,0.62-2.4
			c0.16-0.61,0.32-1.22,0.46-1.81l0.52-2.13c0.25-1,0.5-2.06,0.75-3.15c0.13-0.56,0.25-1.12,0.36-1.63
			c0.07-0.28,0.26-1.18,0.39-1.76s0.21-0.94,0.29-1.31l0.42-2c0.16-0.78,0.32-1.56,0.45-2.27l0.41-2.15
			c0.12-0.59,0.22-1.18,0.32-1.7c0.13-0.68,0.25-1.37,0.35-2l0.27-1.61c0.25-1.5,0.49-3,0.71-4.5l0.24-1.71
			c0.08-0.5,0.15-1,0.21-1.48c0.14-1,0.26-2,0.38-3s0.42-3.63,0.42-3.65c0.13-1.2,0.25-2.39,0.36-3.64l0.2-2.32
			c0.07-0.93,0.15-1.87,0.22-3c0-0.64,0.08-1.28,0.12-1.89l0.1-1.85c0.06-0.94,0.1-1.89,0.13-2.78v-0.31c0-0.77,0-1.55,0.07-2.25
			c0-0.52,0-1.06,0-1.62v-0.09c0-0.74,0-1.48,0-2.19s0-1.12,0-1.65v-2.5L1088.93,164.5z M966.2,51.1c2.66-0.75,4.2-3.52,3.44-6.18
			c-0.75-2.66-3.52-4.2-6.18-3.44c-2.66,0.75-4.2,3.52-3.44,6.18c0.61,2.16,2.58,3.64,4.83,3.63
			C965.31,51.29,965.76,51.23,966.2,51.1z M1053.05,185.22c-2.76-0.31-5.25,1.68-5.56,4.44c-0.31,2.76,1.68,5.25,4.44,5.56h0.59
			c2.76,0.16,5.13-1.95,5.29-4.71c0.16-2.76-1.95-5.13-4.71-5.29H1053.05z M1053.74,155.74c-2.76,0.04-4.96,2.32-4.92,5.08
			c0.04,2.76,2.32,4.96,5.08,4.92h0.15c2.76-0.09,4.93-2.39,4.84-5.16S1056.5,155.66,1053.74,155.74z M907.13,65.16
			c-2.36,1.43-3.12,4.5-1.7,6.86c1.43,2.36,4.5,3.12,6.86,1.7c2.36-1.43,3.12-4.5,1.7-6.86c0,0,0,0,0-0.01
			C912.56,64.49,909.49,63.74,907.13,65.16z M934.58,51.34L934.58,51.34c-2.55,1.06-3.76,3.98-2.71,6.53
			c0.77,1.87,2.6,3.09,4.62,3.09c0.65,0,1.3-0.13,1.9-0.38c2.55-1.05,3.77-3.98,2.72-6.53c-1.05-2.55-3.98-3.77-6.53-2.72l0,0V51.34
			z M1051.58,136.1c2.71-0.52,4.49-3.14,3.96-5.86c-0.52-2.71-3.14-4.49-5.86-3.96c-2.71,0.52-4.49,3.14-3.96,5.86
			c0.45,2.33,2.48,4.03,4.86,4.05c0.34,0,0.68-0.03,1.01-0.09H1051.58z M1028.81,70.35c-2.48,1.22-3.5,4.22-2.28,6.69
			c1.22,2.48,4.22,3.5,6.69,2.28c2.48-1.22,3.5-4.22,2.28-6.69c0,0,0-0.01,0-0.01c-1.22-2.47-4.21-3.48-6.68-2.27L1028.81,70.35z
			 M993.06,34.58c-2.71,0.55-4.45,3.19-3.91,5.89c0.47,2.33,2.53,4.01,4.91,4.01c0.34,0,0.67-0.03,1-0.1
			c2.71-0.55,4.45-3.19,3.9-5.9C998.41,35.78,995.77,34.03,993.06,34.58z M1047.41,100.58c-0.93-2.6-3.8-3.95-6.4-3.02
			c-2.6,0.93-3.95,3.8-3.02,6.4c0.93,2.6,3.8,3.95,6.4,3.02c0.01,0,0.01,0,0.02-0.01c2.57-0.94,3.91-3.78,3-6.36V100.58z
			 M1014.19,44.13c-2.4,1.37-3.22,4.43-1.85,6.83s4.43,3.22,6.83,1.85c2.4-1.37,3.22-4.43,1.85-6.83c0,0,0-0.01-0.01-0.01
			c-1.39-2.38-4.44-3.19-6.82-1.81V44.13z M767.43,263.7c-2.28-1.56-5.39-0.97-6.95,1.3c-1.56,2.28-0.97,5.39,1.3,6.95
			c2.26,1.55,5.34,0.99,6.91-1.25l0,0c1.59-2.26,1.04-5.38-1.22-6.97C767.46,263.72,767.45,263.71,767.43,263.7z M782.54,243
			c-2.08,1.82-2.29,4.98-0.47,7.06s4.98,2.29,7.06,0.47c2.07-1.82,2.29-4.97,0.47-7.05C787.78,241.39,784.62,241.18,782.54,243
			C782.54,243,782.54,243,782.54,243L782.54,243z M746.68,319.53c-2.66-0.75-5.42,0.81-6.17,3.46c-0.75,2.66,0.81,5.42,3.47,6.17
			l0,0c0.44,0.12,0.89,0.18,1.35,0.18c2.76-0.01,4.99-2.25,4.98-5.02C750.31,322.1,748.83,320.14,746.68,319.53L746.68,319.53z
			 M754.78,290.64c-2.66-0.75-5.42,0.81-6.17,3.46c-0.75,2.66,0.81,5.42,3.47,6.17l0,0c0.44,0.13,0.89,0.19,1.35,0.19
			c2.76,0.01,5.01-2.22,5.02-4.98C758.46,293.23,756.96,291.24,754.78,290.64L754.78,290.64z M984.38,393.48
			c-2.38-1.4-5.44-0.61-6.85,1.77c-1.4,2.38-0.61,5.44,1.77,6.85c2.38,1.4,5.44,0.61,6.84-1.77
			C987.55,397.95,986.76,394.89,984.38,393.48C984.38,393.48,984.38,393.48,984.38,393.48L984.38,393.48z M969.15,419.33
			c-2.39-1.39-5.45-0.58-6.83,1.81c-1.39,2.39-0.58,5.45,1.81,6.83c2.37,1.37,5.4,0.59,6.8-1.76c1.42-2.37,0.65-5.44-1.72-6.86
			C969.19,419.35,969.17,419.34,969.15,419.33z M953.93,445.22c-2.38-1.4-5.44-0.61-6.85,1.77c-1.4,2.38-0.61,5.44,1.77,6.85
			c2.38,1.4,5.44,0.61,6.84-1.77C957.1,449.69,956.31,446.63,953.93,445.22C953.93,445.22,953.93,445.22,953.93,445.22z
			 M938.69,471.02c-2.38-1.4-5.44-0.61-6.85,1.77c-1.4,2.38-0.61,5.44,1.77,6.85c2.38,1.4,5.44,0.61,6.85-1.77c0,0,0,0,0-0.01
			C941.86,475.48,941.07,472.42,938.69,471.02z"/>
	</g>
</g>
</svg>
