<?xml version="1.0" encoding="utf-8"?>
<!-- Generator: Adobe Illustrator 23.0.3, SVG Export Plug-In . SVG Version: 6.00 Build 0)  -->
<svg version="1.1" id="Layer_1" xmlns="http://www.w3.org/2000/svg" xmlns:xlink="http://www.w3.org/1999/xlink" x="0px" y="0px"
	 viewBox="0 0 1126.8 845.1" style="enable-background:new 0 0 1126.8 845.1;" xml:space="preserve">
<style type="text/css">
	.st0{fill:#1B2852;}
	.st1{opacity:0.1;fill:#55A4FF;enable-background:new    ;}
	.st2{fill:url(#SVGID_1_);}
	.st3{fill:url(#SVGID_2_);}
	.st4{fill:url(#SVGID_3_);}
	.st5{fill:url(#SVGID_4_);}
	.st6{fill:#FD7E79;}
	.st7{fill:#FFFFFF;}
	.st8{fill:#7AC5CC;}
	.st9{fill:#E8FBFF;}
	.st10{fill:url(#SVGID_5_);}
	.st11{fill:url(#SVGID_6_);}
	.st12{fill:url(#SVGID_7_);}
	.st13{fill:url(#SVGID_8_);}
	.st14{fill:url(#SVGID_9_);}
	.st15{fill:url(#SVGID_10_);}
	.st16{fill:url(#SVGID_11_);}
	.st17{fill:url(#SVGID_12_);}
	.st18{fill:url(#SVGID_13_);}
	.st19{fill:url(#SVGID_14_);}
	.st20{fill:url(#SVGID_15_);}
	.st21{fill:url(#SVGID_16_);}
	.st22{fill:url(#SVGID_17_);}
	.st23{fill:url(#SVGID_18_);}
	.st24{fill:url(#SVGID_19_);}
	.st25{fill:url(#SVGID_20_);}
	.st26{fill:url(#SVGID_21_);}
	.st27{fill:#4169C9;}
	.st28{fill:url(#SVGID_22_);}
	.st29{fill:#F2FF3B;}
</style>
<title>Dice</title>
<rect y="0" class="st0" width="1126.8" height="845.1"/>
<path class="st1" d="M0,465.54c152.83,0,225.87,201,401.42,191c183.4-10.44,219.11-305.92,725.38-233.95V845.1H0V465.54z"/>
<linearGradient id="SVGID_1_" gradientUnits="userSpaceOnUse" x1="189.7895" y1="587.2903" x2="194.1195" y2="594.1303" gradientTransform="matrix(1 0 0 -1 0 845.1)">
	<stop  offset="0" style="stop-color:#FD2371"/>
	<stop  offset="1" style="stop-color:#FD6747"/>
</linearGradient>
<path class="st2" d="M182.52,251.56c6.66,1.3,13.23,2.77,19.66,4.41C195.35,254.47,188.8,253,182.52,251.56z"/>
<linearGradient id="SVGID_2_" gradientUnits="userSpaceOnUse" x1="278.1891" y1="368.5642" x2="285.4691" y2="380.0742" gradientTransform="matrix(1 0 0 -1 0 845.1)">
	<stop  offset="0" style="stop-color:#FD2371"/>
	<stop  offset="1" style="stop-color:#FD6747"/>
</linearGradient>
<path class="st3" d="M302,475.3c-12.8-4.39-25.82-8.12-39-11.16C276.21,467.08,289.23,470.81,302,475.3z"/>
<linearGradient id="SVGID_3_" gradientUnits="userSpaceOnUse" x1="221.7201" y1="291.843" x2="495.3925" y2="724.3427" gradientTransform="matrix(1 0 0 -1 0 845.1)">
	<stop  offset="0" style="stop-color:#FD2371"/>
	<stop  offset="1" style="stop-color:#FD6747"/>
</linearGradient>
<path class="st4" d="M523.67,508.9l35,146.84c-222.48-56.92-234.14-127-322.39-93.27c0,0,2.78-43.49,69.65-46.16
	c35-1.4,50.85-21.08-3.75-40.94l-0.21-0.07c-12.77-4.49-25.79-8.22-39-11.16l-1.67-0.39l-2.3-0.55c-39.69-9.2-87-16.94-161.63-40.65
	c-27.49-8.74-59.21,0-59.21,0c9.76-13.34,40.44-38.23,88.6-31.73c55.82,9.79,53.28-30.86-11.12-43.09C53,335.84,0,355,0,355v-86.33
	c16.62-9.75,37.12-16.35,59.62-20.15c-11.77-25.7-0.56-54.9-0.56-54.9c7.81,24.83,43.28,39.53,123.46,57.94
	c6.28,1.45,12.83,2.92,19.66,4.41l0,0c5.75,1.46,11.4,3,16.91,4.76C298.87,285.53,368,301.59,380,278.38s-24.37-22.65-66.72-45.38
	c-82.4-44.22-51.77-106.56-51.77-106.56c79.58,69.7,182.26,0,360.41,74.38L523.67,508.9z"/>
<linearGradient id="SVGID_4_" gradientUnits="userSpaceOnUse" x1="19.1209" y1="291.1295" x2="65.3809" y2="364.2395" gradientTransform="matrix(0.9998 -0.0183 -0.0183 -0.9998 63.8764 822.4781)">
	<stop  offset="0" style="stop-color:#FD2371"/>
	<stop  offset="1" style="stop-color:#FD6747"/>
</linearGradient>
<path class="st5" d="M175.56,488.18c0,0-96.56-60.54-142.66-1.76c0,0,7.36-12.77,57.64,13.7
	C140.82,526.59,175.56,488.18,175.56,488.18z"/>
<path class="st6" d="M475.14,490.77c17.76,36,29.59,70.41,19.22,84.45C468.74,609.93,357,536.54,357,536.54
	c62.71-18.56,39.26-90.66-4.06-102.7l0,0c-13-3.42-27.69-4.73-44.3-3.48C246.32,435,202.2,411.27,202.2,411.27
	s109.35-2.23,63.73-60.22s-163.29-62.24-163.29-62.24c64-31.55,181.62,27.28,263.48,40.5s130.46-37.52,131.74-72.48
	s-69.92-43.91-69.92-43.91c66.94-26.43,144.53,4.28,144.53,4.28l5.9,162.69C578.37,379.89,519.8,456,475.14,490.77z"/>
<ellipse class="st0" cx="630.88" cy="718.47" rx="176.56" ry="18.8"/>
<path class="st7" d="M528.43,247.53C560,193.21,590.36,188.42,630,203.68l-5,81.85L528.43,247.53z"/>
<path class="st8" d="M463.17,564.14C496.92,627,522.44,642,572.06,660.81s58.82-35.95,58.82-35.95L527.34,522.93L463.17,564.14z"/>
<path class="st9" d="M892,388.29c42.57,69.08,33.64,90.6,6.21,138.05C877.85,561.57,794.6,437.2,794.6,437.2L892,388.29z"/>
<polygon class="st7" points="653.93,288.81 583.98,356.12 649.16,433.83 711.9,396.84 730.47,364.87 "/>
<linearGradient id="SVGID_5_" gradientUnits="userSpaceOnUse" x1="670.4326" y1="472.2024" x2="814.7526" y2="-47.1376" gradientTransform="matrix(1 0 0 -1 0 845.1)">
	<stop  offset="0" style="stop-color:#8FD4DA"/>
	<stop  offset="1" style="stop-color:#E8FBFF"/>
</linearGradient>
<path class="st10" d="M723.73,718.37l-165-62.63c-27.31-10.34-41.07-40.86-30.73-68.16c1.03-2.71,2.27-5.33,3.73-7.84L634.09,403.5
	c15.98-27.51,49.52-39.42,79.27-28.13l166,63c26.84,10.21,40.33,40.24,30.13,67.09c-0.99,2.61-2.19,5.13-3.59,7.54L803,690.24
	C787.02,717.75,753.48,729.66,723.73,718.37z"/>
<linearGradient id="SVGID_6_" gradientUnits="userSpaceOnUse" x1="631.704" y1="471.0575" x2="365.204" y2="385.2875" gradientTransform="matrix(1 0 0 -1 0 845.1)">
	<stop  offset="0" style="stop-color:#C0E6F0"/>
	<stop  offset="1" style="stop-color:#E8FBFF"/>
</linearGradient>
<path class="st11" d="M430.25,502.74l38.2,71.26c14,26.07,51.13,26.7,66,1.12l103.7-178.62c14.98-25.78,15.51-57.48,1.42-83.75
	l-41.41-77.24C585,211,550,210.37,536,234.46L431.75,414C415.88,441.31,415.31,474.9,430.25,502.74z"/>
<path class="st9" d="M866.94,433.41L714,375.6l-8.16-3.08l-0.6-0.22l-4.52-1.71l-1.56-0.59c-26.25-10.07-38.79-17.07-59.76-57l0,0
	L599,239c-11.14-20.45,9.24-43.7,31-35.32l144.85,55.8c33.1,12.77,61.02,36.17,79.38,66.52l43.07,71.11
	C916.54,429.74,900.7,447.61,866.94,433.41z"/>
<linearGradient id="SVGID_7_" gradientUnits="userSpaceOnUse" x1="701.9888" y1="424.2001" x2="695.5288" y2="356.4401" gradientTransform="matrix(1 0 0 -1 -5.346051e-03 845.0926)">
	<stop  offset="0" style="stop-color:#131633"/>
	<stop  offset="1" style="stop-color:#0E5259"/>
</linearGradient>
<path class="st12" d="M693.84,431.91c18.03-3.02,34.67,6.63,37.17,21.55c2.5,14.92-10.1,29.46-28.13,32.48
	c-18.03,3.02-34.67-6.63-37.17-21.55S675.81,434.93,693.84,431.91z"/>
<linearGradient id="SVGID_8_" gradientUnits="userSpaceOnUse" x1="663.6257" y1="352.9092" x2="655.0157" y2="293.7592" gradientTransform="matrix(1 0 0 -1 -5.198843e-04 845.0985)">
	<stop  offset="0" style="stop-color:#131633"/>
	<stop  offset="1" style="stop-color:#0E5259"/>
</linearGradient>
<path class="st13" d="M653.94,500.62c18.03-3.02,34.67,6.63,37.17,21.55s-10.1,29.46-28.13,32.48
	c-18.03,3.02-34.67-6.63-37.17-21.55S635.91,503.64,653.94,500.62z"/>
<linearGradient id="SVGID_9_" gradientUnits="userSpaceOnUse" x1="622.2198" y1="286" x2="616.2998" y2="225.77" gradientTransform="matrix(1 0 0 -1 4.176740e-03 845.1027)">
	<stop  offset="0" style="stop-color:#131633"/>
	<stop  offset="1" style="stop-color:#0E5259"/>
</linearGradient>
<path class="st14" d="M614.04,569.34c18.03-3.02,34.67,6.63,37.17,21.55s-10.1,29.46-28.13,32.48
	c-18.03,3.02-34.67-6.63-37.17-21.55S596.01,572.35,614.04,569.34z"/>
<linearGradient id="SVGID_10_" gradientUnits="userSpaceOnUse" x1="820.3873" y1="376.2501" x2="818.7673" y2="310.64" gradientTransform="matrix(1 0 0 -1 1.364956e-03 845.0981)">
	<stop  offset="0" style="stop-color:#131633"/>
	<stop  offset="1" style="stop-color:#0E5259"/>
</linearGradient>
<path class="st15" d="M815.02,476.17c18.03-3.02,34.67,6.63,37.17,21.55c2.5,14.92-10.1,29.46-28.13,32.48
	c-18.03,3.02-34.67-6.63-37.17-21.55S796.99,479.19,815.02,476.17z"/>
<linearGradient id="SVGID_11_" gradientUnits="userSpaceOnUse" x1="781.4734" y1="302.4698" x2="778.2435" y2="250.8498" gradientTransform="matrix(1 0 0 -1 -3.803384e-03 845.1039)">
	<stop  offset="0" style="stop-color:#131633"/>
	<stop  offset="1" style="stop-color:#0E5259"/>
</linearGradient>
<path class="st16" d="M775.12,544.88c18.03-3.02,34.67,6.63,37.17,21.55c2.5,14.92-10.1,29.46-28.13,32.48
	c-18.03,3.02-34.67-6.63-37.17-21.55S757.09,547.9,775.12,544.88z"/>
<linearGradient id="SVGID_12_" gradientUnits="userSpaceOnUse" x1="743.3295" y1="233.7389" x2="736.8694" y2="181.0388" gradientTransform="matrix(1 0 0 -1 1.022784e-03 845.0998)">
	<stop  offset="0" style="stop-color:#131633"/>
	<stop  offset="1" style="stop-color:#0E5259"/>
</linearGradient>
<path class="st17" d="M735.23,613.59c18.03-3.02,34.67,6.63,37.17,21.55s-10.1,29.46-28.13,32.48
	c-18.03,3.02-34.67-6.63-37.17-21.55S717.2,616.6,735.23,613.59z"/>
<linearGradient id="SVGID_13_" gradientUnits="userSpaceOnUse" x1="639.1754" y1="591.909" x2="697.8303" y2="591.909" gradientTransform="matrix(1 0 0 -1 5.001015e-03 845.0996)">
	<stop  offset="0" style="stop-color:#131633"/>
	<stop  offset="1" style="stop-color:#0E5259"/>
</linearGradient>
<path class="st18" d="M640.07,233.06c3.94-5.57,19.87-1.08,35.58,10.04c15.71,11.12,25.24,24.64,21.3,30.22s-19.87,1.08-35.58-10.04
	C645.66,252.16,636.13,238.63,640.07,233.06z"/>
<linearGradient id="SVGID_14_" gradientUnits="userSpaceOnUse" x1="686.861" y1="508.7241" x2="745.5159" y2="508.7241" gradientTransform="matrix(1 0 0 -1 3.495614e-03 845.0984)">
	<stop  offset="0" style="stop-color:#131633"/>
	<stop  offset="1" style="stop-color:#0E5259"/>
</linearGradient>
<path class="st19" d="M687.75,316.25c3.94-5.57,19.87-1.08,35.58,10.04c15.71,11.12,25.24,24.64,21.3,30.22
	c-3.94,5.57-19.87,1.08-35.58-10.04S683.81,321.82,687.75,316.25z"/>
<linearGradient id="SVGID_15_" gradientUnits="userSpaceOnUse" x1="749.8402" y1="551.4027" x2="808.4951" y2="551.4027" gradientTransform="matrix(1 0 0 -1 0.0117 845.0934)">
	<stop  offset="0" style="stop-color:#131633"/>
	<stop  offset="1" style="stop-color:#0E5259"/>
</linearGradient>
<path class="st20" d="M750.74,273.56c3.94-5.57,19.87-1.08,35.58,10.04c15.71,11.12,25.24,24.64,21.3,30.22s-19.87,1.08-35.58-10.04
	C756.33,292.66,746.8,279.13,750.74,273.56z"/>
<linearGradient id="SVGID_16_" gradientUnits="userSpaceOnUse" x1="797.52" y1="468.2097" x2="856.175" y2="468.2097" gradientTransform="matrix(1 0 0 -1 0.0102 845.1023)">
	<stop  offset="0" style="stop-color:#131633"/>
	<stop  offset="1" style="stop-color:#0E5259"/>
</linearGradient>
<path class="st21" d="M798.42,356.77c3.94-5.57,19.87-1.08,35.58,10.04s25.24,24.64,21.3,30.22c-3.94,5.57-19.87,1.08-35.58-10.04
	C804.01,375.87,794.48,362.34,798.42,356.77z"/>
<linearGradient id="SVGID_17_" gradientUnits="userSpaceOnUse" x1="562.5272" y1="574.0338" x2="517.4972" y2="522.2737" gradientTransform="matrix(1 0 0 -1 -1.771167e-03 845.092)">
	<stop  offset="0" style="stop-color:#131633"/>
	<stop  offset="1" style="stop-color:#0E5259"/>
</linearGradient>
<path class="st22" d="M522.14,292.38c4.93-20.26,17-34.71,26.95-32.29c9.95,2.42,14.01,20.81,9.08,41.07
	c-4.93,20.26-17,34.71-26.95,32.29C521.27,331.03,517.21,312.64,522.14,292.38z"/>
<linearGradient id="SVGID_18_" gradientUnits="userSpaceOnUse" x1="501.9435" y1="457.4862" x2="452.2735" y2="411.5562" gradientTransform="matrix(1 0 0 -1 6.872113e-03 845.092)">
	<stop  offset="0" style="stop-color:#131633"/>
	<stop  offset="1" style="stop-color:#0E5259"/>
</linearGradient>
<path class="st23" d="M452.52,412.27c4.93-20.26,17-34.71,26.95-32.29c9.95,2.42,14.01,20.81,9.08,41.07
	c-4.93,20.26-17,34.71-26.95,32.29S447.59,432.53,452.52,412.27z"/>
<linearGradient id="SVGID_19_" gradientUnits="userSpaceOnUse" x1="611.2714" y1="479.7486" x2="559.5214" y2="431.9486" gradientTransform="matrix(1 0 0 -1 9.062875e-03 845.0969)">
	<stop  offset="0" style="stop-color:#131633"/>
	<stop  offset="1" style="stop-color:#0E5259"/>
</linearGradient>
<path class="st24" d="M566.65,385.55c4.93-20.26,17-34.71,26.95-32.29c9.95,2.42,14.01,20.81,9.08,41.07
	c-4.93,20.26-17,34.71-26.95,32.29C565.78,424.19,561.72,405.8,566.65,385.55z"/>
<linearGradient id="SVGID_20_" gradientUnits="userSpaceOnUse" x1="548.7787" y1="357.772" x2="496.4587" y2="322.8919" gradientTransform="matrix(1 0 0 -1 5.320792e-03 845.1067)">
	<stop  offset="0" style="stop-color:#131633"/>
	<stop  offset="1" style="stop-color:#0E5259"/>
</linearGradient>
<path class="st25" d="M497.02,505.44c4.93-20.26,17-34.71,26.95-32.29c9.95,2.42,14.01,20.81,9.08,41.07
	c-4.93,20.26-17,34.71-26.95,32.29C496.15,544.09,492.09,525.7,497.02,505.44z"/>
<linearGradient id="SVGID_21_" gradientUnits="userSpaceOnUse" x1="549.793" y1="460.917" x2="503.183" y2="415.487" gradientTransform="matrix(1 0 0 -1 4.181248e-03 845.0974)">
	<stop  offset="0" style="stop-color:#131633"/>
	<stop  offset="1" style="stop-color:#0E5259"/>
</linearGradient>
<path class="st26" d="M506.21,404.72c4.93-20.26,17-34.71,26.95-32.29c9.95,2.42,14.01,20.81,9.08,41.07
	c-4.93,20.26-17,34.71-26.95,32.29C505.34,443.36,501.28,424.98,506.21,404.72z"/>
<path class="st27" d="M839.8,660.22c9.25-9,18.8-17.6,28.71-25.77s20.1-16,30.54-23.32s21.25-14.17,32.2-20.65
	c5.55-3.11,11-6.32,16.69-9.19l4.21-2.21l2.1-1.11l2.14-1l8.55-4.14c11.48-5.3,23.08-10.29,35-14.48
	c11.78-4.4,23.86-7.89,35.92-11.18l-9-29c-12.62,4.75-25.13,9.7-37.21,15.55c-12.16,5.64-23.92,12.07-35.45,18.77l-8.55,5.19
	l-2.14,1.3l-2.09,1.36l-4.24,2.66c-5.62,3.55-11,7.44-16.48,11.22c-10.74,7.8-21.22,15.9-31.27,24.48s-19.72,17.55-29,26.85
	s-18.19,19-26.71,28.95s-16.62,20.24-24.25,30.85c-7.69,10.54-14.79,21.51-21.27,32.84l0.86,0.51
	c7.45-10.58,15.49-20.75,24.07-30.44C821.61,678.53,830.56,669.21,839.8,660.22z M1012.69,643.8c-1.32-0.13-2.64-0.18-4-0.27
	l-7.9-0.49c-2.64-0.09-5.28-0.09-7.91-0.14h-3.95c-1.31,0-2.63,0.06-3.94,0.09l-7.88,0.25c-2.62,0.16-5.23,0.39-7.85,0.58l-3.91,0.3
	l-3.9,0.46c-20.67,2.37-41.02,6.97-60.7,13.74c-9.8,3.27-19.35,7.16-28.73,11.35s-18.53,8.84-27.46,13.84s-17.61,10.4-26,16.14
	c-4.22,2.86-8.36,5.84-12.42,8.9s-8.06,6.22-11.9,9.58l0.64,0.77c4.05-3,8.29-5.77,12.56-8.47s8.61-5.28,13-7.75
	c8.78-4.95,17.76-9.51,26.93-13.68c9.17-4.17,18.48-7.91,27.92-11.23c9.44-3.3,19-6.27,28.67-8.62c19.2-4.84,38.88-7.57,58.67-8.17
	l3.68-0.13h3.68c2.45,0,4.9,0,7.34,0.08l7.33,0.39c1.22,0.08,2.44,0.1,3.65,0.22l3.64,0.36c2.43,0.26,4.86,0.46,7.27,0.75l7.22,1.07
	c1.2,0.18,2.4,0.33,3.6,0.55l3.57,0.7l7.13,1.41l3.77-21.26l-7.9-0.88L1012.69,643.8z M577.09,675.88
	c-2.39-0.88-4.76-1.81-7.17-2.65c-4.81-1.65-9.61-3.38-14.48-4.88c-9.7-3.15-19.54-5.88-29.45-8.37s-19.92-4.59-30-6.39
	s-20.23-3.24-30.44-4.32s-20.47-1.76-30.78-2c-5.15-0.12-10.32-0.16-15.51,0c-2.59,0.06-5.19,0.16-7.8,0.29
	c-1.31,0.09-2.62,0.15-3.94,0.26l-2,0.16l-2.12,0.21l2.19,15.22l1.65-0.25l1.77-0.24c1.19-0.15,2.41-0.28,3.61-0.41
	c2.43-0.25,4.88-0.47,7.33-0.65c4.91-0.37,9.86-0.58,14.81-0.71c9.91-0.24,19.85-0.09,29.8,0.46c9.95,0.55,19.88,1.45,29.79,2.72
	c9.91,1.26,19.8,2.8,29.61,4.76s19.6,4.14,29.28,6.76c4.86,1.23,9.66,2.69,14.48,4.08c2.41,0.7,4.79,1.5,7.19,2.25
	s4.79,1.48,7.16,2.33c19.07,6.44,37.72,14.07,55.85,22.82l1.45-2.82c-17.84-9.75-36.26-18.38-55.17-25.85
	C581.87,677.62,579.47,676.78,577.09,675.88L577.09,675.88z M810.09,252.38c2.36,1.43,5.44,0.67,6.86-1.7
	c1.43-2.36,0.67-5.44-1.7-6.86c-2.36-1.43-5.44-0.67-6.86,1.7c0,0,0,0,0,0c-1.42,2.37-0.64,5.44,1.73,6.86c0,0,0,0,0,0H810.09z
	 M889.69,343.38c2.76,0,5-2.24,5-5c0-2.76-2.24-5-5-5s-5,2.24-5,5c0,0.96,0.28,1.91,0.8,2.72c0.93,1.42,2.53,2.28,4.23,2.26
	L889.69,343.38z M856.8,293.2c2.76,0,5-2.24,5-5s-2.24-5-5-5s-5,2.24-5,5c0,1.08,0.35,2.13,1,3c0.95,1.26,2.45,1.99,4.03,1.98
	L856.8,293.2z M836.73,271c2.76,0,5-2.25,4.99-5.01s-2.25-5-5.01-4.99c-2.76,0-5,2.25-4.99,5.01c0,1.41,0.6,2.76,1.65,3.7
	C834.29,270.54,835.49,271,836.73,271z M873.4,318.21c0.97,0,1.91-0.28,2.72-0.81c2.31-1.51,2.97-4.6,1.46-6.92
	c-1.51-2.31-4.6-2.97-6.92-1.46c-2.31,1.51-2.97,4.6-1.46,6.92C870.13,317.36,871.71,318.21,873.4,318.21z M790.4,236.95
	c1.1-2.53-0.05-5.48-2.58-6.58c-2.53-1.1-5.48,0.05-6.58,2.58c-1.1,2.53,0.05,5.48,2.58,6.58c0.63,0.27,1.31,0.42,1.99,0.42
	c1.98-0.02,3.77-1.2,4.55-3.02L790.4,236.95z M760.3,218.4c-2.53-1.1-5.48,0.06-6.58,2.59s0.06,5.48,2.59,6.58
	c2.53,1.1,5.48-0.06,6.58-2.59C763.99,222.45,762.84,219.5,760.3,218.4c-0.01-0.01-0.03-0.01-0.04-0.02L760.3,218.4z M732.79,206.4
	c-2.53-1.1-5.48,0.06-6.58,2.59s0.06,5.48,2.59,6.58c2.53,1.1,5.48-0.06,6.58-2.59c1.08-2.54-0.09-5.47-2.63-6.56L732.79,206.4z
	 M705.28,194.4c-2.53-1.1-5.48,0.06-6.58,2.59s0.06,5.48,2.59,6.58c2.53,1.1,5.48-0.06,6.58-2.59c1.06-2.53-0.11-5.44-2.63-6.53
	L705.28,194.4z M773.32,190l-431-172c-2.57-1.02-5.48,0.22-6.5,2.79s0.22,5.48,2.79,6.5l0,0l431,172c2.57,1.02,5.48-0.22,6.5-2.79
	C777.13,193.93,775.89,191.02,773.32,190L773.32,190z M593.13,89.5l97.19,41.55c2.54,1.09,5.48-0.09,6.57-2.64
	c1.09-2.54-0.09-5.48-2.64-6.56l-97.2-41.54c-2.49-1.19-5.48-0.13-6.67,2.36s-0.13,5.48,2.36,6.67
	C592.87,89.4,593,89.45,593.13,89.5z"/>
<linearGradient id="SVGID_22_" gradientUnits="userSpaceOnUse" x1="1082.2887" y1="1024.4779" x2="1125.4087" y2="1092.6279" gradientTransform="matrix(0.98 0.2 0.2 -0.98 -780.73 930.2581)">
	<stop  offset="0" style="stop-color:#FD2371"/>
	<stop  offset="1" style="stop-color:#FD6747"/>
</linearGradient>
<path class="st28" d="M577.55,152.52c-74-19.13-130.85-47.18-125.51-82l78,15.73C588.54,98.08,577.55,152.52,577.55,152.52z"/>
<path class="st29" d="M1022.86,666.76l7.34,4.62c1.78,1.13,4.14,0.6,5.27-1.18c0.61-0.96,0.76-2.14,0.41-3.22l-2.62-8.26
	c-0.34-1.08-0.19-2.25,0.41-3.2l4.61-7.33c1.12-1.79,0.58-4.16-1.21-5.28c-0.95-0.6-2.11-0.75-3.18-0.41l-8.27,2.62
	c-1.07,0.35-2.24,0.2-3.19-0.4l-7.34-4.62c-1.78-1.13-4.14-0.6-5.27,1.18c-0.61,0.96-0.76,2.14-0.41,3.22l2.62,8.26
	c0.34,1.08,0.19,2.25-0.41,3.2l-4.61,7.33c-1.12,1.79-0.58,4.16,1.21,5.28c0.95,0.6,2.11,0.75,3.18,0.41l8.26-2.63
	C1020.74,666.01,1021.91,666.16,1022.86,666.76z"/>
<path class="st29" d="M1038.87,550.14l14.77,2.6c3.61,0.62,7.04-1.79,7.66-5.4c0.33-1.91-0.19-3.87-1.43-5.37l-9.61-11.52
	c-1.24-1.5-1.77-3.46-1.43-5.38l2.59-14.77c0.63-3.6-1.77-7.03-5.37-7.67c-1.92-0.34-3.89,0.19-5.39,1.44l-11.52,9.6
	c-1.5,1.25-3.47,1.78-5.39,1.44l-14.75-2.59c-3.6-0.63-7.03,1.77-7.67,5.37c-0.34,1.92,0.19,3.89,1.44,5.39l9.61,11.52
	c1.25,1.49,1.77,3.46,1.43,5.38L1011.2,555c-0.63,3.6,1.77,7.03,5.37,7.67c1.92,0.34,3.89-0.19,5.39-1.44l11.52-9.61
	C1034.97,550.36,1036.94,549.82,1038.87,550.14z"/>
<path class="st29" d="M406.13,666.65l7.87,3.65c1.92,0.89,4.2,0.05,5.08-1.87c0.47-1.02,0.47-2.2,0-3.22l-3.65-7.86
	c-0.47-1.02-0.47-2.2,0-3.22l3.65-7.86c0.89-1.92,0.06-4.2-1.86-5.09c-1.02-0.47-2.2-0.48-3.22,0l-7.86,3.65
	c-1.02,0.48-2.21,0.48-3.23,0l-7.91-3.65c-1.92-0.89-4.2-0.05-5.08,1.87c-0.47,1.02-0.47,2.2,0,3.22l3.65,7.86
	c0.47,1.02,0.47,2.2,0,3.22l-3.57,7.86c-0.87,1.93,0,4.2,1.93,5.06c0.98,0.44,2.09,0.45,3.07,0.03l7.86-3.65
	C403.89,666.16,405.1,666.16,406.13,666.65z"/>
</svg>
