<?xml version="1.0" encoding="utf-8"?>
<!-- Generator: Adobe Illustrator 23.0.3, SVG Export Plug-In . SVG Version: 6.00 Build 0)  -->
<svg version="1.1" id="Layer_1" xmlns="http://www.w3.org/2000/svg" xmlns:xlink="http://www.w3.org/1999/xlink" x="0px" y="0px"
	 viewBox="0 0 1126.8 845.1" style="enable-background:new 0 0 1126.8 845.1;" xml:space="preserve">
<style type="text/css">
	.st0{fill:#1B2852;}
	.st1{opacity:0.1;fill:#55A4FF;enable-background:new    ;}
	.st2{fill:#9CE7F0;}
	.st3{fill:#FFFFFF;}
	.st4{fill:#132F46;}
	.st5{fill:url(#SVGID_1_);}
	.st6{fill:url(#SVGID_2_);}
	.st7{fill:url(#SVGID_3_);}
	.st8{fill:url(#SVGID_4_);}
	.st9{opacity:0.57;fill:#30A1BB;enable-background:new    ;}
	.st10{fill:url(#SVGID_5_);}
	.st11{fill:url(#SVGID_6_);}
	.st12{fill:#FD3367;}
	.st13{fill:url(#SVGID_7_);}
	.st14{fill:#4169C9;}
	.st15{fill:#133F52;}
</style>
<title>Hilo</title>
<rect y="0" class="st0" width="1126.8" height="845.1"/>
<path class="st1" d="M0,465.54c152.83,0,225.87,201,401.42,191c183.4-10.44,219.11-305.92,725.38-233.95V845.1H0V465.54z"/>
<path class="st2" d="M618.05,223.69l-190.62-14.53c-19-1.44-41.72,12.57-51.63,31.49l-147,280.64c-12.37,23.61-9,50.85,8.36,60.89
	l180.5,104.23c27.85,16.08,63,2.19,76.78-31.21l157.7-382.76C662.4,247.53,646.48,225.85,618.05,223.69z"/>
<path class="st3" d="M647.99,266.64L492.23,644.36l-1.72,4.16c-13.75,33.31-48.8,47.22-76.51,31.25L234.26,576.19
	c-17.3-10-20.61-37.13-8.26-60.7L372.77,235.4c9.9-18.89,32.58-32.89,51.47-31.49L545.72,213l68.38,5.1
	C642.41,220.21,658.23,241.8,647.99,266.64z"/>
<path class="st4" d="M430.28,231.54L408.49,248l0.93,20.72l-13.31,0.48l-1.85-12.78l-6.64,12.11l-10.68-1.11l21.61-40.24l11.48,1.88
	l-7,11.83l14.47-11.79L430.28,231.54z"/>
<linearGradient id="SVGID_1_" gradientUnits="userSpaceOnUse" x1="297.8945" y1="-84.3202" x2="317.5045" y2="-10.6701" gradientTransform="matrix(0.88 0.47 -0.32 0.95 140.85 295.11)">
	<stop  offset="0" style="stop-color:#131633"/>
	<stop  offset="1" style="stop-color:#126C75"/>
</linearGradient>
<path class="st5" d="M434.88,416.39l2.44-51.73l0,0l-40.54,40.57c-9.8-16.64-18.06-37-18.06-37c0.13-0.44-14,60.52-14,60.52
	s28,9.93,36.35,12.29c8.18,3.1,39.68,12.74,39.68,12.74s45.67-58.31,45.35-57.85C486.05,395.91,458.48,408.46,434.88,416.39z"/>
<linearGradient id="SVGID_2_" gradientUnits="userSpaceOnUse" x1="314.6428" y1="-69.8984" x2="306.4328" y2="-83.9784" gradientTransform="matrix(0.88 0.47 -0.32 0.95 140.85 295.11)">
	<stop  offset="0" style="stop-color:#131633"/>
	<stop  offset="1" style="stop-color:#126C75"/>
</linearGradient>
<path class="st6" d="M445.94,365.1c-2.18,4.62-7.54,7.5-11.93,6.41s-6.09-5.63-3.91-10.17s7.42-7.34,11.78-6.34
	S448.12,360.5,445.94,365.1z"/>
<linearGradient id="SVGID_3_" gradientUnits="userSpaceOnUse" x1="372.5876" y1="-66.589" x2="363.6676" y2="-81.899" gradientTransform="matrix(0.88 0.47 -0.32 0.95 140.85 295.11)">
	<stop  offset="0" style="stop-color:#131633"/>
	<stop  offset="1" style="stop-color:#126C75"/>
</linearGradient>
<path class="st7" d="M496.63,394.55c-2.23,5-8.06,8-13,6.67s-7-6.29-4.74-11.17s7.92-7.84,12.8-6.65S498.88,389.59,496.63,394.55z"
	/>
<linearGradient id="SVGID_4_" gradientUnits="userSpaceOnUse" x1="259.328" y1="-41.4417" x2="251.528" y2="-54.8316" gradientTransform="matrix(0.88 0.47 -0.32 0.95 140.85 295.11)">
	<stop  offset="0" style="stop-color:#131633"/>
	<stop  offset="1" style="stop-color:#126C75"/>
</linearGradient>
<path class="st8" d="M387.45,366.82c-2.17,4.4-7.15,7.13-11.08,6.1s-5.28-5.38-3.12-9.71s7-7,10.95-6.08
	S389.62,362.43,387.45,366.82z"/>
<path class="st9" d="M647.99,266.64L492.23,644.36l-100.35-53.87c-20.05-10.76-24.89-39.79-11.84-64.91l40.57-78.07l16.59-31.92
	l97.9-188.35c2.79-5.26,6.37-10.07,10.62-14.24l68.38,5.1C642.41,220.21,658.23,241.8,647.99,266.64z"/>
<linearGradient id="SVGID_5_" gradientUnits="userSpaceOnUse" x1="883.0801" y1="416.13" x2="1032.9399" y2="179.31">
	<stop  offset="0" style="stop-color:#2ECF12"/>
	<stop  offset="1" style="stop-color:#A6F12E"/>
</linearGradient>
<polygon class="st10" points="1054.31,255.53 1013.62,163.44 925.18,239.61 955.48,243.35 907.16,374.25 957.5,393.31 
	1009.93,250.06 "/>
<path class="st2" d="M862.18,167.06l-224.4-11c-22.17-1.08-47.9,14.28-58.42,34.54L423.28,491.29
	c-13.14,25.32-7.88,54.32,12.8,64.83l216.48,110c33.67,17.12,74.38,1.86,88.73-34.3l164.06-413.48
	C916,191.49,895.88,168.71,862.18,167.06z"/>
<path class="st3" d="M896.81,213.63L733.17,625.38c-14.31,36-54.77,51.27-88.2,34.32l-215-109c-20.54-10.42-25.73-39.27-12.63-64.5
	l50.93-98.07l0.81-1.58l0.73-1.4l103.12-198.62c10.49-20.19,36.09-35.53,58.12-34.48L755.57,158l0,0l98.44,4.68
	C887.49,164.25,907.44,186.9,896.81,213.63z"/>
<linearGradient id="SVGID_6_" gradientUnits="userSpaceOnUse" x1="538.2723" y1="-130.461" x2="495.1423" y2="-204.4609" gradientTransform="matrix(0.88 0.47 -0.32 0.95 140.85 295.11)">
	<stop  offset="0" style="stop-color:#FD2371"/>
	<stop  offset="1" style="stop-color:#FD6747"/>
</linearGradient>
<path class="st11" d="M679.29,324.79c-9.77-1.93-20.36,0.93-28.6,6.82c-1.75-7.91-7.86-14-17-15.83
	c-14.48-2.86-31.41,6.14-38.2,20.15c-17.69,36.5,21.53,67.92,21.53,67.92s61.43-5,79.45-45.33
	C703.35,343.05,695.45,328,679.29,324.79z"/>
<path class="st12" d="M604.57,215.54l12.22-0.17l7.42-39.8l-17-0.38l-30.65,36.28l11.52,2.53l4.8-6.17l13,1.33L604.57,215.54z
	 M599.38,199.42l11.32-14.56l-3.06,15.34L599.38,199.42z"/>
<polygon class="st9" points="492.22,644.36 495.97,651.5 518.09,597.81 512.57,595.01 "/>
<linearGradient id="SVGID_7_" gradientUnits="userSpaceOnUse" x1="88.22" y1="453.76" x2="221.37" y2="453.76">
	<stop  offset="0" style="stop-color:#FD2371"/>
	<stop  offset="1" style="stop-color:#FD6747"/>
</linearGradient>
<polygon class="st13" points="91.12,454.78 88.22,549.65 182.57,500.35 152.99,485.61 221.37,365.48 177.72,357.87 114.11,466.24 
	"/>
<path class="st14" d="M967.59,116.12c-11.11-11.61-24.18-21.17-38.61-28.24c-20.68-11.95-45-18.9-70.45-20.11L635.59,57.16
	c-2.76-0.13-5.11,2-5.24,4.76c-0.13,2.76,2,5.11,4.76,5.24l222.94,10.6c23.89,1.14,46.73,7.66,66.07,18.86l0.3,0.16
	c13.43,6.56,25.6,15.43,35.94,26.22c1.91,2,5.07,2.07,7.07,0.16c2-1.91,2.07-5.07,0.16-7.07l0,0V116.12z M222.32,328.6
	c2.45,1.28,5.47,0.34,6.75-2.11l0,0l68.41-130.55c10.41-19.7,25.2-36.75,43.23-49.84c2.25-1.59,2.79-4.71,1.2-6.97
	c-1.59-2.25-4.71-2.79-6.97-1.2c-0.04,0.03-0.08,0.06-0.12,0.09c-19.26,14-35.07,32.22-46.19,53.28l-68.41,130.55
	C218.94,324.29,219.88,327.32,222.32,328.6z M289.23,710.41c-2.39-1.38-5.45-0.56-6.83,1.83s-0.56,5.45,1.83,6.83
	s5.45,0.56,6.83-1.83l0,0C292.44,714.85,291.62,711.79,289.23,710.41L289.23,710.41z M263.23,695.41c-2.39-1.38-5.45-0.56-6.83,1.83
	s-0.56,5.45,1.83,6.83s5.45,0.56,6.83-1.83l0,0c1.38-2.39,0.57-5.44-1.81-6.83H263.23z M315.23,725.41
	c-2.39-1.38-5.45-0.56-6.83,1.83s-0.56,5.45,1.83,6.83s5.45,0.56,6.83-1.83l0,0c1.38-2.39,0.55-5.45-1.84-6.83c0,0,0,0-0.01,0
	H315.23z M341.23,740.41c-2.39-1.38-5.45-0.56-6.83,1.83s-0.56,5.45,1.83,6.83s5.45,0.56,6.83-1.83l0,0
	c1.37-2.4,0.54-5.45-1.86-6.82c0,0-0.01,0-0.01-0.01H341.23z M367.23,755.41c-2.39-1.38-5.45-0.57-6.83,1.82
	c-1.38,2.39-0.57,5.45,1.82,6.83s5.45,0.57,6.83-1.82l0,0c1.37-2.4,0.54-5.45-1.86-6.82c0,0-0.01,0-0.01-0.01H367.23z
	 M237.32,680.41c-2.39-1.38-5.45-0.56-6.83,1.83s-0.56,5.45,1.83,6.83s5.45,0.56,6.83-1.83l0,0c1.37-2.4,0.53-5.45-1.86-6.82
	c-0.01,0-0.01-0.01-0.02-0.01H237.32z M186,650.24c-2.26-1.59-5.38-1.06-6.97,1.2s-1.06,5.38,1.2,6.97l0,0
	c0.84,0.59,1.85,0.91,2.88,0.91c2.76,0,5-2.24,5-5C188.11,652.7,187.32,651.18,186,650.24L186,650.24z M157.84,630.24
	c-2.11,1.78-2.38,4.94-0.59,7.05c0.95,1.13,2.35,1.78,3.82,1.77c1.18,0,2.32-0.41,3.22-1.18c2.14-1.75,2.46-4.9,0.71-7.04
	s-4.9-2.46-7.04-0.71C157.92,630.17,157.88,630.2,157.84,630.24z M142.55,604.5c-2.48,1.22-3.51,4.21-2.29,6.69
	c0.84,1.71,2.58,2.8,4.49,2.8c0.76,0,1.51-0.17,2.19-0.51c2.49-1.21,3.52-4.21,2.31-6.7s-4.21-3.52-6.7-2.3l0,0L142.55,604.5
	L142.55,604.5z M211.34,665.37c-2.39-1.38-5.45-0.56-6.83,1.83s-0.56,5.45,1.83,6.83s5.45,0.56,6.83-1.83l0,0
	c1.35-2.4,0.51-5.43-1.88-6.79L211.34,665.37z M132.22,576.37c-2.66,0.75-4.2,3.52-3.44,6.18c0.61,2.15,2.56,3.63,4.79,3.63
	c0.46,0,0.92-0.06,1.36-0.19c2.68-0.66,4.32-3.37,3.66-6.05s-3.37-4.32-6.05-3.66C132.43,576.31,132.33,576.34,132.22,576.37z
	 M808.48,696.22c-2.22-1.64-5.35-1.16-6.99,1.07l-0.01,0.01c-27.83,38.44-72.48,61.1-119.93,60.88
	c-23.47-0.05-46.6-5.62-67.52-16.25l-8.52-4.33c-2.46-1.25-5.47-0.27-6.73,2.19c-1.25,2.46-0.27,5.47,2.2,6.73l8.52,4.33
	c69.31,35.44,154.11,15.24,200-47.64C811.15,701,810.69,697.87,808.48,696.22z M920.57,424c-2.57-1.02-5.47,0.24-6.49,2.81l0,0
	l-48,121c-0.95,2.59,0.39,5.46,2.98,6.41c2.49,0.91,5.26-0.29,6.31-2.72l48-121C924.39,427.94,923.14,425.03,920.57,424
	C920.58,424,920.57,424,920.57,424z M818.82,105.92c2.81-0.07,5.03-2.4,4.97-5.21c-0.07-2.81-2.4-5.03-5.21-4.97
	c-2.81,0.07-5.03,2.4-4.97,5.21c0.06,2.72,2.25,4.9,4.97,4.97H818.82z M698.96,100.21c2.7-0.07,4.83-2.31,4.76-5.01
	c-0.07-2.7-2.31-4.83-5.01-4.76s-4.83,2.31-4.76,5.01c0.07,2.6,2.16,4.7,4.76,4.76H698.96z M728.96,101.64
	c2.7-0.07,4.83-2.31,4.77-5.01c-0.07-2.7-2.31-4.83-5.01-4.77s-4.83,2.31-4.77,5.01c0.06,2.61,2.16,4.7,4.77,4.77H728.96z
	 M788.88,104.49c2.69-0.07,4.82-2.3,4.76-5s-2.3-4.82-5-4.76s-4.82,2.3-4.76,5c0.06,2.6,2.16,4.69,4.76,4.76H788.88z M758.88,103.07
	c2.81-0.07,5.03-2.4,4.97-5.21c-0.07-2.81-2.4-5.03-5.21-4.97c-2.81,0.07-5.03,2.4-4.97,5.21c0.06,2.72,2.25,4.9,4.97,4.97H758.88z
	 M327.4,186.42c-1.71,2.17-1.34,5.31,0.82,7.02s5.31,1.34,7.02-0.82c1.71-2.17,1.34-5.31-0.82-7.02c-0.01-0.01-0.02-0.01-0.02-0.02
	C332.23,183.89,329.11,184.26,327.4,186.42z M269.49,292.42c-1.28,2.45-0.34,5.47,2.11,6.75l0,0c2.45,1.28,5.47,0.34,6.75-2.11l0,0
	c1.28-2.45,0.34-5.47-2.11-6.75S270.77,289.97,269.49,292.42z M311.26,212.7c-1.28,2.45-0.33,5.47,2.12,6.75
	c2.45,1.28,5.47,0.33,6.75-2.12c1.28-2.44,0.33-5.46-2.1-6.74c-2.45-1.28-5.47-0.33-6.75,2.12c0,0.01-0.01,0.02-0.01,0.02
	L311.26,212.7z M352.59,173.42c2.76-0.03,4.98-2.28,4.95-5.05c-0.03-2.76-2.28-4.98-5.05-4.95c-2.76,0.03-4.98,2.28-4.95,5.05
	c0.01,1.09,0.38,2.15,1.05,3.01c0.95,1.25,2.43,1.98,4,1.97V173.42z M283.42,265.85c-1.28,2.45-0.34,5.47,2.11,6.75
	s5.47,0.34,6.75-2.11c1.28-2.45,0.34-5.47-2.11-6.75c-2.45-1.27-5.47-0.32-6.74,2.13c0,0,0,0.01-0.01,0.01V265.85z M297.34,239.28
	c-1.28,2.45-0.34,5.47,2.11,6.75c2.45,1.28,5.47,0.34,6.75-2.11s0.34-5.47-2.11-6.75c-2.45-1.27-5.47-0.32-6.74,2.13
	c0,0,0,0.01-0.01,0.01V239.28z M466.51,151.89h0.37c2.73-0.1,4.86-2.4,4.76-5.14c-0.1-2.73-2.4-4.86-5.14-4.76s-4.86,2.4-4.76,5.14
	c0.1,2.58,2.17,4.66,4.76,4.76H466.51z M496.43,154.12h0.38c2.8-0.1,4.99-2.46,4.89-5.27c-0.1-2.8-2.46-4.99-5.27-4.89
	s-4.99,2.46-4.89,5.27C491.64,151.89,493.77,154.02,496.43,154.12z M378.31,158.12c0.69,0,1.37-0.14,2-0.42
	c2.53-1.11,3.68-4.06,2.57-6.59s-4.06-3.68-6.59-2.57c-2.53,1.11-3.68,4.06-2.57,6.59C374.52,156.95,376.32,158.12,378.31,158.12z
	 M436.6,149.65h0.38c2.76-0.1,4.91-2.43,4.81-5.19c-0.1-2.76-2.43-4.91-5.19-4.81s-4.91,2.43-4.81,5.19
	C431.89,147.46,433.99,149.55,436.6,149.65z M407.04,149.84c0.24,0,0.49-0.02,0.73-0.05c2.73-0.39,4.63-2.92,4.24-5.66
	c-0.39-2.73-2.92-4.63-5.66-4.24c-2.73,0.39-4.63,2.92-4.24,5.66C402.46,148,404.56,149.83,407.04,149.84z M503.96,728.36
	c-18.01,12.78-39.54,19.66-61.62,19.71c-18.33-0.03-36.32-4.89-52.18-14.07L209.64,629.81c-4.18-2.41-8.14-5.18-11.84-8.28
	c-2.12-1.78-5.27-1.5-7.04,0.61s-1.5,5.27,0.61,7.04c4.15,3.47,8.59,6.58,13.27,9.28L385.16,742.7
	c17.38,10.05,37.1,15.36,57.18,15.4c24.14-0.05,47.67-7.57,67.36-21.53c2.2-1.67,2.63-4.81,0.96-7.01c-1.58-2.08-4.5-2.6-6.7-1.17
	V728.36z M681.56,738.15c19.02,0.04,37.82-4.17,55-12.34c2.39-1.38,3.22-4.43,1.84-6.83c-1.23-2.14-3.83-3.06-6.13-2.17
	c-15.85,7.54-33.19,11.42-50.74,11.38c-18.75-0.05-37.22-4.5-53.93-13l-52.23-26.55c-2.42-1.33-5.46-0.44-6.79,1.99
	c-1.33,2.42-0.44,5.46,1.99,6.79c0.09,0.05,0.18,0.09,0.27,0.14l52.23,26.56c18.13,9.21,38.16,14.03,58.49,14.07L681.56,738.15z
	 M874.22,459.49c-2.57-1.02-5.47,0.24-6.49,2.81l0,0l-53.78,135.55c-1.02,2.57,0.24,5.47,2.81,6.49l0,0
	c0.59,0.23,1.21,0.35,1.84,0.35c2.05,0,3.9-1.25,4.65-3.16L877.03,466c1.03-2.56-0.22-5.47-2.78-6.5
	C874.24,459.5,874.23,459.49,874.22,459.49z M602.22,679.86c0.7,0.36,1.47,0.54,2.26,0.54c2.76,0,5-2.24,5-5s-2.24-5-5-5
	s-5,2.24-5,5C599.48,677.28,600.54,679.01,602.22,679.86z M628.96,693.45c2.46,1.25,5.47,0.27,6.72-2.19s0.27-5.47-2.19-6.72
	s-5.47-0.27-6.72,2.19l0,0c-1.24,2.47-0.24,5.47,2.22,6.71c0.01,0,0.01,0.01,0.02,0.01L628.96,693.45L628.96,693.45z M907.16,300.14
	c2.76,0.01,5.01-2.23,5.01-4.99s-2.23-5.01-4.99-5.01s-5.01,2.23-5.01,4.99c-0.01,2.05,1.24,3.89,3.14,4.65
	C905.9,300.02,906.53,300.14,907.16,300.14z M575.52,666.27c2.46,1.25,5.47,0.27,6.72-2.19s0.27-5.47-2.19-6.72
	s-5.46-0.27-6.72,2.19C572.08,662,573.05,665.01,575.52,666.27C575.51,666.27,575.52,666.27,575.52,666.27z M885.03,355.91
	c2.76,0.01,5.01-2.22,5.02-4.98s-2.22-5.01-4.98-5.02c-2.76-0.01-5.01,2.22-5.02,4.98c-0.01,2.05,1.23,3.9,3.14,4.66
	C883.78,355.79,884.4,355.91,885.03,355.91z M689.09,707.91c2.72-0.11,4.84-2.4,4.73-5.12c-0.11-2.72-2.4-4.84-5.12-4.73
	c-2.72,0.11-4.84,2.4-4.73,5.12c0.1,2.57,2.16,4.63,4.73,4.73H689.09z M717.74,700.91c0.67,0,1.33-0.13,1.94-0.39
	c2.55-1.07,3.74-4,2.67-6.55s-4-3.74-6.55-2.67s-3.74,4-2.67,6.55C713.91,699.7,715.73,700.91,717.74,700.91z M809.43,541.46
	c-2.57-1.02-5.47,0.24-6.49,2.8c-1.02,2.57,0.24,5.47,2.8,6.49s5.47-0.23,6.49-2.79c1.03-2.56-0.22-5.47-2.78-6.5
	c-0.01,0-0.01-0.01-0.02-0.01L809.43,541.46z M553.31,643.76c-2.46-1.25-5.47-0.27-6.72,2.19s-0.27,5.47,2.19,6.72
	s5.47,0.27,6.72-2.19l0,0C556.75,648.02,555.77,645.01,553.31,643.76z M658.95,705.37c2.76,0,5-2.24,5-5s-2.24-5-5-5s-5,2.24-5,5
	c0,2.29,1.56,4.29,3.78,4.85C658.13,705.32,658.54,705.37,658.95,705.37z M762.17,662.11c2.76,0,5-2.24,5-5s-2.24-5-5-5s-5,2.24-5,5
	c0,1.77,0.93,3.4,2.45,4.3C760.39,661.87,761.27,662.11,762.17,662.11L762.17,662.11z M774.39,634.76c2.76,0,5-2.24,5-5s-2.24-5-5-5
	s-5,2.24-5,5c0,2.05,1.25,3.89,3.16,4.65C773.14,634.64,773.76,634.76,774.39,634.76z M796.52,579c2.76,0.01,5.01-2.22,5.02-4.98
	s-2.22-5.01-4.98-5.02s-5.01,2.22-5.02,4.98c-0.01,2.05,1.23,3.9,3.14,4.66C795.27,578.87,795.89,579,796.52,579z M739.3,683.36
	c1.82,2.08,4.98,2.29,7.06,0.48s2.29-4.98,0.48-7.06c-1.82-2.08-4.98-2.29-7.06-0.48c0,0,0,0-0.01,0.01l0,0
	C737.7,678.13,737.49,681.28,739.3,683.36z M873.96,383.79c2.76,0,5-2.24,5-5s-2.24-5-5-5s-5,2.24-5,5c0,2.05,1.25,3.89,3.16,4.65
	C872.71,383.67,873.33,383.79,873.96,383.79z M896.09,328c2.76,0,5-2.24,5-5s-2.24-5-5-5s-5,2.24-5,5c0,2.05,1.25,3.89,3.16,4.65
	C894.84,327.88,895.46,328,896.09,328z M862.88,411.68c2.76,0.01,5.01-2.22,5.02-4.98s-2.22-5.01-4.98-5.02
	c-2.76-0.01-5.01,2.22-5.02,4.98c-0.01,2.05,1.23,3.9,3.14,4.66C861.63,411.55,862.25,411.68,862.88,411.68z M785.45,606.87
	c2.76,0,5-2.24,5-5s-2.24-5-5-5s-5,2.24-5,5c0,2.05,1.25,3.89,3.16,4.65C784.2,606.75,784.82,606.87,785.45,606.87z M816.8,522.87
	c2.57,1.02,5.47-0.23,6.49-2.8s-0.23-5.47-2.8-6.49s-5.47,0.23-6.49,2.8l0,0c-1.01,2.56,0.24,5.46,2.8,6.48V522.87z M829.71,495.34
	c2.76-0.01,4.99-2.26,4.98-5.02c-0.01-2.76-2.26-4.99-5.02-4.98c-2.76,0.01-4.99,2.26-4.98,5.02c0.01,2.06,1.27,3.9,3.19,4.64
	c0.58,0.22,1.2,0.34,1.83,0.33V495.34z M851.88,439.56c2.76-0.01,4.99-2.25,4.99-5.01s-2.25-4.99-5.01-4.99s-4.99,2.25-4.99,5.01
	c0,2.05,1.26,3.89,3.16,4.64C850.62,439.44,851.25,439.56,851.88,439.56z M840.81,467.45c2.76,0.01,5.01-2.22,5.02-4.98
	s-2.22-5.01-4.98-5.02c-2.76-0.01-5.01,2.22-5.02,4.98c-0.01,2.05,1.23,3.9,3.14,4.66c0.57,0.23,1.18,0.35,1.8,0.36H840.81z
	 M900.68,140.82c-12.75-7.79-28.29-12.33-45-13.12l-98.44-4.7c-2.76-0.13-5.11,2-5.24,4.76s2,5.11,4.76,5.24l0,0l98.44,4.68
	c15.1,0.72,29.09,4.8,40.46,11.81l0.53,0.28c19,8.75,32.07,24.51,35.84,43.24c0.48,2.33,2.52,4,4.9,4c0.34,0,0.67-0.04,1-0.1
	c2.71-0.55,4.46-3.18,3.91-5.89c-4.4-21.78-19.4-40.02-41.2-50.2H900.68z M219.68,612.49l68.09,39.32c0.76,0.44,1.62,0.67,2.5,0.67
	c2.76,0,5-2.24,5-5c0-1.79-0.95-3.44-2.5-4.33l-68.09-39.32c-10.48-6.13-18.62-15.57-23.15-26.83l-0.22-0.46
	c-11.13-20.54-10.16-48.41,2.57-72.66l146.75-280.09c13.87-26.48,43.06-45,71-45c1.5,0,3,0.06,4.49,0.17l41.12,3.07
	c2.76,0.2,5.17-1.87,5.37-4.63s-1.87-5.17-4.63-5.37l-41.1-3.03c-1.73-0.13-3.49-0.2-5.24-0.2c-31.48,0-64.3,20.7-79.83,50.34
	L195,499.24c-14.19,27.07-15.18,58.41-2.6,81.87c5.38,13.17,14.95,24.21,27.24,31.38H219.68z"/>
<polygon class="st15" points="437.2,415.59 458.06,407.79 435.08,452.03 420.61,447.51 "/>
</svg>
