<?xml version="1.0" encoding="utf-8"?>
<!-- Generator: Adobe Illustrator 23.0.3, SVG Export Plug-In . SVG Version: 6.00 Build 0)  -->
<svg version="1.1" id="Layer_1" xmlns="http://www.w3.org/2000/svg" xmlns:xlink="http://www.w3.org/1999/xlink" x="0px" y="0px"
	 viewBox="0 0 1126.8 845.1" style="enable-background:new 0 0 1126.8 845.1;" xml:space="preserve">
<style type="text/css">
	.st0{clip-path:url(#SVGID_2_);}
	.st1{fill:#1B2852;}
	.st2{fill:#FD3145;stroke:#4E74ED;stroke-width:10;stroke-miterlimit:10;}
	.st3{fill:#273A78;stroke:#4E74ED;stroke-width:10;stroke-miterlimit:10;}
	.st4{fill:url(#SVGID_3_);}
	.st5{fill:#131834;}
	.st6{fill:url(#SVGID_4_);}
	.st7{fill:#1F99AD;}
	.st8{fill:url(#SVGID_5_);}
	.st9{fill:url(#SVGID_6_);}
	.st10{fill:url(#SVGID_7_);}
	.st11{fill:#131C37;}
	.st12{fill:#131B36;}
	.st13{fill:url(#SVGID_8_);}
	.st14{fill:#FFE808;}
	.st15{fill:url(#SVGID_9_);}
	.st16{fill:url(#SVGID_10_);}
	.st17{fill:url(#SVGID_11_);}
	.st18{fill:url(#SVGID_12_);}
	.st19{fill:url(#SVGID_13_);}
	.st20{fill:url(#SVGID_14_);}
	.st21{fill:url(#SVGID_15_);}
	.st22{fill:url(#SVGID_16_);}
	.st23{fill:url(#SVGID_17_);}
	.st24{fill:url(#SVGID_18_);}
	.st25{fill:url(#SVGID_19_);}
	.st26{fill:url(#SVGID_20_);}
	.st27{fill:none;}
	.st28{fill:url(#SVGID_21_);}
	.st29{fill:url(#SVGID_22_);}
	.st30{opacity:0.5;fill:#14882B;enable-background:new    ;}
	.st31{opacity:0.5;fill:#FFFFFF;enable-background:new    ;}
	.st32{fill:#FFFFFF;}
	.st33{fill:#A6F12E;}
	.st34{fill:url(#SVGID_23_);}
	.st35{fill:url(#SVGID_24_);}
	.st36{fill:url(#SVGID_25_);}
	.st37{fill:url(#SVGID_26_);}
	.st38{fill:url(#SVGID_27_);}
	.st39{fill:url(#SVGID_28_);}
	.st40{fill:url(#SVGID_29_);}
	.st41{fill:url(#SVGID_30_);}
	.st42{fill:url(#SVGID_31_);}
	.st43{fill:url(#SVGID_32_);}
	.st44{fill:url(#SVGID_33_);}
	.st45{fill:url(#SVGID_34_);}
	.st46{fill:url(#SVGID_35_);}
	.st47{fill:url(#SVGID_36_);}
	.st48{fill:url(#SVGID_37_);}
	.st49{fill:url(#SVGID_38_);}
	.st50{fill:url(#SVGID_39_);}
	.st51{fill:url(#SVGID_40_);}
	.st52{fill:url(#SVGID_41_);}
	.st53{fill:url(#SVGID_42_);}
	.st54{fill:url(#SVGID_43_);}
	.st55{fill:url(#SVGID_44_);}
	.st56{fill:url(#SVGID_45_);}
	.st57{fill:url(#SVGID_46_);}
	.st58{fill:url(#SVGID_47_);}
	.st59{fill:url(#SVGID_48_);}
	.st60{fill:url(#SVGID_49_);}
	.st61{fill:url(#SVGID_50_);}
	.st62{fill:url(#SVGID_51_);}
	.st63{fill:url(#SVGID_52_);}
	.st64{fill:url(#SVGID_53_);}
	.st65{fill:url(#SVGID_54_);}
	.st66{fill:url(#SVGID_55_);}
	.st67{fill:url(#SVGID_56_);}
	.st68{fill:url(#SVGID_57_);}
	.st69{fill:url(#SVGID_58_);}
	.st70{fill:url(#SVGID_59_);}
	.st71{fill:url(#SVGID_60_);}
	.st72{fill:url(#SVGID_61_);}
	.st73{fill:url(#SVGID_62_);}
	.st74{fill:url(#SVGID_63_);}
	.st75{fill:url(#SVGID_64_);}
	.st76{fill:#4169C9;}
</style>
<g>
	<g>
		<defs>
			<rect id="SVGID_1_" width="1126.8" height="845.1"/>
		</defs>
		<clipPath id="SVGID_2_">
			<use xlink:href="#SVGID_1_"  style="overflow:visible;"/>
		</clipPath>
		<g class="st0">
			<rect x="-0.01" y="-0.01" class="st1" width="1126.8" height="845.1"/>
			<path class="st2" d="M522.72,491.37l-113.83-47.29c-16.3-6.77-22.66-28.06-14.51-47.58l52-124.59
				c7.9-18.9,27.59-30.34,44.31-25.55l116.47,33.43c19.31,5.54,28.57,27.05,20.29,48l-54.66,138.49
				C564.21,487.99,541.62,499.22,522.72,491.37z"/>
			<path class="st3" d="M781.76,598.99l-146.91-61c-20.84-8.65-30.35-33.64-21.69-55.88l55.18-141.63
				c8.36-21.45,32-33.91,53.23-27.81l149.42,42.84c25,7.17,38.68,32.6,30,56.74l-57.71,159.82c-8.57,23.99-34.97,36.49-58.96,27.92
				C783.46,599.68,782.6,599.35,781.76,598.99z"/>
			<path class="st3" d="M320.67,407.43l-90.78-37.71c-13.1-5.44-17.34-23.94-9.68-41.34l49-111.19
				c7.44-16.9,24.23-27.46,37.72-23.59l93.33,26.79c15.35,4.4,21.69,23,13.87,41.54l-51.5,122.14
				C354.51,403.2,335.62,413.64,320.67,407.43z"/>
			<path class="st3" d="M623.34,239.27L506.4,208.43c-16.78-4.43-23.87-23-16.12-41.58L539.7,48.49c7.5-18,27.22-30.37,44.36-27.73
				l119.16,18.35c19.72,3,29.67,21.56,21.84,41.39l-51.65,130.86C665.31,231.89,642.72,244.38,623.34,239.27z"/>
			<path class="st3" d="M887.99,309.06l-149.84-39.52c-21.31-5.61-31.61-27.16-23.43-48.14L766.8,87.71
				c7.89-20.26,31.48-33.95,53.11-30.62l151.81,23.38c25.35,3.91,39.72,25.42,31.55,48.07l-54,149.85
				C940.72,301.99,913.05,315.67,887.99,309.06z"/>
			<path class="st3" d="M415.49,184.45l-93.8-24.73c-13.56-3.58-18.45-19.94-11.14-36.55L357.3,16.99
				c7.1-16.14,23.95-27.47,37.85-25.33l96,14.79c15.84,2.43,22.84,18.67,15.35,36.31l-49,116.13
				C449.86,177.08,430.91,188.52,415.49,184.45z"/>
			<path class="st3" d="M416.2,758.25l-110.21-65.58c-15.75-9.37-21.29-33.59-12.7-54.18l54.84-131.32
				c8.32-19.92,28-30.28,44.18-23.09l113.26,50.16c18.81,8.33,27.27,33.15,18.5,55.37l-57.89,146.76
				C457.09,759.42,434.53,769.16,416.2,758.25z"/>
			<path class="st3" d="M668.42,908.39l-143.3-85.3c-20.27-12.07-28.89-40.88-19.69-64.49l58.56-150.31
				c8.86-22.75,32.51-33.8,53.26-24.6l146.37,64.82c24.57,10.88,37.37,40.7,28.1,66.48L730.1,885.82
				C720.4,912.72,692.52,922.74,668.42,908.39z"/>
			<path class="st3" d="M220.92,641.99l-87.33-52c-12.59-7.49-16.1-28.31-8.07-46.55l51.32-116.55c7.8-17.71,24.5-27.41,37.52-21.64
				l90.24,40c14.87,6.59,20.48,27.77,12.26,47.28L262.62,621.1C254.13,641.26,235.33,650.58,220.92,641.99z"/>
			
				<radialGradient id="SVGID_3_" cx="506.7429" cy="493.9159" r="74.447" gradientTransform="matrix(1 0 0 -1 0 845.1)" gradientUnits="userSpaceOnUse">
				<stop  offset="0" style="stop-color:#0E5259"/>
				<stop  offset="1" style="stop-color:#131633"/>
			</radialGradient>
			<path class="st4" d="M572.61,389.82c-1.32,3.61-2.84,7.15-4.55,10.59c-20.32,40.78-63.66,60.75-99.52,45.9
				c-36.48-15.1-51.64-61.06-35.94-103.38s57.51-68.67,95.64-58.75c25.25,6.57,43,27.4,48.55,54
				C580.25,355.45,578.8,373.34,572.61,389.82z"/>
			<path class="st5" d="M572.61,389.82c-1.32,3.61-2.84,7.15-4.55,10.59c-14.67-1.91-42-19.75-50.72-41.79l59.45-20.46
				C580.25,355.43,578.8,373.33,572.61,389.82z"/>
			
				<linearGradient id="SVGID_4_" gradientUnits="userSpaceOnUse" x1="318.2453" y1="-2165.4053" x2="346.6153" y2="-2128.0354" gradientTransform="matrix(0.88 0.26 -0.31 0.95 -422.429 2296.2749)">
				<stop  offset="0" style="stop-color:#0E5259"/>
				<stop  offset="1" style="stop-color:#131633"/>
			</linearGradient>
			<path class="st6" d="M563.84,362.99l-20.49,7.27c-7.15,3.28-15.59,1.66-21-4.05c-0.05-0.04-0.11-0.1-0.15-0.15
				c-2.67-2.81-4.64-6.21-5.76-9.92c-3.75-11.8,0.39-24.61,8.78-31.17l0,0l18.35-14.15l5.42,14.06c3.44,2.86,6,6.63,7.39,10.88
				c1.28,3.81,1.77,7.85,1.44,11.86l3.88,10L563.84,362.99z"/>
			<path class="st7" d="M488.99,336.86c-5.68,4.18-12.4,3.29-15-1.93s-0.23-12.73,5.34-16.91s12.36-3.46,15.08,1.72
				S494.66,332.65,488.99,336.86z"/>
			<path class="st7" d="M484.84,361.48c-2.91,2.1-6.36,1.58-7.72-1.15s-0.13-6.62,2.75-8.73s6.35-1.63,7.73,1.09
				S487.75,359.36,484.84,361.48z"/>
			
				<linearGradient id="SVGID_5_" gradientUnits="userSpaceOnUse" x1="341.3712" y1="-2136.3533" x2="347.8511" y2="-2127.8235" gradientTransform="matrix(0.88 0.26 -0.31 0.95 -422.429 2296.2749)">
				<stop  offset="0" style="stop-color:#0E5259"/>
				<stop  offset="1" style="stop-color:#125A67"/>
			</linearGradient>
			<path class="st8" d="M561.74,357.59c-1.7,0.66-4.2,1.61-7.12,2.66l2.76,2.42c0,0-10.51,3.41-17.69,5.87s-13.48,1.56-17.35-2.34
				c5.41,5.71,13.85,7.33,21,4.05l20.5-7.26L561.74,357.59z"/>
			
				<linearGradient id="SVGID_6_" gradientUnits="userSpaceOnUse" x1="317.0154" y1="-2162.8223" x2="378.9654" y2="-2158.7021" gradientTransform="matrix(0.88 0.26 -0.31 0.95 -422.429 2296.2749)">
				<stop  offset="0" style="stop-color:#126C75"/>
				<stop  offset="1" style="stop-color:#131633"/>
			</linearGradient>
			<path class="st9" d="M579.83,322.9c5,13.93-0.19,31-12.38,38.29c-13.1,7.89-28.81,1.48-34.08-14.6
				c-5.19-15.81,2.27-33.35,15.65-39C561.49,302.25,574.92,309.18,579.83,322.9z"/>
			
				<linearGradient id="SVGID_7_" gradientUnits="userSpaceOnUse" x1="336.9981" y1="-2181.3879" x2="362.898" y2="-2146.8679" gradientTransform="matrix(0.88 0.26 -0.31 0.95 -422.429 2296.2749)">
				<stop  offset="0" style="stop-color:#131633"/>
				<stop  offset="0.49" style="stop-color:#0E5259"/>
				<stop  offset="1" style="stop-color:#131633"/>
			</linearGradient>
			<path class="st10" d="M565.73,353.8l-0.33,0.22c-9.1,5.6-20.31,0.59-24.33-11.46c-2.53-7.4-1.55-15.56,2.67-22.15
				c1.91-2.92,4.64-5.22,7.84-6.6c8.75-3.62,18.31,1.88,21.94,12.16S573.91,348.49,565.73,353.8z"/>
			<path class="st11" d="M565.73,353.8l-0.33,0.22c-9.1,5.6-20.31,0.59-24.33-11.46c-2.53-7.4-1.55-15.56,2.67-22.15
				c0.9-0.61,1.85-1.12,2.85-1.54c8.71-3.59,18.21,1.94,21.81,12.23C571.09,338.81,569.99,347.64,565.73,353.8z"/>
			<path class="st12" d="M552.37,342.99c-1.22-0.37-2.26-1.2-2.89-2.31c-1.59-2.77-0.6-6.67,2.21-8.74c13.13-9.65,25.9-8,37.37-6.44
				c12.25,1.62,22.08,2.92,32.26-7.38c2.65-2.68,6.73-2.92,9.11-0.53s2.17,6.56-0.51,9.26c-15.32,15.39-30.62,13.21-43.85,11.33
				c-10.55-1.5-19.53-2.78-28.56,3.8C556.05,343.11,554.15,343.48,552.37,342.99z"/>
			<g>
				<path class="st7" d="M553.7,339.31c-0.49-0.15-0.91-0.48-1.16-0.92c-0.31-0.57-0.39-1.24-0.22-1.86
					c0.17-0.66,0.56-1.24,1.11-1.64c11.9-8.73,23.41-7.17,34.74-5.64c12.24,1.66,24,3.25,35.71-8.57c0.68-0.72,1.69-1.02,2.65-0.79
					c0.38,0.1,0.72,0.3,1,0.58c0.95,1.08,0.85,2.72-0.21,3.69c-13.76,13.86-27.41,12-40.35,10.16c-10.85-1.51-21-2.92-31.21,4.58
					C555.17,339.35,554.41,339.5,553.7,339.31z"/>
			</g>
			
				<linearGradient id="SVGID_8_" gradientUnits="userSpaceOnUse" x1="741.951" y1="-2103.4124" x2="658.9109" y2="-2067.8523" gradientTransform="matrix(0.98 0.18 -0.18 0.98 -445.122 2242.3521)">
				<stop  offset="0" style="stop-color:#FB571D"/>
				<stop  offset="1" style="stop-color:#FACC2C"/>
			</linearGradient>
			<polygon class="st13" points="600.36,330.04 583.76,367.59 616.08,347.86 630.35,373.3 632.26,347.19 673.62,339.57 
				640.22,320.51 658.14,283.44 622.85,305.68 608.68,274.45 601.22,310.34 576.22,304.98 			"/>
			<polygon class="st14" points="608.58,327.89 597.98,317 606.32,318.83 610.85,296.91 619.33,315.81 641.56,301.89 630.93,323.89 
				652.14,336.15 625.55,341.17 625,348.53 619.03,338.01 598.54,350.61 			"/>
			
				<linearGradient id="SVGID_9_" gradientUnits="userSpaceOnUse" x1="244.7503" y1="-1910.1124" x2="198.3703" y2="-1890.5524" gradientTransform="matrix(0.83 0.4 -0.46 0.89 -791.924 1907.4612)">
				<stop  offset="0.01" style="stop-color:#B1133A"/>
				<stop  offset="1" style="stop-color:#F1583C"/>
			</linearGradient>
			<polygon class="st15" points="255.75,354.24 269.07,255.16 312.67,287.48 291.32,322.18 			"/>
			
				<linearGradient id="SVGID_10_" gradientUnits="userSpaceOnUse" x1="279.3472" y1="-1862.7908" x2="268.4273" y2="-1901.8708" gradientTransform="matrix(0.83 0.4 -0.46 0.89 -791.924 1907.4612)">
				<stop  offset="0.01" style="stop-color:#B1133A"/>
				<stop  offset="1" style="stop-color:#F1583C"/>
			</linearGradient>
			<polygon class="st16" points="341.98,350.41 255.75,354.24 283.48,318.94 310.01,297.97 			"/>
			
				<linearGradient id="SVGID_11_" gradientUnits="userSpaceOnUse" x1="200.5221" y1="-1964.7042" x2="232.5105" y2="-1964.7042" gradientTransform="matrix(0.83 0.4 -0.46 0.89 -791.924 1907.4612)">
				<stop  offset="0.01" style="stop-color:#0C8C10"/>
				<stop  offset="1" style="stop-color:#31BD24"/>
			</linearGradient>
			<polygon class="st17" points="269.07,255.16 296.69,229.92 309.79,233.76 301.2,257.16 			"/>
			
				<linearGradient id="SVGID_12_" gradientUnits="userSpaceOnUse" x1="308.2054" y1="-1928.7188" x2="323.3654" y2="-1908.6487" gradientTransform="matrix(0.83 0.4 -0.46 0.89 -791.914 1907.4709)">
				<stop  offset="0" style="stop-color:#0C8F11"/>
				<stop  offset="1" style="stop-color:#43BD24"/>
			</linearGradient>
			<path class="st18" d="M367.12,327.22l-25.13,23.19l4.16-47c0,0,18.59,4.42,17.24,4.66S367.12,327.22,367.12,327.22z"/>
			
				<linearGradient id="SVGID_13_" gradientUnits="userSpaceOnUse" x1="495.8148" y1="-1864.6616" x2="492.3349" y2="-1823.8018" gradientTransform="matrix(0.94 0.34 -0.34 0.94 -805.516 1850.566)">
				<stop  offset="0" style="stop-color:#0EA313"/>
				<stop  offset="1" style="stop-color:#43BD24"/>
			</linearGradient>
			<polygon class="st19" points="269.07,255.16 283.48,318.94 323.86,269.19 288.81,259.07 			"/>
			
				<linearGradient id="SVGID_14_" gradientUnits="userSpaceOnUse" x1="535.689" y1="-1799.2039" x2="538.339" y2="-1839.2739" gradientTransform="matrix(0.94 0.34 -0.34 0.94 -805.516 1850.566)">
				<stop  offset="0" style="stop-color:#10BD16"/>
				<stop  offset="1" style="stop-color:#43BD24"/>
			</linearGradient>
			<polygon class="st20" points="283.48,318.94 341.98,350.41 346.56,282.91 			"/>
			
				<linearGradient id="SVGID_15_" gradientUnits="userSpaceOnUse" x1="536.2618" y1="-1815.2166" x2="534.4518" y2="-1906.9065" gradientTransform="matrix(0.94 0.34 -0.34 0.94 -805.516 1850.566)">
				<stop  offset="0" style="stop-color:#31DD13"/>
				<stop  offset="0.26" style="stop-color:#4CE21E"/>
				<stop  offset="1" style="stop-color:#96F13C"/>
			</linearGradient>
			<polygon class="st21" points="338.86,231.86 303.65,235.39 299.51,272.95 325.59,310.47 362.4,316 372.31,275.22 			"/>
			
				<linearGradient id="SVGID_16_" gradientUnits="userSpaceOnUse" x1="314.0217" y1="-1879.3691" x2="304.5916" y2="-1913.1892" gradientTransform="matrix(0.83 0.4 -0.46 0.89 -791.924 1907.4612)">
				<stop  offset="0" style="stop-color:#2ECF12"/>
				<stop  offset="1" style="stop-color:#A6F12E"/>
			</linearGradient>
			<polygon class="st22" points="325.59,310.47 341.98,350.41 362.4,316 			"/>
			
				<linearGradient id="SVGID_17_" gradientUnits="userSpaceOnUse" x1="328.1562" y1="-1969.037" x2="316.3063" y2="-1940.1869" gradientTransform="matrix(0.83 0.4 -0.46 0.89 -791.924 1907.4612)">
				<stop  offset="0" style="stop-color:#10BD16"/>
				<stop  offset="1" style="stop-color:#43BD24"/>
			</linearGradient>
			<polygon class="st23" points="362.4,316 367.12,327.22 372.31,275.22 			"/>
			
				<linearGradient id="SVGID_18_" gradientUnits="userSpaceOnUse" x1="511.9648" y1="-1784.9042" x2="520.7748" y2="-1842.9342" gradientTransform="matrix(0.94 0.34 -0.34 0.94 -805.516 1850.566)">
				<stop  offset="0" style="stop-color:#2ECF12"/>
				<stop  offset="1" style="stop-color:#A6F12E"/>
			</linearGradient>
			<polygon class="st24" points="325.59,310.47 283.48,318.94 299.5,272.95 			"/>
			
				<linearGradient id="SVGID_19_" gradientUnits="userSpaceOnUse" x1="200.5221" y1="-1961.2325" x2="238.7523" y2="-1961.2325" gradientTransform="matrix(0.83 0.4 -0.46 0.89 -791.924 1907.4612)">
				<stop  offset="0" style="stop-color:#2ECF12"/>
				<stop  offset="1" style="stop-color:#82BD24"/>
			</linearGradient>
			<polygon class="st25" points="299.51,272.95 269.07,255.16 303.63,235.39 			"/>
			
				<linearGradient id="SVGID_20_" gradientUnits="userSpaceOnUse" x1="238.4686" y1="-2003.41" x2="232.9986" y2="-1984.4701" gradientTransform="matrix(0.83 0.4 -0.46 0.89 -791.924 1907.4612)">
				<stop  offset="0.01" style="stop-color:#0A780E"/>
				<stop  offset="1" style="stop-color:#2CAB21"/>
			</linearGradient>
			<polygon class="st26" points="338.66,231.84 296.5,229.91 303.65,235.39 			"/>
			<path class="st27" d="M331.48,274.45"/>
			
				<linearGradient id="SVGID_21_" gradientUnits="userSpaceOnUse" x1="530.6567" y1="-1765.0061" x2="527.3568" y2="-1809.0659" gradientTransform="matrix(0.94 0.34 -0.34 0.94 -805.516 1850.566)">
				<stop  offset="0" style="stop-color:#26BD1C"/>
				<stop  offset="0.99" style="stop-color:#1AA817"/>
			</linearGradient>
			<polygon class="st28" points="283.48,318.94 341.98,350.41 255.75,354.24 			"/>
			
				<linearGradient id="SVGID_22_" gradientUnits="userSpaceOnUse" x1="466.9886" y1="-1817.663" x2="502.1885" y2="-1817.663" gradientTransform="matrix(0.94 0.34 -0.34 0.94 -805.516 1850.566)">
				<stop  offset="0" style="stop-color:#0DA11C"/>
				<stop  offset="1" style="stop-color:#177D32"/>
			</linearGradient>
			<polygon class="st29" points="269.07,255.16 283.48,318.94 255.75,354.24 			"/>
			<polygon class="st30" points="255.75,354.25 283.48,318.95 299.52,272.96 303.65,235.4 338.86,231.87 296.69,229.93 
				269.07,255.18 			"/>
			<polygon class="st31" points="269.07,255.16 271.22,264.68 255.75,354.24 			"/>
			<polygon class="st32" points="303.65,235.39 299.51,272.95 325.59,310.47 362.4,316 328.93,305.4 303.02,270.61 			"/>
			<polygon class="st33" points="303.65,235.39 299.51,272.95 325.59,310.47 362.4,316 328.93,305.4 303.02,270.61 			"/>
			
				<linearGradient id="SVGID_23_" gradientUnits="userSpaceOnUse" x1="435.5327" y1="-2184.3953" x2="379.1926" y2="-2160.6453" gradientTransform="matrix(0.83 0.4 -0.46 0.89 -791.924 1907.4612)">
				<stop  offset="0.01" style="stop-color:#B1133A"/>
				<stop  offset="1" style="stop-color:#F1583C"/>
			</linearGradient>
			<polygon class="st34" points="538.68,188.19 545.13,85.36 602.69,114.32 579.66,151.97 			"/>
			
				<linearGradient id="SVGID_24_" gradientUnits="userSpaceOnUse" x1="478.9382" y1="-2138.1582" x2="466.7083" y2="-2181.9182" gradientTransform="matrix(0.83 0.4 -0.46 0.89 -791.924 1907.4612)">
				<stop  offset="0.01" style="stop-color:#B1133A"/>
				<stop  offset="1" style="stop-color:#F1583C"/>
			</linearGradient>
			<polygon class="st35" points="645.9,176.35 538.68,188.19 569.57,149.36 600.46,125.35 			"/>
			
				<linearGradient id="SVGID_25_" gradientUnits="userSpaceOnUse" x1="381.7821" y1="-2240.7659" x2="419.9668" y2="-2240.7659" gradientTransform="matrix(0.83 0.4 -0.46 0.89 -791.924 1907.4612)">
				<stop  offset="0.01" style="stop-color:#0C8C10"/>
				<stop  offset="1" style="stop-color:#31BD24"/>
			</linearGradient>
			<polygon class="st36" points="545.13,85.36 576.84,56.89 593.52,59.55 585.25,84.33 			"/>
			
				<linearGradient id="SVGID_26_" gradientUnits="userSpaceOnUse" x1="514.4985" y1="-2220.9126" x2="530.5486" y2="-2199.6726" gradientTransform="matrix(0.83 0.4 -0.46 0.89 -791.914 1907.4709)">
				<stop  offset="0" style="stop-color:#0C8F11"/>
				<stop  offset="1" style="stop-color:#43BD24"/>
			</linearGradient>
			<path class="st37" d="M674.99,150.1l-29.05,26.25l0.26-48.78c0,0,23.75,2.8,22.08,3.17S674.99,150.1,674.99,150.1z"/>
			
				<linearGradient id="SVGID_27_" gradientUnits="userSpaceOnUse" x1="704.2229" y1="-2127.2654" x2="700.3728" y2="-2082.0254" gradientTransform="matrix(0.94 0.34 -0.34 0.94 -805.516 1850.566)">
				<stop  offset="0" style="stop-color:#0EA313"/>
				<stop  offset="1" style="stop-color:#43BD24"/>
			</linearGradient>
			<polygon class="st38" points="545.13,85.36 569.57,149.36 614.73,94.49 570.04,87.47 			"/>
			
				<linearGradient id="SVGID_28_" gradientUnits="userSpaceOnUse" x1="754.6963" y1="-2060.3948" x2="757.5763" y2="-2104.0349" gradientTransform="matrix(0.94 0.34 -0.34 0.94 -805.516 1850.566)">
				<stop  offset="0" style="stop-color:#10BD16"/>
				<stop  offset="1" style="stop-color:#43BD24"/>
			</linearGradient>
			<polygon class="st39" points="569.57,149.36 645.9,176.35 644.52,106.42 			"/>
			
				<linearGradient id="SVGID_29_" gradientUnits="userSpaceOnUse" x1="753.1562" y1="-2078.564" x2="751.3062" y2="-2172.094" gradientTransform="matrix(0.94 0.34 -0.34 0.94 -805.516 1850.566)">
				<stop  offset="0" style="stop-color:#31DD13"/>
				<stop  offset="0.26" style="stop-color:#4CE21E"/>
				<stop  offset="1" style="stop-color:#96F13C"/>
			</linearGradient>
			<polygon class="st40" points="629.55,54.78 586.05,61.81 584.79,100.67 621.2,136.73 667.85,138.98 675.94,96.06 			"/>
			
				<linearGradient id="SVGID_30_" gradientUnits="userSpaceOnUse" x1="516.6689" y1="-2166.6758" x2="506.439" y2="-2203.3757" gradientTransform="matrix(0.83 0.4 -0.46 0.89 -791.924 1907.4612)">
				<stop  offset="0" style="stop-color:#2ECF12"/>
				<stop  offset="1" style="stop-color:#A6F12E"/>
			</linearGradient>
			<polygon class="st41" points="621.2,136.73 645.9,176.35 667.85,138.98 			"/>
			
				<linearGradient id="SVGID_31_" gradientUnits="userSpaceOnUse" x1="534.3676" y1="-2262.1096" x2="523.1275" y2="-2234.7495" gradientTransform="matrix(0.83 0.4 -0.46 0.89 -791.924 1907.4612)">
				<stop  offset="0" style="stop-color:#10BD16"/>
				<stop  offset="1" style="stop-color:#43BD24"/>
			</linearGradient>
			<polygon class="st42" points="667.85,138.98 674.96,150.1 675.94,96.06 			"/>
			
				<linearGradient id="SVGID_32_" gradientUnits="userSpaceOnUse" x1="725.3684" y1="-2040.2125" x2="734.5484" y2="-2100.6523" gradientTransform="matrix(0.94 0.34 -0.34 0.94 -805.516 1850.566)">
				<stop  offset="0" style="stop-color:#2ECF12"/>
				<stop  offset="1" style="stop-color:#A6F12E"/>
			</linearGradient>
			<polygon class="st43" points="621.2,136.73 569.57,149.36 584.77,100.67 			"/>
			
				<linearGradient id="SVGID_33_" gradientUnits="userSpaceOnUse" x1="381.7821" y1="-2238.126" x2="427.6693" y2="-2238.126" gradientTransform="matrix(0.83 0.4 -0.46 0.89 -791.924 1907.4612)">
				<stop  offset="0" style="stop-color:#2ECF12"/>
				<stop  offset="1" style="stop-color:#82BD24"/>
			</linearGradient>
			<polygon class="st44" points="584.79,100.67 545.13,85.36 586.03,61.81 			"/>
			
				<linearGradient id="SVGID_34_" gradientUnits="userSpaceOnUse" x1="427.7197" y1="-2288.9209" x2="420.2397" y2="-2263.001" gradientTransform="matrix(0.83 0.4 -0.46 0.89 -791.924 1907.4612)">
				<stop  offset="0.01" style="stop-color:#0A780E"/>
				<stop  offset="1" style="stop-color:#2CAB21"/>
			</linearGradient>
			<polygon class="st45" points="629.3,54.79 576.6,56.9 586.05,61.81 			"/>
			<path class="st27" d="M624.8,99.17"/>
			
				<linearGradient id="SVGID_35_" gradientUnits="userSpaceOnUse" x1="749.4005" y1="-2017.2573" x2="745.7606" y2="-2065.8274" gradientTransform="matrix(0.94 0.34 -0.34 0.94 -805.516 1850.566)">
				<stop  offset="0" style="stop-color:#26BD1C"/>
				<stop  offset="0.99" style="stop-color:#1AA817"/>
			</linearGradient>
			<polygon class="st46" points="569.57,149.36 645.9,176.35 538.68,188.19 			"/>
			
				<linearGradient id="SVGID_36_" gradientUnits="userSpaceOnUse" x1="669.0486" y1="-2070.7432" x2="713.7587" y2="-2070.7432" gradientTransform="matrix(0.94 0.34 -0.34 0.94 -805.516 1850.566)">
				<stop  offset="0" style="stop-color:#0DA11C"/>
				<stop  offset="1" style="stop-color:#177D32"/>
			</linearGradient>
			<polygon class="st47" points="545.13,85.36 569.57,149.36 538.68,188.19 			"/>
			<polygon class="st30" points="538.68,188.2 569.57,149.38 584.79,100.68 586.06,61.82 629.55,54.79 576.84,56.9 545.13,85.37 			
				"/>
			<polygon class="st31" points="545.13,85.36 548.77,94.9 538.68,188.19 			"/>
			<polygon class="st32" points="586.05,61.81 584.79,100.67 621.2,136.73 667.85,138.98 624.84,131.21 588.9,97.94 			"/>
			<polygon class="st33" points="586.05,61.81 584.79,100.67 621.2,136.73 667.85,138.98 624.84,131.21 588.9,97.94 			"/>
			
				<linearGradient id="SVGID_37_" gradientUnits="userSpaceOnUse" x1="484.6253" y1="-1669.7538" x2="430.3452" y2="-1646.8739" gradientTransform="matrix(0.83 0.4 -0.46 0.89 -791.924 1907.4612)">
				<stop  offset="0.01" style="stop-color:#B1133A"/>
				<stop  offset="1" style="stop-color:#F1583C"/>
			</linearGradient>
			<polygon class="st48" points="338.21,675.86 350.99,552.96 404.27,601.59 379.79,641.74 			"/>
			
				<linearGradient id="SVGID_38_" gradientUnits="userSpaceOnUse" x1="529.7892" y1="-1611.9934" x2="517.7593" y2="-1655.0535" gradientTransform="matrix(0.83 0.4 -0.46 0.89 -791.924 1907.4612)">
				<stop  offset="0.01" style="stop-color:#B1133A"/>
				<stop  offset="1" style="stop-color:#F1583C"/>
			</linearGradient>
			<polygon class="st49" points="441.88,687.16 338.21,675.86 370.29,636.18 401.43,614.42 			"/>
			
				<linearGradient id="SVGID_39_" gradientUnits="userSpaceOnUse" x1="428.3721" y1="-1733.1903" x2="469.5717" y2="-1733.1903" gradientTransform="matrix(0.83 0.4 -0.46 0.89 -791.924 1907.4612)">
				<stop  offset="0.01" style="stop-color:#0C8C10"/>
				<stop  offset="1" style="stop-color:#31BD24"/>
			</linearGradient>
			<polygon class="st50" points="350.99,552.96 383.14,526.01 398.95,533.15 389.46,561.17 			"/>
			
				<linearGradient id="SVGID_40_" gradientUnits="userSpaceOnUse" x1="569.2661" y1="-1677.3367" x2="588.5161" y2="-1651.8667" gradientTransform="matrix(0.83 0.4 -0.46 0.89 -791.914 1907.4709)">
				<stop  offset="0" style="stop-color:#0C8F11"/>
				<stop  offset="1" style="stop-color:#43BD24"/>
			</linearGradient>
			<path class="st51" d="M471.5,662.22l-29.62,24.94l3.32-59.17c0,0,22.67,9.07,21,9.12S471.5,662.22,471.5,662.22z"/>
			
				<linearGradient id="SVGID_41_" gradientUnits="userSpaceOnUse" x1="681.3952" y1="-1603.0469" x2="677.4552" y2="-1556.8269" gradientTransform="matrix(0.94 0.34 -0.34 0.94 -805.516 1850.566)">
				<stop  offset="0" style="stop-color:#0EA313"/>
				<stop  offset="1" style="stop-color:#43BD24"/>
			</linearGradient>
			<polygon class="st52" points="350.99,552.96 370.29,636.18 417.08,580.43 374.69,561.38 			"/>
			
				<linearGradient id="SVGID_42_" gradientUnits="userSpaceOnUse" x1="734.2991" y1="-1516.0728" x2="737.5991" y2="-1565.9729" gradientTransform="matrix(0.94 0.34 -0.34 0.94 -805.516 1850.566)">
				<stop  offset="0" style="stop-color:#10BD16"/>
				<stop  offset="1" style="stop-color:#43BD24"/>
			</linearGradient>
			<polygon class="st53" points="370.29,636.18 441.88,687.16 444.94,601.94 			"/>
			
				<linearGradient id="SVGID_43_" gradientUnits="userSpaceOnUse" x1="733.4482" y1="-1539.9727" x2="731.2281" y2="-1652.2327" gradientTransform="matrix(0.94 0.34 -0.34 0.94 -805.516 1850.566)">
				<stop  offset="0" style="stop-color:#31DD13"/>
				<stop  offset="0.26" style="stop-color:#4CE21E"/>
				<stop  offset="1" style="stop-color:#96F13C"/>
			</linearGradient>
			<polygon class="st54" points="433.8,535.85 391.65,534.13 387.97,580.82 420.62,633.16 465.34,647.01 475.81,596.83 			"/>
			
				<linearGradient id="SVGID_44_" gradientUnits="userSpaceOnUse" x1="576.4639" y1="-1613.8293" x2="563.8439" y2="-1659.1094" gradientTransform="matrix(0.83 0.4 -0.46 0.89 -791.924 1907.4612)">
				<stop  offset="0" style="stop-color:#2ECF12"/>
				<stop  offset="1" style="stop-color:#A6F12E"/>
			</linearGradient>
			<polygon class="st55" points="420.62,633.16 441.88,687.16 465.34,647.01 			"/>
			
				<linearGradient id="SVGID_45_" gradientUnits="userSpaceOnUse" x1="593.6779" y1="-1722.6698" x2="579.3178" y2="-1687.6998" gradientTransform="matrix(0.83 0.4 -0.46 0.89 -791.924 1907.4612)">
				<stop  offset="0" style="stop-color:#10BD16"/>
				<stop  offset="1" style="stop-color:#43BD24"/>
			</linearGradient>
			<polygon class="st56" points="465.34,647.01 471.5,662.21 475.81,596.83 			"/>
			
				<linearGradient id="SVGID_46_" gradientUnits="userSpaceOnUse" x1="704.2455" y1="-1510.9601" x2="714.7155" y2="-1579.89" gradientTransform="matrix(0.94 0.34 -0.34 0.94 -805.516 1850.566)">
				<stop  offset="0" style="stop-color:#2ECF12"/>
				<stop  offset="1" style="stop-color:#A6F12E"/>
			</linearGradient>
			<polygon class="st57" points="420.62,633.16 370.29,636.18 387.95,580.82 			"/>
			
				<linearGradient id="SVGID_47_" gradientUnits="userSpaceOnUse" x1="428.3721" y1="-1726.6525" x2="477.9308" y2="-1726.6525" gradientTransform="matrix(0.83 0.4 -0.46 0.89 -791.924 1907.4612)">
				<stop  offset="0" style="stop-color:#2ECF12"/>
				<stop  offset="1" style="stop-color:#82BD24"/>
			</linearGradient>
			<polygon class="st58" points="387.97,580.82 350.99,552.96 391.63,534.12 			"/>
			
				<linearGradient id="SVGID_48_" gradientUnits="userSpaceOnUse" x1="475.6631" y1="-1773.4865" x2="470.1732" y2="-1754.4764" gradientTransform="matrix(0.83 0.4 -0.46 0.89 -791.924 1907.4612)">
				<stop  offset="0.01" style="stop-color:#0A780E"/>
				<stop  offset="1" style="stop-color:#2CAB21"/>
			</linearGradient>
			<polygon class="st59" points="433.56,535.8 382.91,525.97 391.65,534.13 			"/>
			<path class="st27" d="M426.44,588.47"/>
			
				<linearGradient id="SVGID_49_" gradientUnits="userSpaceOnUse" x1="728.1422" y1="-1490.4707" x2="724.4023" y2="-1540.2507" gradientTransform="matrix(0.94 0.34 -0.34 0.94 -805.516 1850.566)">
				<stop  offset="0" style="stop-color:#26BD1C"/>
				<stop  offset="0.99" style="stop-color:#1AA817"/>
			</linearGradient>
			<polygon class="st60" points="370.29,636.18 441.88,687.16 338.21,675.86 			"/>
			
				<linearGradient id="SVGID_50_" gradientUnits="userSpaceOnUse" x1="645.0987" y1="-1554.2695" x2="691.4787" y2="-1554.2695" gradientTransform="matrix(0.94 0.34 -0.34 0.94 -805.516 1850.566)">
				<stop  offset="0" style="stop-color:#0DA11C"/>
				<stop  offset="1" style="stop-color:#177D32"/>
			</linearGradient>
			<polygon class="st61" points="350.99,552.96 370.29,636.18 338.21,675.86 			"/>
			<polygon class="st30" points="338.22,675.88 370.29,636.19 387.97,580.84 391.66,534.14 433.8,535.87 383.14,526.03 
				350.99,552.97 			"/>
			<polygon class="st31" points="350.99,552.96 353.86,565.33 338.21,675.86 			"/>
			<polygon class="st32" points="391.65,534.13 387.97,580.82 420.62,633.16 465.34,647.01 424.46,627.32 392.09,578.49 			"/>
			<polygon class="st33" points="391.65,534.13 387.97,580.82 420.62,633.16 465.34,647.01 424.46,627.32 392.09,578.49 			"/>
			
				<linearGradient id="SVGID_51_" gradientUnits="userSpaceOnUse" x1="727.0605" y1="-1957.5597" x2="655.0805" y2="-1927.2096" gradientTransform="matrix(0.83 0.4 -0.46 0.89 -791.924 1907.4612)">
				<stop  offset="0.01" style="stop-color:#B1133A"/>
				<stop  offset="1" style="stop-color:#F1583C"/>
			</linearGradient>
			<polygon class="st62" points="671.66,520.07 674.77,390.17 747.29,436.87 720.61,480.99 			"/>
			
				<linearGradient id="SVGID_52_" gradientUnits="userSpaceOnUse" x1="787.3962" y1="-1901.2971" x2="773.7363" y2="-1950.1973" gradientTransform="matrix(0.83 0.4 -0.46 0.89 -791.924 1907.4612)">
				<stop  offset="0.01" style="stop-color:#B1133A"/>
				<stop  offset="1" style="stop-color:#F1583C"/>
			</linearGradient>
			<polygon class="st63" points="804.48,524.14 671.66,520.07 707.98,475.87 745.08,450.57 			"/>
			
				<linearGradient id="SVGID_53_" gradientUnits="userSpaceOnUse" x1="659.1522" y1="-2024.4182" x2="709.543" y2="-2024.4182" gradientTransform="matrix(0.83 0.4 -0.46 0.89 -791.924 1907.4612)">
				<stop  offset="0.01" style="stop-color:#0C8C10"/>
				<stop  offset="1" style="stop-color:#31BD24"/>
			</linearGradient>
			<polygon class="st64" points="674.77,390.17 712.44,359.38 733.17,365.54 724.18,395.65 			"/>
			
				<linearGradient id="SVGID_54_" gradientUnits="userSpaceOnUse" x1="837.3276" y1="-1986.8645" x2="858.1677" y2="-1959.2744" gradientTransform="matrix(0.83 0.4 -0.46 0.89 -791.914 1907.4709)">
				<stop  offset="0" style="stop-color:#0C8F11"/>
				<stop  offset="1" style="stop-color:#43BD24"/>
			</linearGradient>
			<path class="st65" d="M839.53,495.51l-35,28.64l-2.3-62.74c0,0,29.91,7.79,27.83,8S839.53,495.51,839.53,495.51z"/>
			
				<linearGradient id="SVGID_55_" gradientUnits="userSpaceOnUse" x1="939.8893" y1="-1876.2704" x2="935.4692" y2="-1824.3903" gradientTransform="matrix(0.94 0.34 -0.34 0.94 -805.516 1850.566)">
				<stop  offset="0" style="stop-color:#0EA313"/>
				<stop  offset="1" style="stop-color:#43BD24"/>
			</linearGradient>
			<polygon class="st66" points="674.77,390.17 707.98,475.87 761.24,413.62 705.55,397.06 			"/>
			
				<linearGradient id="SVGID_56_" gradientUnits="userSpaceOnUse" x1="1009.074" y1="-1793.1133" x2="1012.414" y2="-1843.7031" gradientTransform="matrix(0.94 0.34 -0.34 0.94 -805.516 1850.566)">
				<stop  offset="0" style="stop-color:#10BD16"/>
				<stop  offset="1" style="stop-color:#43BD24"/>
			</linearGradient>
			<polygon class="st67" points="707.98,475.87 804.48,524.14 798.98,434 			"/>
			
				<linearGradient id="SVGID_57_" gradientUnits="userSpaceOnUse" x1="1004.5397" y1="-1812.8303" x2="1002.2397" y2="-1929.0503" gradientTransform="matrix(0.94 0.34 -0.34 0.94 -805.516 1850.566)">
				<stop  offset="0" style="stop-color:#31DD13"/>
				<stop  offset="0.26" style="stop-color:#4CE21E"/>
				<stop  offset="1" style="stop-color:#96F13C"/>
			</linearGradient>
			<polygon class="st68" points="777.59,365.5 724.06,367.16 724.42,416.36 771.49,468.78 829.97,479.91 837.75,426.16 			"/>
			
				<linearGradient id="SVGID_58_" gradientUnits="userSpaceOnUse" x1="838.9008" y1="-1918.0291" x2="826.4208" y2="-1962.8091" gradientTransform="matrix(0.83 0.4 -0.46 0.89 -791.924 1907.4612)">
				<stop  offset="0" style="stop-color:#2ECF12"/>
				<stop  offset="1" style="stop-color:#A6F12E"/>
			</linearGradient>
			<polygon class="st69" points="771.49,468.78 804.48,524.14 829.97,479.91 			"/>
			
				<linearGradient id="SVGID_59_" gradientUnits="userSpaceOnUse" x1="861.8176" y1="-2033.0736" x2="848.1377" y2="-1999.7736" gradientTransform="matrix(0.83 0.4 -0.46 0.89 -791.924 1907.4612)">
				<stop  offset="0" style="stop-color:#10BD16"/>
				<stop  offset="1" style="stop-color:#43BD24"/>
			</linearGradient>
			<polygon class="st70" points="829.97,479.91 839.53,495.51 837.75,426.16 			"/>
			
				<linearGradient id="SVGID_60_" gradientUnits="userSpaceOnUse" x1="970.3521" y1="-1774.3762" x2="981.382" y2="-1846.9963" gradientTransform="matrix(0.94 0.34 -0.34 0.94 -805.516 1850.566)">
				<stop  offset="0" style="stop-color:#2ECF12"/>
				<stop  offset="1" style="stop-color:#A6F12E"/>
			</linearGradient>
			<polygon class="st71" points="771.49,468.78 707.98,475.87 724.4,416.36 			"/>
			
				<linearGradient id="SVGID_61_" gradientUnits="userSpaceOnUse" x1="659.1522" y1="-2020.691" x2="720.0992" y2="-2020.691" gradientTransform="matrix(0.83 0.4 -0.46 0.89 -791.924 1907.4612)">
				<stop  offset="0" style="stop-color:#2ECF12"/>
				<stop  offset="1" style="stop-color:#82BD24"/>
			</linearGradient>
			<polygon class="st72" points="724.42,416.36 674.77,390.17 724.03,367.16 			"/>
			
				<linearGradient id="SVGID_62_" gradientUnits="userSpaceOnUse" x1="717.7781" y1="-2076.2656" x2="709.7781" y2="-2048.5757" gradientTransform="matrix(0.83 0.4 -0.46 0.89 -791.924 1907.4612)">
				<stop  offset="0.01" style="stop-color:#0A780E"/>
				<stop  offset="1" style="stop-color:#2CAB21"/>
			</linearGradient>
			<polygon class="st73" points="777.28,365.47 712.14,359.36 724.06,367.16 			"/>
			<path class="st27" d="M773.99,421.31"/>
			
				<linearGradient id="SVGID_63_" gradientUnits="userSpaceOnUse" x1="1001.9429" y1="-1750.333" x2="997.7729" y2="-1805.9531" gradientTransform="matrix(0.94 0.34 -0.34 0.94 -805.516 1850.566)">
				<stop  offset="0" style="stop-color:#26BD1C"/>
				<stop  offset="0.99" style="stop-color:#1AA817"/>
			</linearGradient>
			<polygon class="st74" points="707.98,475.87 804.48,524.14 671.66,520.07 			"/>
			
				<linearGradient id="SVGID_64_" gradientUnits="userSpaceOnUse" x1="894.4286" y1="-1815.9406" x2="954.7487" y2="-1815.9406" gradientTransform="matrix(0.94 0.34 -0.34 0.94 -805.516 1850.566)">
				<stop  offset="0" style="stop-color:#0DA11C"/>
				<stop  offset="1" style="stop-color:#177D32"/>
			</linearGradient>
			<polygon class="st75" points="674.77,390.17 707.98,475.87 671.66,520.07 			"/>
			<polygon class="st30" points="671.66,520.08 707.99,475.89 724.42,416.38 724.06,367.18 777.6,365.52 712.44,359.4 
				674.77,390.19 			"/>
			<polygon class="st31" points="674.77,390.17 679.69,402.88 671.66,520.07 			"/>
			<polygon class="st32" points="724.06,367.16 724.42,416.36 771.49,468.78 829.97,479.91 775.73,462.34 729.38,413.59 			"/>
			<polygon class="st33" points="724.06,367.16 724.42,416.36 771.49,468.78 829.97,479.91 775.73,462.34 729.38,413.59 			"/>
			<path class="st76" d="M780.81,896.25c-2.6-0.94-5.46,0.41-6.4,3.01c-0.94,2.6,0.41,5.46,3.01,6.4l0,0c0.54,0.2,1.11,0.3,1.69,0.3
				c2.76,0.01,5.01-2.22,5.02-4.98C784.14,898.86,782.81,896.96,780.81,896.25L780.81,896.25z M899.21,566.89
				c2.6,0.94,5.46-0.4,6.4-3s-0.4-5.46-3-6.4s-5.46,0.4-6.4,3l0,0C895.27,563.09,896.62,565.95,899.21,566.89z M790.99,867.99
				c-2.6-0.94-5.46,0.4-6.4,3s0.4,5.46,3,6.4s5.46-0.4,6.4-3l0,0C794.93,871.79,793.59,868.93,790.99,867.99z M868.79,651.55
				c2.6,0.94,5.46-0.4,6.4-3s-0.4-5.46-3-6.4s-5.46,0.4-6.4,3l0,0c-0.96,2.59,0.36,5.47,2.95,6.42c0.01,0,0.01,0,0.02,0.01
				L868.79,651.55z M889.09,595.09c2.6,0.94,5.46-0.4,6.4-3s-0.4-5.46-3-6.4s-5.46,0.4-6.4,3l0,0c-0.96,2.59,0.36,5.47,2.95,6.42
				c0.01,0,0.01,0,0.02,0.01L889.09,595.09z M801.09,839.76c-2.6-0.94-5.46,0.4-6.4,3s0.4,5.46,3,6.4s5.46-0.4,6.4-3l0,0
				c0.92-2.58-0.41-5.43-2.99-6.37L801.09,839.76z M878.9,623.32c2.6,0.94,5.46-0.4,6.4-3s-0.4-5.46-3-6.4s-5.46,0.4-6.4,3l0,0
				c-0.95,2.59,0.38,5.47,2.97,6.42c0.01,0,0.03,0.01,0.04,0.01L878.9,623.32z M858.6,679.78c2.6,0.94,5.46-0.4,6.41-2.99
				c0.94-2.6-0.4-5.46-2.99-6.41c-2.6-0.94-5.46,0.4-6.41,2.99c0,0.01,0,0.01-0.01,0.02c-0.95,2.59,0.39,5.46,2.98,6.41
				c0.01,0,0.02,0.01,0.03,0.01L858.6,679.78z M811.25,811.56c-2.6-0.94-5.46,0.4-6.4,3s0.4,5.46,3,6.4s5.46-0.4,6.4-3l0,0
				C815.19,815.36,813.85,812.5,811.25,811.56z M851.85,698.63c-2.6-0.94-5.46,0.4-6.4,3s0.4,5.46,3,6.4s5.46-0.4,6.4-3l0,0
				C855.79,702.43,854.45,699.57,851.85,698.63z M909.36,538.63c2.6,0.94,5.46-0.4,6.4-3s-0.4-5.46-3-6.4s-5.46,0.4-6.4,3l0,0
				c-0.95,2.59,0.38,5.47,2.97,6.42c0.01,0,0.02,0.01,0.03,0.01V538.63z M919.51,510.4c2.6,0.94,5.46-0.4,6.4-3s-0.4-5.46-3-6.4
				s-5.46,0.4-6.4,3l0,0c-0.95,2.59,0.38,5.47,2.97,6.42c0.01,0,0.02,0.01,0.03,0.01V510.4z M821.4,783.3
				c-2.6-0.94-5.46,0.4-6.41,2.99c-0.94,2.6,0.4,5.46,2.99,6.41c2.6,0.94,5.46-0.4,6.41-2.99c0-0.01,0-0.01,0.01-0.02
				c0.91-2.58-0.43-5.42-3-6.36V783.3z M841.7,726.83c-2.6-0.94-5.47,0.41-6.4,3.02c-0.94,2.6,0.41,5.47,3.01,6.4
				c0.55,0.19,1.12,0.29,1.7,0.29c2.76,0.01,5.01-2.23,5.01-4.99C845.03,729.43,843.7,727.54,841.7,726.83L841.7,726.83z
				 M831.55,755.07c-2.6-0.94-5.46,0.4-6.41,2.99c-0.94,2.6,0.4,5.46,2.99,6.41c2.6,0.94,5.46-0.4,6.41-2.99
				c0-0.01,0-0.01,0.01-0.02c0.91-2.58-0.43-5.42-3-6.36V755.07z M150.14,405.65c-2.01-0.92-4.38-0.04-5.3,1.97s-0.04,4.38,1.97,5.3
				c1.99,0.92,4.35,0.05,5.29-1.93c0.94-2,0.08-4.38-1.91-5.32C150.16,405.66,150.15,405.66,150.14,405.65z M162.73,378.42
				c-2-0.94-4.38-0.08-5.32,1.92s-0.08,4.38,1.92,5.32c0.02,0.01,0.03,0.01,0.05,0.02c2,0.93,4.38,0.06,5.31-1.94
				c0,0,0-0.01,0.01-0.01C165.62,381.72,164.74,379.35,162.73,378.42L162.73,378.42L162.73,378.42z M137.54,432.88
				c-2.01-0.91-4.38-0.01-5.29,2c-0.91,2.01-0.01,4.38,2,5.29s4.37,0.01,5.29-1.99C140.45,436.17,139.56,433.8,137.54,432.88
				C137.55,432.88,137.54,432.88,137.54,432.88L137.54,432.88z M175.33,351.19c-2-0.93-4.38-0.05-5.31,1.95s-0.05,4.38,1.95,5.31
				s4.38,0.05,5.31-1.95l0,0C178.21,354.5,177.33,352.12,175.33,351.19L175.33,351.19z M124.99,460.1c-2-0.94-4.38-0.08-5.32,1.92
				s-0.08,4.38,1.92,5.32c0.02,0.01,0.03,0.01,0.05,0.02c0.53,0.25,1.1,0.37,1.68,0.37c2.21,0,4-1.79,4-4
				C127.31,462.17,126.4,460.75,124.99,460.1z M250.99,187.82c-2-0.94-4.38-0.08-5.32,1.91c-0.94,2-0.08,4.38,1.91,5.32
				c0.02,0.01,0.03,0.02,0.05,0.02c2.01,0.92,4.38,0.03,5.3-1.98c0-0.01,0.01-0.01,0.01-0.02c0.88-2.02-0.03-4.37-2.04-5.26
				L250.99,187.82z M263.49,160.59c-2-0.94-4.38-0.08-5.32,1.91c-0.94,2-0.08,4.38,1.91,5.32c0.02,0.01,0.03,0.02,0.05,0.02
				c0.53,0.25,1.1,0.37,1.68,0.37c2.21,0,4-1.79,4-4C265.81,162.66,264.9,161.24,263.49,160.59L263.49,160.59z M187.92,323.99
				c-2-0.93-4.38-0.05-5.31,1.95s-0.05,4.38,1.95,5.31s4.38,0.05,5.31-1.95l0,0C190.8,327.3,189.92,324.92,187.92,323.99z
				 M276.08,133.39c-2.02-0.91-4.38-0.01-5.29,2.01c-0.91,2.02-0.01,4.38,2.01,5.29c2.01,0.9,4.36,0.01,5.28-1.99
				c0.93-2,0.06-4.38-1.94-5.31c-0.02-0.01-0.04-0.02-0.06-0.03V133.39z M238.3,215.08c-2-0.94-4.38-0.08-5.32,1.91
				c-0.94,2-0.08,4.38,1.91,5.32c0.02,0.01,0.03,0.02,0.05,0.02c0.53,0.24,1.1,0.37,1.68,0.37c2.21,0,4-1.79,4-4
				C240.62,217.15,239.71,215.73,238.3,215.08L238.3,215.08z M225.71,242.31c-2-0.93-4.38-0.05-5.31,1.95s-0.05,4.38,1.95,5.31
				s4.38,0.05,5.31-1.95l0,0c0.94-2,0.08-4.38-1.91-5.32c-0.01-0.01-0.02-0.01-0.04-0.02V242.31z M200.52,296.76
				c-2-0.93-4.38-0.05-5.31,1.95s-0.05,4.38,1.95,5.31s4.38,0.05,5.31-1.95l0,0c0.94-2,0.08-4.38-1.91-5.32
				c-0.01-0.01-0.02-0.01-0.04-0.02V296.76z M213.11,269.54c-2-0.94-4.38-0.08-5.32,1.92s-0.08,4.38,1.92,5.32
				c0.02,0.01,0.03,0.01,0.05,0.02c0.53,0.24,1.1,0.37,1.68,0.37c2.21,0,4-1.79,4-4C215.43,271.61,214.52,270.19,213.11,269.54
				L213.11,269.54z M337.54-57.01c-2.01-0.92-4.38-0.03-5.3,1.98c0,0.01-0.01,0.01-0.01,0.02L171.99,291.33
				c-0.94,2-0.08,4.38,1.91,5.32c2,0.94,4.38,0.08,5.32-1.91c0.01-0.02,0.02-0.03,0.02-0.05L339.49-51.68
				c0.94-2,0.07-4.38-1.93-5.32C337.56-57,337.55-57.01,337.54-57.01z M1006.19,353.74c-2.6-0.94-5.46,0.41-6.4,3L854.04,762.21
				c-0.98,2.58,0.33,5.47,2.91,6.45c2.58,0.98,5.47-0.33,6.45-2.91c0.02-0.05,0.04-0.1,0.06-0.16l145.75-405.45
				C1010.14,357.54,1008.79,354.68,1006.19,353.74L1006.19,353.74z M924.59,671.18c-2.59-0.93-5.45,0.41-6.39,3l-53.6,149.1
				c-0.98,2.58,0.33,5.47,2.91,6.45c2.58,0.98,5.47-0.33,6.45-2.91c0.02-0.05,0.04-0.1,0.06-0.16l53.6-149.09
				C928.54,674.97,927.19,672.11,924.59,671.18z"/>
		</g>
	</g>
</g>
</svg>
