<svg xmlns="http://www.w3.org/2000/svg" xmlns:xlink="http://www.w3.org/1999/xlink" viewBox="0 0 1126.8 845.1"><defs><style>.cls-1{fill:url(#linear-gradient);}.cls-2{isolation:isolate;}.cls-3{fill:#1b2852;}.cls-22,.cls-4,.cls-40{fill:#fff;}.cls-4{opacity:0.15;}.cls-21,.cls-4,.cls-40,.cls-41,.cls-42{mix-blend-mode:overlay;}.cls-5{fill:url(#linear-gradient-2);}.cls-6{fill:#fd3145;}.cls-7{fill:url(#linear-gradient-3);}.cls-8{fill:#0d7264;}.cls-13,.cls-37,.cls-40,.cls-8{opacity:0.5;}.cls-13,.cls-38,.cls-39,.cls-8{mix-blend-mode:multiply;}.cls-9{fill:url(#linear-gradient-4);}.cls-10{fill:url(#linear-gradient-5);}.cls-11{fill:url(#linear-gradient-6);}.cls-12{fill:#165e0b;}.cls-13{fill:#730d0d;}.cls-14{fill:url(#linear-gradient-7);}.cls-15{fill:#1a8c10;}.cls-16{fill:#104508;}.cls-17{fill:url(#linear-gradient-8);}.cls-18{fill:#8dccf0;}.cls-19{fill:#8dd6ff;}.cls-20{fill:url(#linear-gradient-9);}.cls-23{fill:#f2ff3b;}.cls-24,.cls-41,.cls-42{fill:none;stroke:#fff;stroke-miterlimit:10;}.cls-25{fill:#2ae319;}.cls-26{fill:url(#linear-gradient-10);}.cls-27{mask:url(#mask);}.cls-28{fill:url(#linear-gradient-11);}.cls-29{fill:url(#linear-gradient-12);}.cls-30{fill:#c2dff0;}.cls-31{fill:#57a5d1;}.cls-32{fill:#3c8fbd;}.cls-33{fill:url(#linear-gradient-13);}.cls-34{fill:url(#linear-gradient-14);}.cls-35{fill:url(#linear-gradient-15);}.cls-36{fill:url(#linear-gradient-16);}.cls-37{fill:#4f95bd;}.cls-38{fill:#d11919;}.cls-39{fill:#7bb2d1;}.cls-41,.cls-42{stroke-linecap:round;}.cls-41{stroke-width:10px;stroke-dasharray:0 30;}.cls-42{stroke-width:8px;}</style><linearGradient id="linear-gradient" x1="410.97" y1="567.72" x2="488.3" y2="637.92" gradientUnits="userSpaceOnUse"><stop offset="0" stop-color="#fff"/><stop offset="1"/></linearGradient><linearGradient id="linear-gradient-2" x1="787.18" y1="665.21" x2="859.65" y2="665.21" gradientUnits="userSpaceOnUse"><stop offset="0" stop-color="#d41919"/><stop offset="1" stop-color="#850f0f"/></linearGradient><linearGradient id="linear-gradient-3" x1="768.06" y1="611.83" x2="802.78" y2="592.08" gradientUnits="userSpaceOnUse"><stop offset="0" stop-color="#108c67"/><stop offset="1" stop-color="#0c6963"/></linearGradient><linearGradient id="linear-gradient-4" x1="301.58" y1="682.33" x2="346.05" y2="718.19" gradientUnits="userSpaceOnUse"><stop offset="0" stop-color="#239411"/><stop offset="1" stop-color="#165e0b"/></linearGradient><linearGradient id="linear-gradient-5" x1="308.54" y1="682.47" x2="358.74" y2="682.47" gradientUnits="userSpaceOnUse"><stop offset="0" stop-color="#25c716"/><stop offset="1" stop-color="#2ae319"/></linearGradient><linearGradient id="linear-gradient-6" x1="359" y1="614.13" x2="389.76" y2="634.64" gradientUnits="userSpaceOnUse"><stop offset="0" stop-color="#8a1010"/><stop offset="1" stop-color="#660c0c"/></linearGradient><linearGradient id="linear-gradient-7" x1="732.57" y1="549.19" x2="881.77" y2="540.54" xlink:href="#linear-gradient-2"/><linearGradient id="linear-gradient-8" x1="478.87" y1="344.23" x2="797.76" y2="344.23" gradientUnits="userSpaceOnUse"><stop offset="0" stop-color="#2e79a3"/><stop offset="0.01" stop-color="#7fcaf3"/><stop offset="1" stop-color="#53baf3"/></linearGradient><linearGradient id="linear-gradient-9" x1="528.04" y1="241.27" x2="530.65" y2="475.11" gradientUnits="userSpaceOnUse"><stop offset="0.01" stop-color="#60b5e6"/><stop offset="1" stop-color="#4f95bd"/></linearGradient><linearGradient id="linear-gradient-10" x1="494.8" y1="571.37" x2="308.9" y2="605.41" xlink:href="#linear-gradient-5"/><mask id="mask" x="349.96" y="525.99" width="166.42" height="123.78" maskUnits="userSpaceOnUse"><rect class="cls-1" x="349.96" y="525.99" width="166.42" height="123.78"/></mask><linearGradient id="linear-gradient-11" x1="413.46" y1="590.93" x2="476.52" y2="608.88" gradientUnits="userSpaceOnUse"><stop offset="0" stop-color="#104508"/><stop offset="1" stop-color="#165e0b"/></linearGradient><linearGradient id="linear-gradient-12" x1="478.87" y1="371.28" x2="699.02" y2="371.28" gradientUnits="userSpaceOnUse"><stop offset="0" stop-color="#66c1f3"/><stop offset="1" stop-color="#5ba3db"/></linearGradient><linearGradient id="linear-gradient-13" x1="684.9" y1="176.63" x2="531.31" y2="321.55" gradientUnits="userSpaceOnUse"><stop offset="0" stop-color="#91d8ff"/><stop offset="1" stop-color="#5dafde"/></linearGradient><linearGradient id="linear-gradient-14" x1="694.12" y1="301.42" x2="675" y2="235.12" gradientUnits="userSpaceOnUse"><stop offset="0" stop-color="#57a5d1"/><stop offset="1" stop-color="#3a8bba"/></linearGradient><linearGradient id="linear-gradient-15" x1="435.19" y1="433.33" x2="687.55" y2="433.33" xlink:href="#linear-gradient-14"/><linearGradient id="linear-gradient-16" x1="551.68" y1="241.26" x2="501.1" y2="636.44" gradientUnits="userSpaceOnUse"><stop offset="0" stop-color="#2e79a3"/><stop offset="1" stop-color="#2e5da3"/></linearGradient></defs><title>PvP</title><g class="cls-2"><g id="Layer_1" data-name="Layer 1"><rect class="cls-3" width="1126.8" height="845.1" transform="translate(1126.8 845.1) rotate(180)"/><path class="cls-4" d="M797.76,500.48c186.38-70.68,329,0,329,0V400.34S946.41,82.74,491,142.7Z"/><path class="cls-5" d="M858.25,661.49s0,0,0-.06a.43.43,0,0,1,0-.07l-.08-.12c-6.52-10.46-13.63-21-17.78-25.88s-53.14,21.06-53.14,21.06C790,664.48,799,685.16,799,685.16c4.08,9.22,22.1,14.44,39.5,6.94C855,685,863.13,669.52,858.25,661.49Z"/><path class="cls-6" d="M840.32,635.36c5.59,7.2-1.85,18.75-17.26,25.4-15.68,6.76-31.8,5.1-35.48-3.2-3.4-7.7,5.36-18.2,19.16-23.89C820.33,628.07,835.13,628.68,840.32,635.36Z"/><path class="cls-7" d="M823.42,653h0c-1.1.6-2.28,1.16-3.51,1.7-12.19,5.22-24.53,4.38-27.17-1.55l-43.25-76.54-11.54-20.42,22.81-6.82L773,545.76,833.71,636C837.42,640.54,833,647.88,823.42,653Z"/><path class="cls-8" d="M823.42,653c9.27-7.37-3.37-22.52-16.58-42.68s-22.09-47.11-57.36-33.7l11.27-27.24L773,545.76,833.71,636C837.42,640.54,833,647.88,823.42,653Z"/><path class="cls-9" d="M357.4,693.65c3.81-10.38-47.09-23-47.09-23s-10.58,15.52-16.81,24a6.55,6.55,0,0,0-.39.53l0,.05h0c-3.51,5.09-1.23,12.64,3.52,19,9.54,12.71,27.89,19,41.16,14.1,4.77-1.77,7.88-7.27,9.49-10.58h0l.06-.14a1.24,1.24,0,0,1,.1-.2C348.41,715.18,353.94,703.06,357.4,693.65Z"/><path class="cls-10" d="M352.75,674.08c9.16,10.06,7.78,22.28-4,26.61-12,4.42-28.61-1.51-36.4-12.47-7.2-10.12-3.93-20.69,6.67-24.23C329.49,660.51,344.26,664.78,352.75,674.08Z"/><path class="cls-11" d="M449,574.24,399.83,632.8,352,689.73l-.72.85h0a12.9,12.9,0,0,1-4.94,3.11c-5.84,2.16-13.25,1.36-19.42-1.46a24,24,0,0,1-8.48-6.27c-3.59-4.33-4-8.87-1.72-12.31l.21-.32,85.88-121Z"/><path class="cls-12" d="M356.92,691.11a12.13,12.13,0,0,1-.94,1.12Z"/><path class="cls-13" d="M399.83,632.8,352,689.73l-.72.85h0a12.9,12.9,0,0,1-4.94,3.11c-5.84,2.16-13.25,1.36-19.42-1.46h0s8.06,2.4,13.15-3.6,22.68-27,11.12-32.37L352.1,638Z"/><path class="cls-14" d="M850.48,533.35a.66.66,0,0,1,0,.14,1.62,1.62,0,0,1,0,.22c0,.06,0,.12,0,.17a7,7,0,0,1-4.55,6.12l-82.56,31.39h0l-84.17,32a7,7,0,0,1-6.87-1h0c-4.24-3.53-26.38-24.79-31-30.18a.7.7,0,0,1-.14-.16h0l24.66-6.63-4.45-7.06,31.82-13.89,71.76-31.29,31.88-13.91,13.81-6,2.36,4.56,3.27,6.33,26.34-10.89c.06.21.11.42.16.64,1.81,7.18,7,31.76,7.66,38.53,0,.21.05.43.06.64S850.48,533.26,850.48,533.35Z"/><path class="cls-15" d="M489.59,591.92c-4.14,3.84-41,31.73-44.9,34.52h0a6.83,6.83,0,0,1-2,1l-72.54,28.63-1.74.68a21.82,21.82,0,0,1-21.8-3.39l-.14-.11a22,22,0,0,1-2.49-2.43l-26.51-30.09c-2.93-3-4.46-6.36-2.78-14.4,0,0,.15-.61.22-.88,1-3.92,7.06-28.17,7.86-32.1l154.05,8.5s2.6.95,5.51,2.33C486.85,586.36,492.12,589.57,489.59,591.92Z"/><path class="cls-16" d="M370.48,653.07l-.33,3-1.74.68a21.82,21.82,0,0,1-21.8-3.39c5.49,4,14,2.68,19-4.84Z"/><polygon class="cls-17" points="797.76 500.48 776.6 508.64 699.02 538.56 680.33 545.76 478.87 199.49 490.95 142.7 545.46 156.42 797.76 500.48"/><path class="cls-18" d="M538.67,166.57l-36.56-10.24-7.61,40.46S698.09,538.91,699,538.56l-18.69,7.2L478.87,199.49,491,142.7l54.51,13.72,252.3,344.06-21.16,8.17Z"/><polygon class="cls-19" points="743.78 521.3 526.6 193.48 727.78 527.47 743.78 521.3"/><path class="cls-6" d="M837.74,502.92,741.6,539.47,650,574.27a7.92,7.92,0,0,1-8.77-2.09,1,1,0,0,1-.13-.16,7.85,7.85,0,0,1-1.39-8.14L645,550.47a21.56,21.56,0,0,1,11.59-12l15.61-6.67,8.1,13.92,84.6-32.61,32.83-12.67-1-1.24-7.16-9.52,20.7-7.53a21.64,21.64,0,0,1,16.44.7l11.46,5.29a7.82,7.82,0,0,1,4.17,4.5,4.68,4.68,0,0,1,.17.53c.06.21.11.42.16.64A8,8,0,0,1,837.74,502.92Z"/><polygon class="cls-20" points="365.6 599.05 446.47 570.71 687.55 292 694.02 201.63 550.78 255.83 365.6 599.05"/><g class="cls-21"><path class="cls-22" d="M674.44,314a311.92,311.92,0,0,1,26.95-22.08c9.34-6.93,19-13.42,28.92-19.57s20.06-11.94,30.46-17.29,21-10.3,31.85-14.87,21.89-8.57,33.09-12.26c5.64-1.72,11.26-3.55,17-5L847,221.7l2.14-.59,2.15-.52,8.64-2.07a392.22,392.22,0,0,1,70.67-9.39,11.91,11.91,0,0,1,1,23.8c-.32,0-.64,0-.95,0h-.11a371.39,371.39,0,0,0-67.3,3.38l-8.38,1.3-2.1.32-2.09.4-4.17.78c-5.58,1-11.1,2.28-16.65,3.49-11,2.66-22,5.66-32.87,9.19s-21.56,7.52-32.13,11.91-21,9.24-31.21,14.46S713.33,289,703.55,295.09a311.14,311.14,0,0,0-28.45,19.64h0a.5.5,0,0,1-.7-.08A.5.5,0,0,1,674.44,314Z"/></g><path class="cls-23" d="M932.29,237.93l11.86,6.14a5.9,5.9,0,0,0,8.16-7.49l-5.09-12.35a5.86,5.86,0,0,1,.21-5l6.14-11.86a5.9,5.9,0,0,0-7.49-8.16l-12.35,5.1a5.9,5.9,0,0,1-5-.22L916.91,198a5.9,5.9,0,0,0-8.17,7.49l5.1,12.35a5.86,5.86,0,0,1-.21,5l-6.14,11.87a5.9,5.9,0,0,0,7.49,8.16l12.35-5.1A5.9,5.9,0,0,1,932.29,237.93Z"/><g class="cls-21"><path class="cls-22" d="M700.73,261.52a215.22,215.22,0,0,1,13.46-19.74c4.81-6.37,9.91-12.51,15.24-18.47a304.17,304.17,0,0,1,34.76-33.21c6.25-5.09,12.75-9.88,19.4-14.47s13.58-8.82,20.66-12.8A269.31,269.31,0,0,1,848.94,143a8.43,8.43,0,1,1,5.43,16c-.21.07-.43.14-.65.19l-.07,0a253.24,253.24,0,0,0-43.56,15.17c-7,3.2-14,6.75-20.73,10.55s-13.38,8-19.83,12.37A297,297,0,0,0,733,226.76c-5.71,5.42-11.24,11-16.5,16.92a212,212,0,0,0-14.91,18.37h0a.5.5,0,0,1-.84-.54Z"/></g><path class="cls-23" d="M855.71,161.84l9,1.75a4,4,0,0,0,3.92-6.5L862.88,150a4.07,4.07,0,0,1-.82-3.3l1.75-9a4,4,0,0,0-6.5-3.92l-7.13,5.73a4,4,0,0,1-3.31.82l-9-1.75a4,4,0,0,0-3.92,6.5l5.73,7.14a4,4,0,0,1,.82,3.3l-1.74,9a4,4,0,0,0,6.5,3.92l7.13-5.73A4,4,0,0,1,855.71,161.84Z"/><path class="cls-23" d="M698.68,63.75l5.59-2.48a2.7,2.7,0,0,0-.33-5.06l-5.87-1.72a2.77,2.77,0,0,1-1.71-1.5l-2.47-5.6a2.7,2.7,0,0,0-5.06.33l-1.73,5.87a2.69,2.69,0,0,1-1.5,1.71L680,57.77a2.7,2.7,0,0,0,.33,5.06l5.87,1.73a2.69,2.69,0,0,1,1.71,1.5l2.47,5.6a2.7,2.7,0,0,0,5.06-.33l1.73-5.87A2.66,2.66,0,0,1,698.68,63.75Z"/><g class="cls-21"><path class="cls-22" d="M513,289.87a212.92,212.92,0,0,0-20.82-11.24c-7.11-3.41-14.37-6.48-21.72-9.28a296.16,296.16,0,0,0-45.08-13.23c-7.64-1.6-15.35-2.82-23.05-3.81s-15.46-1.53-23.19-1.79a254.4,254.4,0,0,0-46.05,2.72H333a8.43,8.43,0,1,1-2.51-16.68c.23,0,.47-.06.7-.08a268.47,268.47,0,0,1,48.88,1.18c8.07,1,16.07,2.28,24,3.88s15.75,3.62,23.47,5.92a303.7,303.7,0,0,1,44.85,17.32c7.2,3.46,14.28,7.17,21.16,11.2a213.86,213.86,0,0,1,20,13.07.5.5,0,0,1,.1.7.49.49,0,0,1-.66.12Z"/></g><path class="cls-23" d="M332.2,256.51l-7.62,5.06a4,4,0,0,1-6.12-4.5l2.56-8.79a4.07,4.07,0,0,0-.51-3.36l-5.06-7.63a4,4,0,0,1,4.49-6.11l8.79,2.56a4,4,0,0,0,3.36-.52l7.63-5.06a4,4,0,0,1,6.11,4.5l-2.55,8.79a4,4,0,0,0,.51,3.36l5.06,7.63a4,4,0,0,1-4.49,6.11L335.57,256A4,4,0,0,0,332.2,256.51Z"/><path class="cls-23" d="M545.52,674.42l-7.63,5.07a4,4,0,0,1-6.11-4.5l2.56-8.79a4,4,0,0,0-.52-3.36l-5.06-7.63a4,4,0,0,1,4.5-6.11l8.79,2.55a4,4,0,0,0,3.36-.51l7.63-5.06a4,4,0,0,1,6.11,4.5l-2.56,8.78a4.05,4.05,0,0,0,.52,3.37l5.06,7.62a4,4,0,0,1-4.5,6.12l-8.79-2.56A4.07,4.07,0,0,0,545.52,674.42Z"/><line class="cls-24" x1="370.82" y1="636.25" x2="453.83" y2="527.47"/><path class="cls-25" d="M367.64,645.4c5.72-8.6-.32-15.91-6.06-22.5S363,612.67,363,612.67l32.38,4.56-2.43,15.67Z"/><path class="cls-12" d="M489.76,591.75l-.17.17c-4.14,3.84-36.19,28.91-40.07,31.7a24.84,24.84,0,0,1-2.59,1.59,30.55,30.55,0,0,1-7.46,3.73L406.08,642l-37.67,14.75c-5.69,2.22-6.71-2.76-1.35-10.54s11-9.65,25.44-15.8l15-22.21,6.4-2.06,68.46-22C486.74,586.31,491.86,589.42,489.76,591.75Z"/><path class="cls-26" d="M489.76,591.75l-.17.17a8.68,8.68,0,0,1-2.81,1.77l-43.22,16.84h0L392.5,630.42a27.59,27.59,0,0,1-30.92-7.51l-36.94-42.34A8.29,8.29,0,0,1,329,567l110.76-26.42a11.44,11.44,0,0,1,10.3,2.67l11.29,10.22,28.1,25.44A8.84,8.84,0,0,1,489.76,591.75Z"/><g class="cls-27"><path class="cls-28" d="M489.83,591.6l-.17.17c-4,3.74-35.22,28.14-39,30.86a23.67,23.67,0,0,1-2.52,1.55,30.12,30.12,0,0,1-7.26,3.63l-32.51,12.73,36.48-30.66-32.63-4-46.61-6.86,80.87-28.34,14.89-17.21,28.17,25.63A8.61,8.61,0,0,1,489.83,591.6Z"/></g><polygon class="cls-29" points="478.87 199.49 494.5 196.79 699.02 538.56 680.33 545.76 478.87 199.49"/><polygon class="cls-30" points="490.95 142.7 501.96 157.11 494.5 196.79 478.87 199.49 490.95 142.7"/><polygon class="cls-31" points="538.67 166.56 545.46 156.42 490.95 142.7 501.96 157.11 538.67 166.56"/><polygon class="cls-32" points="538.67 166.56 545.46 156.42 797.76 500.48 776.6 508.64 538.67 166.56"/><polygon class="cls-33" points="694.02 201.63 550.78 255.83 578.85 282.14 659.8 247.65 694.02 201.63"/><polygon class="cls-34" points="659.8 247.65 663.87 295.99 687.55 292 694.02 201.63 659.8 247.65"/><polygon class="cls-31" points="365.6 599.05 387.68 591.31 578.85 282.14 550.78 255.83 365.6 599.05"/><polygon class="cls-35" points="663.87 295.99 687.55 292 446.47 570.71 435.19 574.66 663.87 295.99"/><polygon class="cls-36" points="387.68 591.31 578.85 282.14 659.8 247.65 663.87 295.99 435.19 574.66 387.68 591.31"/><polygon class="cls-37" points="405.14 585.19 620.92 299.95 420.86 579.68 405.14 585.19"/><path class="cls-38" d="M850.48,533.35a.66.66,0,0,1,0,.14,1.62,1.62,0,0,1,0,.22c0,.06,0,.12,0,.17a7,7,0,0,1-4.55,6.12l-82.56,31.39h0l-20.66-32-1.07.11-48.43,5-12.84,1.32,84.6-32.61,32.83-12.67L813,497.77c9.39-1.66,21.17-3.72,29.44-5.09a4.68,4.68,0,0,1,.17.53c.06.21.11.42.16.64,1.81,7.18,7,31.76,7.66,38.53,0,.21.05.43.06.64S850.48,533.26,850.48,533.35Z"/><polygon class="cls-39" points="663.87 319.37 594.96 399.04 608.5 422.3 663.87 319.37"/><path class="cls-40" d="M365.6,599.05C203.88,649.54,41.94,739.2,0,845.1v-120S152.43,408.75,550.78,255.83Z"/><g class="cls-21"><path class="cls-22" d="M590.11,420.23c-2.62,4.38-5,9-7.26,13.71s-4.36,9.43-6.34,14.23c-4,9.6-7.49,19.4-10.59,29.32a419.59,419.59,0,0,0-14,60.72,469,469,0,0,0-5.28,62,522.53,522.53,0,0,0,2.57,62.18h0a3.8,3.8,0,1,1-7.57.76v-.07a526.84,526.84,0,0,1-1.39-63.07,474.28,474.28,0,0,1,6.54-62.7,423.92,423.92,0,0,1,15.3-61.1c3.31-10,7.06-19.79,11.27-29.42,2.09-4.81,4.31-9.58,6.69-14.27s4.84-9.31,7.68-13.84a1.39,1.39,0,0,1,2.37,1.46Z"/></g><g class="cls-21"><path class="cls-22" d="M695.33,63.25c-1.26,1.06-2.65,2.29-4,3.5s-2.64,2.45-3.93,3.71q-3.9,3.78-7.64,7.74-7.47,7.9-14.34,16.39t-13,17.5c-4.11,6-8,12.16-11.53,18.51a217.66,217.66,0,0,0-9.81,19.48L630,152.57l-1,2.52c-.68,1.69-1.41,3.36-2,5.06-1.25,3.42-2.54,6.82-3.6,10.3A178.89,178.89,0,0,0,615,213.23v0a2,2,0,0,1-4-.23,183.77,183.77,0,0,1,7.08-44.16c1-3.62,2.18-7.16,3.35-10.71.6-1.77,1.29-3.51,1.93-5.27l1-2.63,1.06-2.6c2.77-6.95,6-13.72,9.43-20.36s7.21-13.12,11.24-19.42,8.3-12.46,12.81-18.43,9.25-11.77,14.23-17.39q3.72-4.22,7.65-8.27c1.3-1.36,2.63-2.69,4-4s2.68-2.6,4.2-4a4.9,4.9,0,1,1,6.56,7.29l-.1.09Z"/></g><path class="cls-41" d="M718.05,341.17,797.76,456s14.16-8.9,39.08,8.61c11.54,8.12,16.85,12.8,21.53,33.71"/><line class="cls-41" x1="402.12" y1="487.37" x2="495.98" y2="311.09"/><line class="cls-42" x1="407.47" y1="422.3" x2="346.61" y2="541.13"/><path class="cls-42" d="M357.25,475.79"/><path class="cls-42" d="M419.28,347.18"/><line class="cls-42" x1="842.9" y1="586.33" x2="923.76" y2="694.93"/></g></g></svg>