<?xml version="1.0" encoding="utf-8"?>
<!-- Generator: Adobe Illustrator 23.0.3, SVG Export Plug-In . SVG Version: 6.00 Build 0)  -->
<svg version="1.1" id="Layer_1" xmlns="http://www.w3.org/2000/svg" xmlns:xlink="http://www.w3.org/1999/xlink" x="0px" y="0px"
	 viewBox="0 0 1126.8 845.1" style="enable-background:new 0 0 1126.8 845.1;" xml:space="preserve">
<style type="text/css">
	.st0{clip-path:url(#SVGID_2_);}
	.st1{fill:#1B2852;}
	.st2{fill:#FD3145;stroke:#4E74ED;stroke-width:10;stroke-miterlimit:10;}
	.st3{fill:#273A78;stroke:#4E74ED;stroke-width:10;stroke-miterlimit:10;}
	.st4{fill:url(#SVGID_3_);}
	.st5{fill:#131834;}
	.st6{fill:url(#SVGID_4_);}
	.st7{fill:url(#SVGID_5_);}
	.st8{fill:url(#SVGID_6_);}
	.st9{fill:url(#SVGID_7_);}
	.st10{fill:url(#SVGID_8_);}
	.st11{fill:url(#SVGID_9_);}
	.st12{fill:#131C37;}
	.st13{fill:#131B36;}
	.st14{fill:url(#SVGID_10_);}
	.st15{fill:url(#SVGID_11_);}
	.st16{fill:#FFE808;}
	.st17{fill:url(#SVGID_12_);}
	.st18{fill:url(#SVGID_13_);}
	.st19{fill:url(#SVGID_14_);}
	.st20{fill:url(#SVGID_15_);}
	.st21{fill:url(#SVGID_16_);}
	.st22{fill:url(#SVGID_17_);}
	.st23{fill:url(#SVGID_18_);}
	.st24{fill:url(#SVGID_19_);}
	.st25{fill:url(#SVGID_20_);}
	.st26{fill:url(#SVGID_21_);}
	.st27{fill:url(#SVGID_22_);}
	.st28{fill:url(#SVGID_23_);}
	.st29{fill:none;}
	.st30{fill:url(#SVGID_24_);}
	.st31{fill:url(#SVGID_25_);}
	.st32{opacity:0.5;fill:#14882B;enable-background:new    ;}
	.st33{fill:#52E320;enable-background:new    ;}
	.st34{fill:#FFFFFF;}
	.st35{fill:#A3F02D;enable-background:new    ;}
	.st36{opacity:0.3;fill:#55A4FF;enable-background:new    ;}
	.st37{fill:#FA902C;}
	.st38{fill:#FAC02C;}
	.st39{fill:#FAE22C;}
	.st40{fill:#FAF02C;}
</style>
<g>
	<defs>
		<rect id="SVGID_1_" y="0" width="1126.8" height="845.1"/>
	</defs>
	<clipPath id="SVGID_2_">
		<use xlink:href="#SVGID_1_"  style="overflow:visible;"/>
	</clipPath>
	<g class="st0">
		<rect y="0" class="st1" width="1126.8" height="845.1"/>
		<path class="st2" d="M538.36,557.5l-160.64-52.68c-14.21-4.66-22.28-23.48-18.22-42.1l41.95-192c4.06-18.62,19.08-31.6,33.73-29
			l165.64,29.8c17.6,3.17,28.4,22.67,23.85,43.5L577.73,530C573.18,550.81,555.43,563.1,538.36,557.5z"/>
		<path class="st3" d="M868.1,665.63l-214.91-70.47c-18.75-6.15-29.93-28.37-25.27-49.72L676,325.2
			c4.66-21.35,23.87-35.88,43.2-32.4l221.6,39.86c23.89,4.3,39.3,27.57,34,51.89L920,635.46
			C914.7,659.78,891.27,673.23,868.1,665.63z"/>
		<path class="st3" d="M290.15,476.1l-124.61-40.86c-11.15-3.66-17.15-20-13.55-36.47l37.18-170.26
			c3.61-16.51,15.73-28.23,27.23-26.17l128.49,23.12c13.5,2.43,21.37,19.2,17.39,37.43l-41.06,188
			C317.24,469.15,303.25,480.4,290.15,476.1z"/>
		
			<radialGradient id="SVGID_3_" cx="912.0115" cy="2110.8013" r="114.31" fx="903.6121" fy="2081.9246" gradientTransform="matrix(1.01 0.29 0.36 -0.85 -1217.9601 1915.9399)" gradientUnits="userSpaceOnUse">
			<stop  offset="0" style="stop-color:#0E5259"/>
			<stop  offset="1" style="stop-color:#131633"/>
		</radialGradient>
		<path class="st4" d="M559.66,429.92c-1.92,4.86-4.12,9.59-6.59,14.19c-29.05,54-89,77.25-137.81,54
			c-49.44-23.53-69.81-87-48.28-143.58c21.69-57,79.78-91,132.78-74.55c35.25,10.92,59.68,41.29,66.93,78.76
			C571.18,382.65,568.74,407.35,559.66,429.92z"/>
		<path class="st5" d="M559.66,429.92c-1.92,4.86-4.12,9.59-6.59,14.19c-20.38-3.85-58-30.57-69.7-61.58l83.32-23.76
			C571.17,382.67,568.73,407.36,559.66,429.92z"/>
		
			<linearGradient id="SVGID_4_" gradientUnits="userSpaceOnUse" x1="545.4421" y1="2182.4319" x2="585.3922" y2="2129.812" gradientTransform="matrix(0.87 0.29 0.34 -0.94 -715.02 2228.45)">
			<stop  offset="0" style="stop-color:#0E5259"/>
			<stop  offset="1" style="stop-color:#131633"/>
		</linearGradient>
		<path class="st6" d="M548,392.18l-28.71,8.42c-10.33,4-21.41,1-29.1-7.24c-0.08-0.06-0.15-0.14-0.21-0.22
			c-3.63-4.05-6.31-8.87-7.83-14.1c-5-16.56,0.94-34,12.71-42.45l0,0l25.86-18.35l7.38,20c4.73,4.2,8.23,9.62,10.12,15.66
			c1.71,5.34,2.32,10.97,1.78,16.55l5.21,14.11L548,392.18z"/>
		<linearGradient id="SVGID_5_" gradientUnits="userSpaceOnUse" x1="427.2438" y1="350.9997" x2="448.604" y2="322.8579">
			<stop  offset="0" style="stop-color:#0E5259"/>
			<stop  offset="1" style="stop-color:#125A67"/>
		</linearGradient>
		<path class="st7" d="M444.41,350.38c-7.88,5.34-17.14,3.62-20.71-3.77s-0.19-17.59,7.54-23s17.13-3.91,20.83,3.47
			S452.35,345,444.41,350.38z"/>
		<linearGradient id="SVGID_6_" gradientUnits="userSpaceOnUse" x1="429.673" y1="384.1452" x2="440.5225" y2="369.8511">
			<stop  offset="0" style="stop-color:#0E5259"/>
			<stop  offset="1" style="stop-color:#125A67"/>
		</linearGradient>
		<path class="st8" d="M438.44,384c-4,2.67-8.76,1.69-10.6-2.17s-0.11-9.11,3.87-11.79s8.77-1.76,10.64,2.09
			S442.48,381.28,438.44,384z"/>
		
			<linearGradient id="SVGID_7_" gradientUnits="userSpaceOnUse" x1="577.7994" y1="2142.5293" x2="587.4693" y2="2129.7893" gradientTransform="matrix(0.87 0.29 0.34 -0.94 -715.02 2228.45)">
			<stop  offset="0" style="stop-color:#0E5259"/>
			<stop  offset="1" style="stop-color:#125A67"/>
		</linearGradient>
		<path class="st9" d="M545.18,384.56c-2.39,0.78-5.9,1.9-10,3.13l3.8,3.55c0,0-14.72,3.89-24.75,6.72s-18.75,1.08-24.05-4.6
			c7.69,8.25,18.77,11.23,29.1,7.24l28.72-8.42L545.18,384.56z"/>
		
			<linearGradient id="SVGID_8_" gradientUnits="userSpaceOnUse" x1="541.8296" y1="2180.459" x2="629.7295" y2="2174.6189" gradientTransform="matrix(0.87 0.29 0.34 -0.94 -715.02 2228.45)">
			<stop  offset="0" style="stop-color:#126C75"/>
			<stop  offset="1" style="stop-color:#131633"/>
		</linearGradient>
		<path class="st10" d="M571.32,337.73c6.68,19.78-1,43-18.23,52.26c-18.46,9.86-40.22-0.21-47.27-22.83
			c-6.94-22.28,3.76-46.1,22.59-53.07C546,307.57,564.74,318.21,571.32,337.73z"/>
		
			<linearGradient id="SVGID_9_" gradientUnits="userSpaceOnUse" x1="571.309" y1="2204.3123" x2="607.729" y2="2155.7522" gradientTransform="matrix(0.87 0.29 0.34 -0.94 -715.02 2228.45)">
			<stop  offset="0" style="stop-color:#131633"/>
			<stop  offset="0.49" style="stop-color:#0E5259"/>
			<stop  offset="1" style="stop-color:#131633"/>
		</linearGradient>
		<path class="st11" d="M550.83,379.63l-0.46,0.27c-12.83,7-28.38-0.76-33.74-17.74c-3.53-11.18-1.5-22.69,4.14-30.54
			c2.74-3.93,6.6-6.94,11.09-8.62c12.34-4.42,25.65,3.94,30.53,18.55S562.42,372.9,550.83,379.63z"/>
		<path class="st12" d="M550.83,379.63l-0.46,0.27c-12.83,7-28.38-0.76-33.74-17.74c-3.53-11.18-1.5-22.69,4.14-30.54
			c1.26-0.78,2.6-1.43,4-1.93c12.26-4.38,25.46,4,30.28,18.62C558.69,359.23,556.87,371.4,550.83,379.63z"/>
		<path class="st13" d="M532.39,363.55c-1.71-0.61-3.14-1.83-4-3.43c-2.17-3.95-0.71-9.3,3.25-12c18.6-12.46,36.5-9.16,52.62-6.19
			c17.23,3.18,31.09,5.73,45.81-7.93c3.85-3.57,9.65-3.61,13-0.07s2.88,9.35-1,12.93c-22.16,20.35-43.71,16.14-62.29,12.52
			c-14.79-2.88-27.36-5.33-40.14,3.11C537.53,363.98,534.84,364.37,532.39,363.55z"/>
		<g>
			<linearGradient id="SVGID_10_" gradientUnits="userSpaceOnUse" x1="532.3123" y1="347.7918" x2="639.7095" y2="347.7918">
				<stop  offset="0" style="stop-color:#0E5259"/>
				<stop  offset="1" style="stop-color:#125A67"/>
			</linearGradient>
			<path class="st14" d="M534.32,358.61c-0.68-0.24-1.25-0.72-1.6-1.36c-0.43-0.8-0.52-1.73-0.27-2.6c0.24-0.9,0.8-1.68,1.57-2.2
				c16.86-11.25,33-8.22,48.89-5.24c17.22,3.22,33.8,6.33,50.74-9.33c1-0.96,2.44-1.31,3.77-0.91c0.54,0.17,1.03,0.47,1.41,0.89
				c1.31,1.53,1.14,3.83-0.39,5.15c-0.01,0-0.01,0.01-0.02,0.01c-19.9,18.34-39.13,14.65-57.32,11.17c-15.23-2.92-29.36-5.63-43.9,4
				C536.36,358.78,535.29,358.93,534.32,358.61z"/>
		</g>
		
			<linearGradient id="SVGID_11_" gradientUnits="userSpaceOnUse" x1="888.363" y1="2113.5022" x2="771.653" y2="2063.542" gradientTransform="matrix(0.977 0.2134 0.2134 -0.977 -628.9323 2205.0576)">
			<stop  offset="0" style="stop-color:#FB571D"/>
			<stop  offset="1" style="stop-color:#FACC2C"/>
		</linearGradient>
		<polygon class="st15" points="600.09,349.22 575.79,400.14 621.81,375.27 641.24,411.78 644.73,375.59 703.91,368.13 
			656.88,338.85 683.72,287.91 632.63,316.77 613.39,271.79 601.82,321.73 566.67,312.44 		"/>
		<polygon class="st16" points="611.77,346.83 597.07,330.82 608.81,334 615.84,303.58 627.33,330.72 659.38,312.78 643.57,342.9 
			673.35,361.68 635.4,366.66 634.41,376.9 626.27,361.76 596.98,377.74 		"/>
		
			<linearGradient id="SVGID_12_" gradientUnits="userSpaceOnUse" x1="839.5253" y1="2114.4685" x2="751.4754" y2="2077.3386" gradientTransform="matrix(0.87 0.29 0.34 -0.94 -715.02 2228.4502)">
			<stop  offset="0.01" style="stop-color:#B1133A"/>
			<stop  offset="1" style="stop-color:#F1583C"/>
		</linearGradient>
		<polygon class="st17" points="707.03,572.24 689,404 784.59,455.02 759.41,515.88 		"/>
		
			<linearGradient id="SVGID_13_" gradientUnits="userSpaceOnUse" x1="928.4794" y1="2040.5505" x2="911.2495" y2="2102.1907" gradientTransform="matrix(0.87 0.29 0.34 -0.94 -715.02 2228.4502)">
			<stop  offset="0.01" style="stop-color:#B1133A"/>
			<stop  offset="1" style="stop-color:#F1583C"/>
		</linearGradient>
		<polygon class="st18" points="868.49,561.3 707.03,572.24 743.32,510.87 784.13,473.19 		"/>
		
			<linearGradient id="SVGID_14_" gradientUnits="userSpaceOnUse" x1="755.8246" y1="2206.1899" x2="817.9047" y2="2206.1899" gradientTransform="matrix(0.87 0.29 0.34 -0.94 -715.02 2228.4502)">
			<stop  offset="0.01" style="stop-color:#0C8C10"/>
			<stop  offset="1" style="stop-color:#31BD24"/>
		</linearGradient>
		<polygon class="st19" points="689,404 729.39,358.33 755.67,363.43 749.7,404.26 		"/>
		
			<linearGradient id="SVGID_15_" gradientUnits="userSpaceOnUse" x1="988.7776" y1="2148.2927" x2="1016.0975" y2="2112.1426" gradientTransform="matrix(0.87 0.29 0.34 -0.94 -715.02 2228.45)">
			<stop  offset="0" style="stop-color:#0C8F11"/>
			<stop  offset="1" style="stop-color:#43BD24"/>
		</linearGradient>
		<path class="st20" d="M907.23,519.56l-38.74,41.74l-12.73-81.52c0,0,38.17,6.26,35.62,6.77S907.23,519.56,907.23,519.56z"/>
		
			<linearGradient id="SVGID_16_" gradientUnits="userSpaceOnUse" x1="957.873" y1="2036.4884" x2="952.2531" y2="1970.4183" gradientTransform="matrix(0.977 0.2134 0.2134 -0.977 -628.9323 2205.0576)">
			<stop  offset="0" style="stop-color:#0EA313"/>
			<stop  offset="1" style="stop-color:#43BD24"/>
		</linearGradient>
		<polygon class="st21" points="689,404 743.32,510.87 797.85,422.67 727.32,408.71 		"/>
		
			<linearGradient id="SVGID_17_" gradientUnits="userSpaceOnUse" x1="1044.8269" y1="1923.7185" x2="1049.257" y2="1990.8085" gradientTransform="matrix(0.977 0.2134 0.2134 -0.977 -628.9323 2205.0576)">
			<stop  offset="0" style="stop-color:#10BD16"/>
			<stop  offset="1" style="stop-color:#43BD24"/>
		</linearGradient>
		<polygon class="st22" points="743.32,510.87 868.49,561.3 847.48,444.25 		"/>
		
			<linearGradient id="SVGID_18_" gradientUnits="userSpaceOnUse" x1="1038.2542" y1="1951.611" x2="1035.2141" y2="2105.551" gradientTransform="matrix(0.977 0.2134 0.2134 -0.977 -628.9323 2205.0576)">
			<stop  offset="0" style="stop-color:#31DD13"/>
			<stop  offset="0.26" style="stop-color:#4CE21E"/>
			<stop  offset="1" style="stop-color:#96F13C"/>
		</linearGradient>
		<polygon class="st23" points="810.11,356.92 744.82,366.88 753.4,431.34 819.29,493.46 892.98,500.37 894.22,428.6 		"/>
		
			<linearGradient id="SVGID_19_" gradientUnits="userSpaceOnUse" x1="993.602" y1="2053.4377" x2="976.832" y2="2113.6277" gradientTransform="matrix(0.87 0.29 0.34 -0.94 -715.02 2228.4502)">
			<stop  offset="0" style="stop-color:#2ECF12"/>
			<stop  offset="1" style="stop-color:#A6F12E"/>
		</linearGradient>
		<polygon class="st24" points="819.29,493.46 868.49,561.3 892.98,500.37 		"/>
		
			<linearGradient id="SVGID_20_" gradientUnits="userSpaceOnUse" x1="1015.4915" y1="2198.8704" x2="997.0415" y2="2153.9404" gradientTransform="matrix(0.87 0.29 0.34 -0.94 -715.02 2228.4502)">
			<stop  offset="0" style="stop-color:#10BD16"/>
			<stop  offset="1" style="stop-color:#43BD24"/>
		</linearGradient>
		<polygon class="st25" points="892.98,500.37 907.23,519.55 894.22,428.6 		"/>
		
			<linearGradient id="SVGID_21_" gradientUnits="userSpaceOnUse" x1="995.9351" y1="1906.3463" x2="1010.2151" y2="2000.3762" gradientTransform="matrix(0.977 0.2134 0.2134 -0.977 -628.9323 2205.0576)">
			<stop  offset="0" style="stop-color:#2ECF12"/>
			<stop  offset="1" style="stop-color:#A6F12E"/>
		</linearGradient>
		<polygon class="st26" points="819.29,493.46 743.32,510.87 753.38,431.34 		"/>
		
			<linearGradient id="SVGID_22_" gradientUnits="userSpaceOnUse" x1="755.8246" y1="2200.0442" x2="831.6846" y2="2200.0442" gradientTransform="matrix(0.87 0.29 0.34 -0.94 -715.02 2228.4502)">
			<stop  offset="0" style="stop-color:#2ECF12"/>
			<stop  offset="1" style="stop-color:#82BD24"/>
		</linearGradient>
		<polygon class="st27" points="753.4,431.34 689,404 744.8,366.88 		"/>
		
			<linearGradient id="SVGID_23_" gradientUnits="userSpaceOnUse" x1="832.7899" y1="2260.6345" x2="823.1799" y2="2227.3545" gradientTransform="matrix(0.87 0.29 0.34 -0.94 -715.02 2228.4502)">
			<stop  offset="0.01" style="stop-color:#0A780E"/>
			<stop  offset="1" style="stop-color:#2CAB21"/>
		</linearGradient>
		<polygon class="st28" points="809.73,356.92 729.03,358.33 744.82,366.88 		"/>
		<path class="st29" d="M814.73,431"/>
		
			<linearGradient id="SVGID_24_" gradientUnits="userSpaceOnUse" x1="1036.4716" y1="1876.603" x2="1031.2216" y2="1946.603" gradientTransform="matrix(0.977 0.2134 0.2134 -0.977 -628.9323 2205.0576)">
			<stop  offset="0" style="stop-color:#26BD1C"/>
			<stop  offset="0.99" style="stop-color:#1AA817"/>
		</linearGradient>
		<polygon class="st30" points="743.32,510.87 868.49,561.3 707.03,572.24 		"/>
		
			<linearGradient id="SVGID_25_" gradientUnits="userSpaceOnUse" x1="903.2875" y1="1960.5311" x2="979.1597" y2="1960.5311" gradientTransform="matrix(0.977 0.2134 0.2134 -0.977 -628.9323 2205.0576)">
			<stop  offset="0" style="stop-color:#0DA11C"/>
			<stop  offset="1" style="stop-color:#177D32"/>
		</linearGradient>
		<polygon class="st31" points="689,404 743.32,510.87 707.03,572.24 		"/>
		<polygon class="st32" points="707.04,572.26 743.32,510.89 753.41,431.36 744.83,366.9 810.12,356.94 729.4,358.35 689.01,404.02 
					"/>
		<polygon class="st33" points="689,404 697.08,419.89 707.03,572.24 		"/>
		<polygon class="st34" points="744.82,366.88 753.4,431.34 819.29,493.46 892.98,500.37 823.45,484.49 758.98,427.03 		"/>
		<polygon class="st35" points="744.82,366.88 753.4,431.34 819.29,493.46 892.98,500.37 823.45,484.49 758.98,427.03 		"/>
		<path class="st36" d="M1012.4,693.4c-2.42-1.31-5.45-0.42-6.77,2c-24.68,45.74-72.45,74.27-124.42,74.33l0,0
			c-15.25-0.01-30.4-2.45-44.88-7.22l-6-2c-2.6-0.93-5.46,0.42-6.39,3.02c-0.93,2.6,0.42,5.46,3.02,6.39
			c0.09,0.03,0.18,0.06,0.27,0.09l6,2c15.49,5.1,31.69,7.71,48,7.72l0,0c55.66-0.05,106.81-30.61,133.23-79.6
			C1015.73,697.7,1014.81,694.7,1012.4,693.4z M1061.72,288.62c-23.2-34.98-59.74-58.91-101.08-66.19l-122.59-22.05
			c-2.73-0.43-5.29,1.43-5.72,4.15c-0.42,2.65,1.32,5.16,3.95,5.69l122.59,22.05c78.73,14.27,130.99,89.66,116.72,168.39
			c-0.34,1.88-0.72,3.74-1.13,5.61l-9.69,44.37c-0.61,2.69,1.07,5.37,3.76,5.99s5.37-1.07,5.99-3.76c0.01-0.03,0.01-0.06,0.02-0.1
			l9.68-44.36C1093.45,367.08,1085.32,323.78,1061.72,288.62L1061.72,288.62z M256.74,106l106.2,19.11
			c14.73,2.64,28.84,8,41.6,15.81l1.65,1l1.89-0.36c14.92-2.81,30.23-2.88,45.18-0.21l60,10.8c0.29,0.05,0.59,0.08,0.89,0.08
			c2.76,0.03,5.02-2.19,5.05-4.95c0.02-2.46-1.74-4.57-4.17-4.98l-60-10.79c-15.51-2.78-31.39-2.83-46.92-0.12
			c-13.39-7.93-28.09-13.39-43.4-16.13l-106.2-19.14c-2.73-0.43-5.29,1.43-5.72,4.15c-0.42,2.65,1.32,5.16,3.95,5.69L256.74,106z
			 M96.74,512.15C58.53,481.49,41.1,428.46,52.34,377l25.14-115.12c0.62-2.69-1.07-5.37-3.76-5.99c-2.69-0.62-5.37,1.07-5.99,3.76
			c-0.01,0.03-0.01,0.07-0.02,0.1L42.57,374.87c-6.04,27.07-4.61,55.27,4.12,81.59c8.22,24.91,23.41,46.94,43.79,63.46
			c2.16,1.73,5.3,1.38,7.03-0.78c1.73-2.16,1.38-5.3-0.78-7.03L96.74,512.15z M621.42,692.15c-19.44-6.37-37.19-17.05-51.91-31.25
			l-1.76-1.69l-2.42,0.35c-19.71,2.89-39.83,1.16-58.75-5.07l-82.73-27.13c-2.63-0.83-5.44,0.63-6.27,3.27
			c-0.81,2.59,0.58,5.35,3.15,6.23l82.74,27.13c19.61,6.45,40.41,8.43,60.89,5.8c15.45,14.41,33.86,25.29,53.94,31.86
			c2.63,0.83,5.44-0.63,6.27-3.27C625.38,695.79,623.99,693.03,621.42,692.15L621.42,692.15z M980.8,680.53
			c-2.39-1.38-5.45-0.57-6.83,1.82c-1.38,2.39-0.57,5.45,1.82,6.83c2.39,1.38,5.44,0.57,6.83-1.82l0,0
			C984.01,684.98,983.2,681.92,980.8,680.53C980.81,680.53,980.8,680.53,980.8,680.53z M985,655.92c-0.73,2.66,0.83,5.41,3.49,6.15
			c0,0,0,0,0.01,0c0.43,0.12,0.88,0.18,1.33,0.18c2.25-0.01,4.22-1.51,4.81-3.68l0,0c0.64-2.69-1.01-5.38-3.69-6.03
			c-2.57-0.62-5.17,0.87-5.95,3.39V655.92z M984.4,265.28c-2.5-1.17-5.48-0.08-6.64,2.43c-1.17,2.5-0.08,5.48,2.42,6.64
			c0.66,0.31,1.37,0.47,2.1,0.47c2.76,0.01,5.01-2.21,5.03-4.97C987.32,267.89,986.18,266.1,984.4,265.28z M997.9,597.6
			c-0.59,2.7,1.12,5.36,3.82,5.95c0.35,0.08,0.71,0.11,1.07,0.11c2.76,0,5-2.24,5-5s-2.24-5-5-5
			C1000.43,593.66,998.4,595.3,997.9,597.6z M953.74,265.82c2.76,0,5-2.24,5-5c0-2.76-2.24-5-5-5s-5,2.24-5,5
			c0,2.42,1.73,4.49,4.11,4.92C953.14,265.79,953.44,265.82,953.74,265.82z M991.48,626.9c-0.61,2.69,1.07,5.37,3.76,5.99
			c0.02,0,0.04,0.01,0.06,0.01c0.35,0.08,0.71,0.11,1.07,0.11c2.76,0,5-2.24,4.99-5.01s-2.24-5-5.01-4.99
			c-2.35,0-4.38,1.64-4.88,3.93V626.9z M1011.32,289.1c1.79-2.1,1.53-5.26-0.57-7.05c-2.1-1.79-5.26-1.53-7.05,0.57
			c-1.79,2.1-1.53,5.26,0.57,7.05c0.02,0.01,0.03,0.03,0.05,0.04l0,0c2.11,1.78,5.27,1.51,7.05-0.6c0,0,0,0,0-0.01H1011.32z
			 M956.47,704.93c-1.97,1.94-2,5.1-0.06,7.07c1.94,1.97,5.1,2,7.07,0.06c1.97-1.94,2-5.1,0.06-7.07c0,0,0,0,0,0
			C961.6,703.02,958.44,702.99,956.47,704.93z M1004.28,568.29c-0.61,2.69,1.07,5.37,3.76,5.99c0.02,0,0.04,0.01,0.06,0.01
			c0.35,0.08,0.71,0.12,1.07,0.12c2.76,0,5-2.24,4.99-5.01s-2.24-5-5.01-4.99c-2.35,0-4.38,1.64-4.88,3.93V568.29z M1016.63,535.16
			c-2.69-0.61-5.37,1.07-5.99,3.76c-0.61,2.69,1.07,5.37,3.76,5.99c0.03,0.01,0.06,0.01,0.1,0.02c0.35,0.08,0.71,0.12,1.07,0.12
			c2.76,0.01,5.01-2.22,5.02-4.98C1020.6,537.7,1018.94,535.65,1016.63,535.16z M1042.23,417.92c-2.69-0.62-5.37,1.07-5.99,3.76
			c-0.62,2.69,1.07,5.37,3.76,5.99c0.03,0.01,0.07,0.01,0.1,0.02c0.35,0.08,0.71,0.12,1.07,0.12c2.76,0.01,5.01-2.22,5.02-4.98
			C1046.2,420.46,1044.54,418.41,1042.23,417.92L1042.23,417.92z M1029.43,476.54c-2.69-0.62-5.37,1.07-5.99,3.76
			c-0.62,2.69,1.07,5.37,3.76,5.99c0.03,0.01,0.07,0.01,0.1,0.02c0.35,0.08,0.71,0.12,1.07,0.12c2.76,0.01,5.01-2.22,5.02-4.98
			C1033.4,479.08,1031.74,477.03,1029.43,476.54L1029.43,476.54z M1035.83,447.23c-2.69-0.62-5.37,1.07-5.99,3.76
			c-0.62,2.69,1.07,5.37,3.76,5.99c0.03,0.01,0.07,0.01,0.1,0.02c0.35,0.08,0.71,0.12,1.07,0.12c2.76,0.01,5.01-2.22,5.02-4.98
			C1039.8,449.77,1038.14,447.72,1035.83,447.23L1035.83,447.23z M1047.88,358.58c-2.75,0.26-4.76,2.71-4.5,5.45c0,0,0,0,0,0.01l0,0
			c0.25,2.57,2.42,4.53,5,4.52h0.48c2.76-0.28,4.78-2.74,4.5-5.5s-2.74-4.78-5.5-4.5L1047.88,358.58z M1041.65,339.41
			c0.6,0,1.19-0.11,1.75-0.31c2.59-0.97,3.9-3.85,2.93-6.44c-0.97-2.59-3.85-3.9-6.44-2.93c-2.58,0.97-3.89,3.84-2.93,6.42l0,0
			C1037.69,338.12,1039.56,339.41,1041.65,339.41L1041.65,339.41z M1048.18,388.53c-2.73-0.44-5.29,1.41-5.74,4.13
			c0,0,0,0.01,0,0.01l0,0c-0.44,2.73,1.41,5.29,4.14,5.73c0.26,0.04,0.53,0.06,0.8,0.06c2.76-0.02,4.98-2.28,4.96-5.04
			C1052.32,390.99,1050.56,388.93,1048.18,388.53L1048.18,388.53z M1027.69,313c1.03,0,2.03-0.31,2.87-0.91
			c2.26-1.59,2.8-4.71,1.21-6.97c-1.59-2.26-4.71-2.8-6.97-1.21c-2.26,1.59-2.8,4.71-1.21,6.97
			C1024.53,312.21,1026.06,313,1027.69,313z M1023,505.85c-2.69-0.62-5.37,1.07-5.99,3.76c-0.62,2.69,1.07,5.37,3.76,5.99
			c0.03,0.01,0.07,0.01,0.1,0.02c0.35,0.08,0.71,0.12,1.07,0.12c2.76,0.01,5.01-2.22,5.02-4.98
			C1026.97,508.39,1025.31,506.34,1023,505.85L1023,505.85z M478.45,175.31c-0.49,2.71,1.3,5.3,4,5.81l83.3,15
			c0.29,0.05,0.59,0.08,0.89,0.08c2.76,0.03,5.02-2.19,5.05-4.95c0.02-2.46-1.74-4.57-4.17-4.98l-83.3-15
			C481.51,170.8,478.94,172.61,478.45,175.31z M228.45,135.42l92.81,16.7c2.72,0.49,5.32-1.32,5.81-4.04s-1.32-5.32-4.04-5.81l0,0
			l-92.8-16.69c-5.45-0.98-10.98-1.48-16.52-1.48c-48,0-89.46,36.09-100.74,87.77L75.79,382.13c-12.29,56.26,15.84,111,65.44,127.23
			l55.24,18.11c2.63,0.83,5.44-0.63,6.27-3.27c0.81-2.59-0.58-5.35-3.15-6.23l-55.24-18.12c-44.71-14.66-70-64.35-58.79-115.59
			L122.74,214c10.27-47,47.68-79.9,91-79.9C218.67,134.11,223.6,134.55,228.45,135.42L228.45,135.42z M519.77,628.26
			c-0.62,2.69,1.06,5.38,3.75,6c0.01,0,0.01,0,0.02,0c0.36,0.09,0.74,0.13,1.11,0.13c2.76,0,5-2.24,5-5s-2.24-5-5-5
			c-2.33,0-4.35,1.62-4.87,3.89V628.26z M491.27,618.88c-0.86,2.62,0.56,5.45,3.19,6.31s5.45-0.56,6.31-3.19
			c0.86-2.62-0.56-5.45-3.19-6.31c0,0-0.01,0-0.01,0C494.95,614.84,492.13,616.26,491.27,618.88L491.27,618.88z M549.47,631.94
			c0.2,2.61,2.38,4.62,5,4.61h0.4c2.75-0.21,4.81-2.62,4.6-5.37c-0.21-2.75-2.62-4.81-5.37-4.6c-2.75,0.21-4.81,2.62-4.6,5.37
			c0,0,0,0.01,0,0.01L549.47,631.94z M689.37,678.58c-2.62-0.86-5.45,0.57-6.31,3.19s0.57,5.45,3.19,6.31s5.45-0.57,6.31-3.19
			c0,0,0,0,0,0C693.42,682.27,691.99,679.44,689.37,678.58z M578.44,627.71c-2.11,1.78-2.39,4.93-0.61,7.04
			c1.78,2.11,4.93,2.39,7.04,0.61c2.11-1.78,2.39-4.93,0.61-7.04c-0.01-0.02-0.03-0.03-0.04-0.05
			C583.65,626.2,580.53,625.95,578.44,627.71z M660.86,669.23c-2.6-0.93-5.46,0.42-6.39,3.02c-0.93,2.6,0.42,5.46,3.02,6.39
			c0.09,0.03,0.18,0.06,0.27,0.09c0.5,0.17,1.02,0.25,1.55,0.25c2.76,0,5-2.24,5-5C664.3,671.82,662.91,669.9,660.86,669.23z
			 M434.25,600.18c-0.86,2.62,0.57,5.45,3.19,6.31c0,0,0,0,0.01,0c0.5,0.17,1.02,0.25,1.55,0.25c2.76,0,5-2.24,5-5
			c0-2.76-2.24-5-5-5C436.84,596.74,434.92,598.13,434.25,600.18z M462.76,609.53c-0.86,2.62,0.57,5.45,3.19,6.31
			s5.45-0.57,6.31-3.19c0.86-2.62-0.57-5.45-3.19-6.31c0,0,0,0,0,0C466.45,605.48,463.62,606.91,462.76,609.53L462.76,609.53z
			 M603.94,656.53c2.76,0,5-2.23,5-5c0-2.76-2.23-5-5-5s-5,2.23-5,5c0,1.66,0.82,3.21,2.2,4.14c0.83,0.55,1.81,0.83,2.8,0.82V656.53
			z M746.38,697.32c-2.6-0.93-5.46,0.42-6.39,3.02c-0.93,2.6,0.42,5.46,3.02,6.39c0.09,0.03,0.18,0.06,0.27,0.09
			c0.5,0.17,1.02,0.25,1.55,0.25c2.76,0,5-2.24,5-5C749.82,699.91,748.43,697.99,746.38,697.32z M632.38,659.92
			c-2.63-0.86-5.45,0.58-6.3,3.2c-0.86,2.63,0.58,5.45,3.2,6.3c2.62,0.86,5.44-0.57,6.3-3.2c0.87-2.62-0.54-5.45-3.16-6.33
			c-0.02-0.01-0.05-0.02-0.07-0.02L632.38,659.92z M717.9,687.92c-2.6-0.93-5.46,0.42-6.39,3.02c-0.93,2.6,0.42,5.46,3.02,6.39
			c0.09,0.03,0.18,0.06,0.27,0.09c0.5,0.17,1.03,0.25,1.56,0.25c2.76-0.01,4.99-2.25,4.99-5.01
			C721.33,690.5,719.95,688.59,717.9,687.92z M412.05,587.64c-2.63-0.86-5.45,0.58-6.3,3.2s0.58,5.45,3.2,6.3
			c2.62,0.86,5.44-0.57,6.3-3.2C416.11,591.33,414.68,588.5,412.05,587.64C412.05,587.64,412.05,587.64,412.05,587.64z
			 M881.21,711.77c14.45-0.01,28.65-3.78,41.2-10.95c20.9-12,35.31-31.83,40.59-56L977.61,578c0.59-2.7-1.12-5.36-3.82-5.96
			s-5.36,1.12-5.96,3.82l0,0l-14.61,66.9c-4.66,21.35-17.37,38.9-35.78,49.42c-11.03,6.31-23.53,9.64-36.24,9.64
			c-8.05-0.01-16.05-1.31-23.7-3.83L642.6,627.46c-14.24-4.75-26.56-13.95-35.16-26.25c-1.49-2.32-4.59-2.99-6.91-1.5
			s-2.99,4.59-1.5,6.91c0.08,0.13,0.17,0.26,0.27,0.38c9.82,14.06,23.91,24.58,40.18,30l214.91,70.48
			C863.05,710.32,872.1,711.77,881.21,711.77z M441.21,208.24l144.56,26c0.29,0.05,0.59,0.08,0.89,0.08c2.76-0.01,5-2.25,4.99-5.01
			c-0.01-2.41-1.73-4.48-4.11-4.91L443,198.4c-3.86-0.69-7.78-1.05-11.71-1.05c-13.36,0.06-26.41,4.02-37.54,11.41
			c-9.6-13.97-24.37-23.55-41.05-26.61l-80.77-14.52c-2.73-0.43-5.29,1.43-5.72,4.15c-0.42,2.65,1.32,5.16,3.95,5.69L350.91,192
			c14.56,2.7,27.36,11.26,35.43,23.67c0.59,0.88,1.17,1.8,1.72,2.72l2.85,4.82l4.47-3.38c10.27-7.99,22.88-12.37,35.89-12.48
			C434.6,207.35,437.93,207.65,441.21,208.24L441.21,208.24z M163,475.44c-0.86,2.62,0.57,5.45,3.19,6.31
			c2.62,0.86,5.45-0.57,6.31-3.19c0.86-2.62-0.57-5.45-3.19-6.31c0,0,0,0,0,0C166.69,471.39,163.86,472.82,163,475.44z
			 M226.32,490.94c-2.63-0.86-5.45,0.57-6.31,3.2c-0.86,2.63,0.57,5.45,3.2,6.31c0.5,0.17,1.02,0.25,1.55,0.25
			c2.76,0.02,5.01-2.21,5.03-4.97C229.8,493.55,228.4,491.61,226.32,490.94z M191.5,484.79c-0.86,2.62,0.57,5.45,3.19,6.31
			c0,0,0,0,0.01,0c0.5,0.17,1.03,0.25,1.56,0.25c2.76-0.01,5-2.25,4.99-5.01s-2.25-5-5.01-4.99
			C194.08,481.35,192.17,482.74,191.5,484.79z M254.83,500.29c-2.62-0.87-5.45,0.55-6.32,3.17c-0.87,2.62,0.55,5.45,3.17,6.32
			c2.62,0.87,5.45-0.55,6.32-3.17c0,0,0-0.01,0-0.01c0.86-2.62-0.57-5.45-3.19-6.31H254.83z M310.1,509
			c-2.66,0.73-4.22,3.49-3.49,6.15c0.6,2.18,2.58,3.68,4.84,3.67c0.46,0,0.91-0.06,1.35-0.19c2.66-0.75,4.21-3.51,3.46-6.17
			C315.52,509.81,312.76,508.25,310.1,509z M283.02,509.4c-2.65-0.76-5.42,0.77-6.19,3.43c-0.76,2.65,0.77,5.42,3.43,6.19
			c0.1,0.03,0.21,0.06,0.31,0.08c0.4,0.11,0.81,0.16,1.23,0.16c2.76,0,5-2.23,5-5C286.81,511.96,285.25,509.96,283.02,509.4
			L283.02,509.4z M120.32,448.6c0.82,0,1.62-0.2,2.34-0.58c2.44-1.29,3.37-4.32,2.08-6.76s-4.32-3.37-6.76-2.08
			c-2.44,1.29-3.37,4.32-2.08,6.76C116.77,447.57,118.47,448.6,120.32,448.6z M135.87,463c-1.53,2.3-0.91,5.4,1.38,6.93
			c2.3,1.53,5.4,0.91,6.93-1.38c1.53-2.29,0.91-5.4-1.38-6.93C140.52,460.08,137.41,460.7,135.87,463
			C135.87,463,135.87,463,135.87,463z M122.5,351c-2.7-0.56-5.35,1.18-5.91,3.88c-0.55,2.66,1.13,5.28,3.78,5.89
			c0.35,0.08,0.71,0.12,1.07,0.12c2.76,0.01,5.01-2.22,5.02-4.98C126.47,353.54,124.81,351.49,122.5,351z M127.84,331.58
			c2.76,0.01,5.01-2.22,5.02-4.98c0.01-2.76-2.22-5.01-4.98-5.02c-2.76-0.01-5.01,2.22-5.02,4.98c-0.01,2.35,1.62,4.39,3.91,4.9
			c0.35,0.09,0.71,0.13,1.07,0.14V331.58z M107.19,415.32c0.21,2.6,2.39,4.61,5,4.6h0.4c2.75-0.22,4.81-2.63,4.59-5.38
			c-0.22-2.75-2.63-4.81-5.38-4.59c-2.75,0.22-4.81,2.63-4.59,5.38L107.19,415.32z M115,390.22c2.76,0.01,5.01-2.22,5.02-4.98
			c0.01-2.76-2.22-5.01-4.98-5.02c-2.76-0.01-5.01,2.22-5.02,4.98c-0.01,2.35,1.62,4.39,3.91,4.9
			C114.28,390.18,114.64,390.22,115,390.22z"/>
		<path class="st37" d="M662.38,805L662.38,805L651,810.35l0.94,1.93c-11.75,12-14.18,31.89-6.24,48.8
			c8.18,17.42,26,28.8,43.49,27.14l0.91,1.87l10-4.7l0,0c19-8.41,27.66-32.63,16.66-56S681.28,796.52,662.38,805z"/>
		<path class="st37" d="M683.15,888.91c-17.67,5.13-37.39-5.8-45.85-23.83s-4.08-39.73,11.45-49.43
			c17.74-11.08,42.93-2.65,53.71,20.32S703.34,883,683.15,888.91z"/>
		<path class="st38" d="M689.5,885.93c-17.67,5.13-37.39-5.8-45.86-23.83s-4.07-39.73,11.46-49.43
			c17.74-11.08,36.62-0.41,47.41,22.55S709.69,880.06,689.5,885.93z"/>
		<path class="st39" d="M650.25,818.85c16.19-9.85,38.9-2,48.63,18.72s1,42.61-17.23,48.14c-16.13,4.9-34.3-5-42.1-21.63
			S635.92,827.57,650.25,818.85 M647.25,812.45c-16.72,10.72-21.3,34.17-12.16,53.62s30.32,31.38,49.56,26
			c22.25-6.18,33.37-32.47,21.48-57.78s-39.55-34.27-58.88-21.88V812.45z"/>
		<path class="st37" d="M687.27,844.78c-2.42-0.51-4.93-0.37-7.28,0.39l-0.25-0.52c1.09-0.84,2.02-1.85,2.78-3
			c0.92-1.41,1.49-3.02,1.67-4.69c0.22-2.07-0.17-4.15-1.11-6c-1.59-3.38-3.93-5.38-7-6c-2-0.38-4.06-0.25-6,0.37l-4.08-8.84
			l-3.76,1.77l2,9.8l-3.82,2.07l-3.85-8.13l-3.75,1.77l2.29,9.28l-8.68,4.71l3.63,7.72l2-1c1.23-0.47,2.61,0.15,3.09,1.38
			c0.01,0.01,0.01,0.03,0.01,0.04l7.84,16.68c0.65,1.1,0.29,2.51-0.81,3.17c-0.04,0.02-0.08,0.04-0.11,0.06l-2.09,0.84l3.62,7.72
			l9.29-3.39l5.77,7.86l3.75-1.77l-3.84-8.17l4.1-1.5l6.33,8l3.76-1.76l-4.16-8.84c1.86-1.07,3.47-2.54,4.71-4.29
			c1.87-2.72,1.93-6,0.18-9.72C691.89,847.31,689.79,845.3,687.27,844.78z M666.58,837.14c0.68-0.42,1.53-0.49,2.27-0.18
			c0.83,0.48,1.47,1.24,1.8,2.14l0.86,1.83c0.48,0.84,0.65,1.82,0.5,2.77c-0.23,0.77-0.81,1.39-1.56,1.68l-2.36,1.1l-3.84-8.17
			L666.58,837.14z M674.78,860.73l-4-8.57l2.7-1.19c0.73-0.38,1.58-0.4,2.33-0.07c0.84,0.5,1.48,1.27,1.82,2.18l1,2.23
			c0.48,0.83,0.65,1.8,0.49,2.74c-0.25,0.76-0.86,1.34-1.62,1.58L674.78,860.73z"/>
		<path class="st40" d="M683.51,846.55c-2.42-0.52-4.93-0.39-7.28,0.38l-0.24-0.51c1.09-0.84,2.03-1.85,2.78-3
			c0.92-1.41,1.5-3.02,1.67-4.69c0.22-2.07-0.17-4.15-1.11-6c-1.59-3.37-3.93-5.37-7-6c-2-0.37-4.06-0.24-6,0.37l-4.17-8.87
			l-5.61,3.27l3.89,8.29l-3.82,2.08l-3.84-8.17l-5.23,3l3.76,8l-8.67,4.71l3.63,7.73l2-1c1.24-0.47,2.62,0.16,3.09,1.4
			c0,0.01,0.01,0.01,0.01,0.02l7.85,16.73c0.65,1.09,0.3,2.5-0.79,3.16c-0.04,0.03-0.09,0.05-0.13,0.07l-2.09,0.84l3.63,7.73
			l9.29-3.4l3.76,8l5.76-1.9l-3.84-8.18l4.1-1.49l3.89,8.29l6.19-2.05l-4.15-8.84c1.87-1.07,3.47-2.53,4.71-4.29
			c1.86-2.72,1.93-6,0.17-9.72C688.11,849.06,686.04,847.07,683.51,846.55z M662.82,838.9c0.69-0.42,1.53-0.49,2.28-0.18
			c0.83,0.49,1.46,1.24,1.8,2.14l0.86,1.83c0.48,0.84,0.65,1.82,0.5,2.77c-0.24,0.77-0.81,1.39-1.57,1.68l-2.36,1.1l-3.84-8.17
			L662.82,838.9z M671.02,862.49l-4-8.57l2.7-1.18c0.72-0.38,1.58-0.41,2.33-0.08c0.83,0.5,1.47,1.27,1.81,2.18l1,2.24
			c0.48,0.82,0.66,1.79,0.49,2.73c-0.25,0.76-0.85,1.35-1.62,1.58L671.02,862.49z"/>
		<path class="st37" d="M806.49,173.16L806.49,173.16l-7,10.43l1.8,1.16c-3.87,16.32,4.35,34.63,19.89,45
			c16,10.68,37.17,11.19,51.26,0.75l1.75,1.12l6.11-9.18l0,0c11.89-17,6.8-42.23-14.71-56.58S818.27,156.09,806.49,173.16z"/>
		<path class="st37" d="M867.64,234.21c-12.47,13.53-35,14.36-51.57,3.31s-24-31.9-15.75-48.23c9.45-18.66,35.37-24.47,56.48-10.38
			S881.89,218.75,867.64,234.21z"/>
		<path class="st38" d="M871.53,228.38c-12.47,13.53-35,14.36-51.57,3.31s-24-31.9-15.75-48.24c9.45-18.65,31.13-19.29,52.24-5.2
			S885.78,212.92,871.53,228.38z"/>
		<path class="st39" d="M803.26,191.25c8.76-16.8,32.26-21.82,51.3-9.12s22.88,36,10.14,50.12c-11.28,12.53-32,13.43-47.22,3.24
			S795.48,206.12,803.26,191.25 M797.38,187.32c-8.77,17.83-0.56,40.26,17.31,52.19s42.18,11.18,55.89-3.34
			c15.85-16.79,11.77-45-11.49-60.56S807.51,166.72,797.38,187.32L797.38,187.32z"/>
		<path class="st37" d="M848.35,194.31c-2.33,0.81-4.4,2.23-6,4.1l-0.48-0.32c0.49-1.28,0.77-2.63,0.83-4c0.14-3.8-1.77-7.39-5-9.4
			c-3.1-2.06-6.14-2.57-9.09-1.52c-1.89,0.71-3.58,1.88-4.91,3.4l-8.16-5.45l-2.3,3.45l6.76,7.33l-2.2,3.76l-7.51-5l-2.29,3.43
			l6.76,6.77l-5,8.51l7.1,4.74l1.2-1.9c0.8-1.04,2.29-1.23,3.32-0.43c0.02,0.01,0.04,0.03,0.06,0.04l15.38,10.26
			c1.12,0.59,1.55,1.97,0.96,3.09c-0.02,0.05-0.05,0.09-0.08,0.14l-1.36,1.8l7.1,4.74l6.2-7.71l9,3.75l2.3-3.45l-7.51-5l2.73-3.4
			l9.56,3.58l2.3-3.45l-8.12-5.42c1.04-1.88,1.66-3.96,1.81-6.1c0.19-3.3-1.43-6.12-4.87-8.41
			C853.61,194.08,850.78,193.44,848.35,194.31z M826.68,198.46c0.38-0.71,1.07-1.2,1.86-1.32c0.96-0.02,1.9,0.3,2.65,0.9l1.68,1.12
			c0.84,0.47,1.5,1.22,1.86,2.11c0.2,0.78,0.03,1.61-0.47,2.25l-1.46,2.16l-7.5-5L826.68,198.46z M845.9,214.46l-7.9-5.3l1.7-2.41
			c0.43-0.71,1.17-1.17,2-1.26c0.97-0.01,1.92,0.32,2.68,0.92l2,1.37c0.84,0.46,1.49,1.2,1.84,2.09c0.17,0.78-0.04,1.59-0.57,2.19
			L845.9,214.46z"/>
		<path class="st40" d="M846.05,197.76c-2.33,0.81-4.4,2.23-6,4.1l-0.48-0.32c0.49-1.28,0.77-2.63,0.83-4c0.14-3.8-1.77-7.39-5-9.4
			c-3.1-2.07-6.14-2.57-9.09-1.52c-1.89,0.71-3.58,1.88-4.91,3.4l-8.16-5.45l-3.12,5.71l7.62,5.08l-2.2,3.76l-7.51-5l-2.89,5.31
			l7.35,4.91l-5,8.51l7.1,4.74l1.2-1.9c0.8-1.04,2.29-1.23,3.32-0.43c0.02,0.01,0.04,0.03,0.06,0.04l15.38,10.26
			c1.12,0.59,1.55,1.97,0.96,3.09c-0.02,0.05-0.05,0.09-0.08,0.14l-1.36,1.8l7.1,4.74l6.2-7.71l7.35,4.91l4-4.61l-7.51-5l2.73-3.4
			l7.62,5.09l4.24-5l-8.12-5.42c1.04-1.88,1.66-3.97,1.81-6.11c0.19-3.29-1.44-6.11-4.87-8.4
			C851.31,197.53,848.48,196.9,846.05,197.76z M824.38,201.91c0.38-0.71,1.06-1.21,1.86-1.33c0.96-0.01,1.9,0.31,2.65,0.91
			l1.67,1.12c0.84,0.47,1.5,1.21,1.87,2.1c0.22,0.79,0.06,1.64-0.43,2.29l-1.46,2.16l-7.51-5L824.38,201.91z M843.6,217.91
			l-7.88-5.26l1.7-2.41c0.44-0.71,1.17-1.18,2-1.27c0.97,0,1.91,0.33,2.68,0.93l2.05,1.37c0.84,0.46,1.49,1.2,1.83,2.09
			c0.18,0.78-0.03,1.59-0.56,2.19L843.6,217.91z"/>
		<path class="st37" d="M193.58,519.55L193.58,519.55l-14,7.08l1.25,2.37c-14.23,15.37-16.51,40.33-6,61.14
			c10.85,21.43,33.56,35,55.3,32.26l1.21,2.29l12.28-6.23l0,0c23.36-11.19,33.3-41.76,18.71-70.57S216.86,508.21,193.58,519.55z"/>
		<path class="st37" d="M222.64,623.46c-21.87,7.07-46.89-5.85-58.12-28S158,546,177,533.3c21.73-14.49,53.48-4.9,67.8,23.36
			C259.12,584.92,247.62,615.39,222.64,623.46z"/>
		<path class="st38" d="M230.45,619.51c-21.87,7.06-46.89-5.85-58.12-28s-6.57-49.44,12.45-62.12c21.73-14.5,45.7-1.88,60,26.38
			C259.08,584.03,255.43,611.43,230.45,619.51z"/>
		<path class="st39" d="M179,537.24c19.84-12.89,48.48-3.94,61.4,21.55s2.82,53.16-19.71,60.74c-20,6.71-43-5-53.36-25.44
			S161.43,548.66,179,537.24 M175,529.37c-20.47,14-25.31,43.44-13.19,67.38s39,38,62.84,30.65c27.54-8.54,40.44-41.77,24.66-72.92
			S198.64,513.17,175,529.37z"/>
		<path class="st37" d="M226.13,568.23c-3.04-0.55-6.17-0.29-9.07,0.76l-0.32-0.64c1.32-1.09,2.45-2.39,3.35-3.85
			c1.1-1.79,1.75-3.82,1.91-5.92c0.19-2.57-0.37-5.13-1.61-7.39c-2.1-4.15-5.11-6.56-9-7.23c-2.49-0.38-5.04-0.15-7.42,0.68
			l-5.53-10.93l-4.62,2.34l2.9,12.17l-4.7,2.73L187,540.89l-4.62,2.34l3.2,11.51l-10.65,6.19l4.81,9.51l2.48-1.34
			c1.33-0.72,3.09,0,3.92,1.66l10.43,20.59c0.82,1.63,0.36,3.45-1,4.06l-2.58,1.13l4.82,9.5l11.47-4.58l7.49,9.59l4.61-2.34
			l-5.09-10.05l5.06-2l8.2,9.75l4.62-2.34l-5.51-10.87c2.28-1.41,4.23-3.3,5.71-5.53c2.23-3.47,2.19-7.54-0.14-12.14
			C232,571.21,229.3,568.79,226.13,568.23z M200,559.46c0.84-0.54,1.89-0.66,2.83-0.31c1.05,0.58,1.88,1.5,2.33,2.61l1.14,2.25
			c0.63,1.03,0.88,2.24,0.73,3.43c-0.26,0.97-0.96,1.77-1.89,2.16l-2.91,1.46l-5.09-10L200,559.46z M211.12,588.6l-5.35-10.55
			l3.33-1.58c0.89-0.49,1.96-0.56,2.9-0.18c1.06,0.6,1.88,1.53,2.35,2.65l1.39,2.76c0.63,1.01,0.89,2.21,0.72,3.39
			c-0.31,0.95-1.05,1.69-2,2L211.12,588.6z"/>
		<path class="st40" d="M221.51,570.57c-3.04-0.55-6.17-0.29-9.07,0.76l-0.32-0.64c1.32-1.09,2.45-2.39,3.35-3.85
			c1.1-1.79,1.75-3.82,1.91-5.92c0.19-2.57-0.37-5.13-1.61-7.39c-2.1-4.15-5.1-6.56-9-7.23c-2.49-0.38-5.04-0.15-7.42,0.68
			l-5.53-10.93l-6.89,4.3l5.17,10.21l-4.7,2.73l-5.09-10.06l-6.41,4l5,9.85l-10.65,6.19l4.81,9.51l2.48-1.34
			c1.33-0.72,3.09,0,3.92,1.66l10.43,20.59c0.83,1.63,0.36,3.45-1,4.06l-2.58,1.13l4.82,9.5l11.47-4.58l5,9.85l7.12-2.6l-5.1-10
			l5.06-2l5.17,10.2l7.65-2.79l-5.5-10.94c2.28-1.41,4.23-3.3,5.71-5.53c2.23-3.47,2.19-7.54-0.14-12.14
			C227.37,573.55,224.68,571.13,221.51,570.57z M195.4,561.8c0.84-0.55,1.89-0.66,2.83-0.31c1.05,0.58,1.88,1.5,2.33,2.61l1.14,2.25
			c0.63,1.03,0.88,2.24,0.73,3.43c-0.26,0.97-0.96,1.77-1.89,2.16l-2.91,1.46l-5.09-10L195.4,561.8z M206.52,590.94l-5.35-10.55
			l3.33-1.58c0.89-0.49,1.96-0.56,2.9-0.18c1.06,0.6,1.88,1.53,2.35,2.65l1.39,2.76c0.63,1.01,0.89,2.21,0.72,3.39
			c-0.31,0.95-1.05,1.69-2,2L206.52,590.94z"/>
	</g>
</g>
</svg>
