<svg xmlns="http://www.w3.org/2000/svg" xmlns:xlink="http://www.w3.org/1999/xlink" viewBox="0 0 1126.8 845.1"><defs><style>.cls-1,.cls-31,.cls-32,.cls-33,.cls-34{fill:none;}.cls-2{isolation:isolate;}.cls-3{clip-path:url(#clip-path);}.cls-4{fill:#1b2852;}.cls-5{fill:url(#linear-gradient);}.cls-30,.cls-33,.cls-34,.cls-6{mix-blend-mode:overlay;}.cls-7{fill:#fff;}.cls-8{fill:#fadf2c;}.cls-9{fill:url(#linear-gradient-2);}.cls-10{fill:url(#linear-gradient-3);}.cls-11{fill:#8ed489;}.cls-12{fill:url(#linear-gradient-4);}.cls-13{fill:url(#linear-gradient-5);}.cls-14{fill:url(#linear-gradient-6);}.cls-15{fill:url(#linear-gradient-7);}.cls-16{fill:url(#linear-gradient-8);}.cls-17{fill:url(#linear-gradient-9);}.cls-18{fill:url(#linear-gradient-10);}.cls-19{fill:url(#linear-gradient-11);}.cls-20{fill:url(#linear-gradient-12);}.cls-21{fill:url(#linear-gradient-13);}.cls-22{fill:url(#linear-gradient-14);}.cls-23{fill:url(#linear-gradient-15);}.cls-24{fill:url(#linear-gradient-16);}.cls-25{fill:url(#linear-gradient-17);}.cls-26{fill:#88d1bf;stroke:#88d188;mix-blend-mode:multiply;}.cls-26,.cls-31,.cls-32,.cls-33,.cls-34{stroke-miterlimit:10;}.cls-27{fill:#fc9521;}.cls-28{fill:url(#linear-gradient-18);}.cls-29{fill:#fef426;opacity:0.8;}.cls-30{opacity:0.5;}.cls-31,.cls-32,.cls-33,.cls-34{stroke:#fff;stroke-linecap:round;}.cls-31,.cls-32,.cls-33{stroke-width:10px;}.cls-32{stroke-dasharray:0 30.17;}.cls-33{stroke-dasharray:0 30;}.cls-34{stroke-width:5px;stroke-dasharray:0 21;}.cls-35{fill:url(#linear-gradient-19);}.cls-36{fill:url(#linear-gradient-20);}.cls-37{fill:#fb5d1d;}.cls-38{fill:url(#linear-gradient-21);}.cls-39{fill:url(#radial-gradient);}.cls-40{fill:url(#radial-gradient-2);}.cls-41{fill:url(#radial-gradient-3);}.cls-42{fill:url(#radial-gradient-4);}</style><clipPath id="clip-path" transform="translate(0 0)"><rect class="cls-1" width="1126.8" height="845.1" transform="translate(1126.8 845.1) rotate(180)"/></clipPath><linearGradient id="linear-gradient" x1="292.77" y1="668.06" x2="842.44" y2="206.72" gradientUnits="userSpaceOnUse"><stop offset="0" stop-color="#fb571d"/><stop offset="0.04" stop-color="#fb621e"/><stop offset="0.16" stop-color="#fa7e22"/><stop offset="0.28" stop-color="#fa9225"/><stop offset="0.39" stop-color="#fa9e26"/><stop offset="0.51" stop-color="#faa227"/><stop offset="0.61" stop-color="#fa9b26"/><stop offset="0.76" stop-color="#fa8723"/><stop offset="0.93" stop-color="#fb671f"/><stop offset="1" stop-color="#fb571d"/></linearGradient><linearGradient id="linear-gradient-2" x1="862.13" y1="610.16" x2="680.24" y2="90.49" gradientUnits="userSpaceOnUse"><stop offset="0" stop-color="#fd2371"/><stop offset="1" stop-color="#fd6747"/></linearGradient><linearGradient id="linear-gradient-3" x1="877.22" y1="604.88" x2="695.33" y2="85.21" xlink:href="#linear-gradient-2"/><linearGradient id="linear-gradient-4" x1="812.55" y1="627.52" x2="630.67" y2="107.84" xlink:href="#linear-gradient-2"/><linearGradient id="linear-gradient-5" x1="740.8" y1="652.63" x2="558.91" y2="132.95" xlink:href="#linear-gradient-2"/><linearGradient id="linear-gradient-6" x1="651.73" y1="683.81" x2="469.84" y2="164.13" xlink:href="#linear-gradient-2"/><linearGradient id="linear-gradient-7" x1="549.06" y1="719.74" x2="367.17" y2="200.06" xlink:href="#linear-gradient-2"/><linearGradient id="linear-gradient-8" x1="471.65" y1="746.83" x2="289.77" y2="227.15" xlink:href="#linear-gradient-2"/><linearGradient id="linear-gradient-9" x1="412.68" y1="767.47" x2="230.79" y2="247.8" xlink:href="#linear-gradient-2"/><linearGradient id="linear-gradient-10" x1="380.31" y1="778.8" x2="198.42" y2="259.12" xlink:href="#linear-gradient-2"/><linearGradient id="linear-gradient-11" x1="380.29" y1="778.81" x2="198.4" y2="259.13" xlink:href="#linear-gradient-2"/><linearGradient id="linear-gradient-12" x1="410.87" y1="768.1" x2="228.99" y2="248.43" xlink:href="#linear-gradient-2"/><linearGradient id="linear-gradient-13" x1="479.94" y1="743.93" x2="298.05" y2="224.25" xlink:href="#linear-gradient-2"/><linearGradient id="linear-gradient-14" x1="586.47" y1="706.64" x2="404.59" y2="186.97" xlink:href="#linear-gradient-2"/><linearGradient id="linear-gradient-15" x1="720.69" y1="659.67" x2="538.8" y2="139.99" xlink:href="#linear-gradient-2"/><linearGradient id="linear-gradient-16" x1="809.56" y1="628.56" x2="627.67" y2="108.89" xlink:href="#linear-gradient-2"/><linearGradient id="linear-gradient-17" x1="311.5" y1="361.24" x2="707.29" y2="361.24" gradientUnits="userSpaceOnUse"><stop offset="0" stop-color="#1d976c"/><stop offset="1" stop-color="#94d78b"/></linearGradient><linearGradient id="linear-gradient-18" x1="383.06" y1="435.97" x2="646.43" y2="267.66" gradientUnits="userSpaceOnUse"><stop offset="0" stop-color="#fb571d"/><stop offset="0.07" stop-color="#fc781f"/><stop offset="0.16" stop-color="#fd9c22"/><stop offset="0.25" stop-color="#fdb924"/><stop offset="0.34" stop-color="#fecd25"/><stop offset="0.42" stop-color="#fed926"/><stop offset="0.51" stop-color="#fedd26"/><stop offset="0.58" stop-color="#fed626"/><stop offset="0.68" stop-color="#fdc224"/><stop offset="0.79" stop-color="#fda222"/><stop offset="0.92" stop-color="#fc751f"/><stop offset="1" stop-color="#fb571d"/></linearGradient><linearGradient id="linear-gradient-19" x1="207.38" y1="467.03" x2="774.27" y2="131.49" gradientUnits="userSpaceOnUse"><stop offset="0" stop-color="#bd5018"/><stop offset="0.2" stop-color="#c34919"/><stop offset="0.51" stop-color="#c6451a"/><stop offset="0.87" stop-color="#c14c19"/><stop offset="0.99" stop-color="#bf5018"/></linearGradient><linearGradient id="linear-gradient-20" x1="415.43" y1="280.88" x2="535.32" y2="280.88" xlink:href="#linear-gradient"/><linearGradient id="linear-gradient-21" x1="311.69" y1="234.09" x2="573.42" y2="234.09" xlink:href="#linear-gradient"/><radialGradient id="radial-gradient" cx="372.16" cy="310.93" r="43.94" gradientUnits="userSpaceOnUse"><stop offset="0" stop-color="#faa227"/><stop offset="0.23" stop-color="#fa9e26"/><stop offset="0.46" stop-color="#fa9225"/><stop offset="0.69" stop-color="#fa7e22"/><stop offset="0.93" stop-color="#fb621e"/><stop offset="1" stop-color="#fb571d"/></radialGradient><radialGradient id="radial-gradient-2" cx="551.42" cy="202.16" r="38.56" xlink:href="#radial-gradient"/><radialGradient id="radial-gradient-3" cx="462.97" cy="120.19" r="43.12" xlink:href="#radial-gradient"/><radialGradient id="radial-gradient-4" cx="316.45" cy="202.84" r="43.65" xlink:href="#radial-gradient"/></defs><title>Wheel</title><g class="cls-2"><g id="Layer_1" data-name="Layer 1"><g class="cls-3"><rect class="cls-4" width="1126.8" height="845.1" transform="translate(1126.8 845.1) rotate(180)"/><path class="cls-5" d="M847.81,476.74c-1.69,2.68-3.45,5.36-5.25,8l-.4.58a.41.41,0,0,1,0,.09c-36.31,53.48-93,105.38-168.39,147.18q-4.26,2.37-8.62,4.69-9.92,5.3-19.83,10.13-10.82,5.29-21.6,10c-49.13,21.66-97.51,35-142.78,41-102.53,13.4-189.12-11.53-232.38-65.62l-42.76-51.29L225.87,591q-1.47-4.49-2.63-9.12C196.35,474.78,298.62,335.25,448,255.56c129.14-68.92,277.64-84.63,365.49-35.8a155.14,155.14,0,0,1,36.48,27.7,141.06,141.06,0,0,1,16.62,20.77l1.54-22.34c.15.43,16.21,61.88,16.21,61.88C898,357.94,885.15,418,847.81,476.74Z" transform="translate(0 0)"/><g class="cls-6"><path class="cls-7" d="M762.9,113.47a317,317,0,0,1,84.72,17.14,260.37,260.37,0,0,1,40.09,18.3,227.47,227.47,0,0,1,36.54,25.65,212.43,212.43,0,0,1,30.92,32.84,213.74,213.74,0,0,1,31.88,60.15l1.74,5.44c.28.9.59,1.81.85,2.72l.77,2.75,1.51,5.5,1.32,5.54.66,2.78.54,2.8,1.08,5.59.88,5.63c.3,1.87.59,3.75.79,5.63l.67,5.65c.2,1.89.32,3.77.49,5.66.36,3.78.49,7.55.67,11.33a289.07,289.07,0,0,1-11.64,89,372.64,372.64,0,0,1-34.73,81.72,460.36,460.36,0,0,1-50.75,71.93q-14.26,16.69-29.8,32.15c-10.35,10.29-21.16,20.09-32.23,29.52S817.39,657.37,805.7,666,782,682.71,769.78,690.51s-24.65,15.18-37.31,22.16c-6.3,3.54-12.71,6.86-19.1,10.22s-12.91,6.46-19.4,9.63c-52.08,24.93-107.19,43.75-164,54.64a551,551,0,0,1-86.14,9.69,456.18,456.18,0,0,1-86.63-5.23c-28.6-4.69-56.87-12.2-83.6-23.69-26.74-11.32-51.91-26.71-73.54-46.09a6,6,0,0,1,7.67-9.31l.1.07a268.32,268.32,0,0,0,72.2,39.14l4.84,1.75c1.62.57,3.22,1.19,4.87,1.67l9.85,3.06c1.62.54,3.3.95,5,1.39l5,1.32,5,1.32,5,1.14c3.36.74,6.7,1.54,10.07,2.24l10.15,1.85c3.37.68,6.79,1.1,10.19,1.6l5.11.74,2.55.36c.86.12,1.71.19,2.57.28l10.27,1.08,2.56.28,2.58.18,5.15.37,5.15.37,2.58.18,2.58.09,10.33.37,2.58.09H416.9c1.72,0,3.44,0,5.17-.07,6.89-.28,13.78-.33,20.66-.88A528.11,528.11,0,0,0,524.65,761c54-11.87,106.24-31.27,155.43-56.51s95.5-56,136.65-92.32a549.87,549.87,0,0,0,57.4-58.46,459.62,459.62,0,0,0,46.74-66.51,388.81,388.81,0,0,0,18.25-36A336.27,336.27,0,0,0,953,413.52c7.71-25.53,12-52,11.87-78.24a212.61,212.61,0,0,0-3.69-39.06l-.93-4.81-1.1-4.76-.55-2.39c-.19-.79-.43-1.57-.64-2.36l-1.29-4.72c-1.9-6.24-4-12.44-6.45-18.47a190.94,190.94,0,0,0-18.33-34.66,200.25,200.25,0,0,0-25.18-30.51c-18.82-18.74-41.55-33.94-66.23-45.74s-51.39-20.08-78.75-26.24h0a4.09,4.09,0,0,1,1.18-8.08Z" transform="translate(0 0)"/></g><g class="cls-6"><path class="cls-1" d="M762.32,117.52" transform="translate(0 0)"/></g><g class="cls-6"><path class="cls-7" d="M159.85,603.34a169.9,169.9,0,0,1-8.13-31.64c-.46-2.7-.77-5.42-1.11-8.14s-.58-5.45-.73-8.19-.39-5.47-.42-8.21l-.1-4.12,0-4.11c.2-22,4-43.8,10.1-64.78a295.52,295.52,0,0,1,11-30.83c2.11-5,4.27-10,6.62-14.92s4.8-9.75,7.36-14.54c1.29-2.39,2.55-4.79,3.91-7.14s2.63-4.74,4-7.05,2.77-4.66,4.22-6.95,2.86-4.6,4.35-6.85c5.87-9.1,12.12-17.92,18.65-26.51a516.24,516.24,0,0,1,42.26-48.82c7.51-7.68,15.16-15.22,23.06-22.49S300.8,273.6,309,266.71q24.63-20.71,51-39.3C377.52,215,395.6,203.34,414,192a13.39,13.39,0,1,1,14,22.81,14.69,14.69,0,0,1-1.35.73l-.1,0c-37.59,17.31-72.78,40-104.77,66.4-8,6.64-15.81,13.44-23.37,20.54s-14.94,14.37-22,21.92a494.17,494.17,0,0,0-39.56,47.7q-9.08,12.51-17.31,25.56c-1.39,2.16-2.71,4.37-4.05,6.56s-2.62,4.41-3.92,6.63c-2.58,4.43-5.1,8.89-7.51,13.41s-4.74,9.08-7,13.68c-1.13,2.3-2.19,4.62-3.29,6.93s-2.1,4.65-3.15,7c-4.11,9.34-7.69,18.89-10.9,28.54a274.65,274.65,0,0,0-12.89,59.39,224.26,224.26,0,0,0-1,30.46A238.18,238.18,0,0,0,169,600.88v0a4.75,4.75,0,0,1-9.14,2.41Z" transform="translate(0 0)"/></g><path class="cls-8" d="M831.62,180.46c96,99.43,21.72,291.47-192.36,405.71s-426.48,75.18-459.84-57.69C151.44,417,257.87,271.83,413.3,188.89S751.08,97.06,831.62,180.46Z" transform="translate(0 0)"/><path class="cls-9" d="M842.31,277.12c.5,24-4.63,49.71-15.21,76l-153.69-5.76a115.08,115.08,0,0,0,8.75-31.12Z" transform="translate(0 0)"/><path class="cls-10" d="M812.64,195.42a127.06,127.06,0,0,1,28.1,63.11l-158.26,39.2a68.87,68.87,0,0,0-8.87-28.12Z" transform="translate(0 0)"/><path class="cls-11" d="M800.92,183,663.57,256.26A81.47,81.47,0,0,0,641.7,240.2L744.63,149C766.19,157,785.29,168.31,800.92,183Z" transform="translate(0 0)"/><path class="cls-12" d="M726.47,143.07,624.23,233.16a146.67,146.67,0,0,0-35.27-6l55.84-94C673.93,132.9,701.58,136.13,726.47,143.07Z" transform="translate(0 0)"/><path class="cls-13" d="M623,134l-56.38,93.27A239.66,239.66,0,0,0,530,232.46l10-84.82A455.74,455.74,0,0,1,623,134Z" transform="translate(0 0)"/><path class="cls-14" d="M517.32,154l-11.24,84.81A304,304,0,0,0,465,255.18L428,190.24A561.53,561.53,0,0,1,517.32,154Z" transform="translate(0 0)"/><path class="cls-15" d="M406.67,201.6l35.69,65.66a301.55,301.55,0,0,0-32.76,22.16l-76.4-38.77A557.46,557.46,0,0,1,406.67,201.6Z" transform="translate(0 0)"/><path class="cls-16" d="M390.77,305.46a232.86,232.86,0,0,0-27.41,30.28l-110.64-4.15a445.14,445.14,0,0,1,62.41-66Z" transform="translate(0 0)"/><path class="cls-17" d="M351.16,354.07a141.78,141.78,0,0,0-13,28.95l-131.8,32.64c7.62-22.28,19.11-44.71,33.82-66.58Z" transform="translate(0 0)"/><path class="cls-18" d="M334.12,401.3a79.46,79.46,0,0,0,1.59,29.91L198.36,504.5c-4.49-22.65-3.3-46.54,2.66-70.67Z" transform="translate(0 0)"/><path class="cls-19" d="M358.56,467.22l-121.4,107a127.52,127.52,0,0,1-34.46-53.3l139-74.19A69.54,69.54,0,0,0,358.56,467.22Z" transform="translate(0 0)"/><path class="cls-20" d="M408.62,488.67,330.31,618.25c-30.79-6-57.44-17-78.73-32.26L374,477.45A118,118,0,0,0,408.62,488.67Z" transform="translate(0 0)"/><path class="cls-21" d="M473.08,488,455.83,618.22c-36.1,5.91-70.29,7-101.32,3.69l77.79-131A216.33,216.33,0,0,0,473.08,488Z" transform="translate(0 0)"/><path class="cls-22" d="M549.16,463.73l57,104.87a546.94,546.94,0,0,1-120.7,43.77l15.31-130.52A298.37,298.37,0,0,0,549.16,463.73Z" transform="translate(0 0)"/><path class="cls-23" d="M730.63,484.43A544,544,0,0,1,635,553.2L575.86,449.49a299.28,299.28,0,0,0,37.83-26.64Z" transform="translate(0 0)"/><path class="cls-24" d="M817.13,375c-15.16,29.8-36.92,59.77-64.75,88.4L634.52,403.61a211.26,211.26,0,0,0,28-35.53Z" transform="translate(0 0)"/><path class="cls-4" d="M673.61,269.61a68.87,68.87,0,0,1,8.87,28.12l158.26-39.2a140.09,140.09,0,0,1,1.57,18.59L682.16,316.26a115.08,115.08,0,0,1-8.75,31.12l153.69,5.76c-2.89,7.26-6.23,14.58-10,21.9l-154.59-7a211.26,211.26,0,0,1-28,35.53l117.86,59.83q-10.33,10.67-21.75,21L613.69,422.85a299.28,299.28,0,0,1-37.83,26.64L635,553.2q-7.08,4-14.33,7.9t-14.53,7.5l-57-104.87a298.37,298.37,0,0,1-48.38,18.12L485.47,612.37q-15,3.45-29.64,5.85L473.08,488a216.33,216.33,0,0,1-40.78,2.94l-77.79,131q-12.47-1.35-24.2-3.66l78.31-129.58A118,118,0,0,1,374,477.45L251.58,586a146.47,146.47,0,0,1-14.42-11.8l121.4-107a69.54,69.54,0,0,1-16.83-20.52l-139,74.19c-.89-2.66-1.7-5.37-2.43-8.11s-1.35-5.5-1.91-8.28l137.35-73.29a79.46,79.46,0,0,1-1.59-29.91L201,433.83q2.23-9.06,5.35-18.17L338.17,383a141.78,141.78,0,0,1,13-28.95l-111-5q5.91-8.81,12.53-17.49l110.64,4.15a232.86,232.86,0,0,1,27.41-30.28l-75.64-39.83q8.78-7.62,18.07-15l76.4,38.77a301.55,301.55,0,0,1,32.76-22.16L406.67,201.6q5.24-2.92,10.58-5.79T428,190.24L465,255.18a304,304,0,0,1,41.07-16.34L517.32,154q11.37-3.48,22.66-6.39l-10,84.82a239.66,239.66,0,0,1,36.58-5.18L623,134q11-.73,21.81-.84l-55.84,94a146.67,146.67,0,0,1,35.27,6l102.24-90.09q9.36,2.6,18.16,5.89L641.7,240.2a81.47,81.47,0,0,1,21.87,16.06L800.92,183Q804,185.91,807,189c2,2.08,3.85,4.22,5.65,6.39Z" transform="translate(0 0)"/><path class="cls-4" d="M711.54,240a85.12,85.12,0,0,1,6.12,8.59,86.1,86.1,0,0,1,12.41,35,103,103,0,0,1,.3,23.32,140.3,140.3,0,0,1-10.15,39.5,191,191,0,0,1-13.35,26.47,261.33,261.33,0,0,1-35.24,45.68,331.88,331.88,0,0,1-26.54,24.82,374,374,0,0,1-48.52,34.38q-8.27,5-17,9.59t-17.4,8.74A375.6,375.6,0,0,1,500,519.18a327,327,0,0,1-35.53,7.63,267.34,267.34,0,0,1-52,3.2,202.11,202.11,0,0,1-30-3.35c-16.21-3.09-30.79-8.16-43.31-15.12a104.49,104.49,0,0,1-19.06-13.45,86.76,86.76,0,0,1-20.28-26.56,84.86,84.86,0,0,1-4.06-9.69,87.09,87.09,0,0,1-2.86-10.13,102.84,102.84,0,0,1-.91-37.87,135.45,135.45,0,0,1,5.62-22.94,183.63,183.63,0,0,1,16.86-36.07,237.79,237.79,0,0,1,15.48-22.71,298.12,298.12,0,0,1,34.3-37.36q11-10.14,23.38-19.73a380.84,380.84,0,0,1,40.49-27.27q6.76-4,13.8-7.72T456,232.86a383.68,383.68,0,0,1,50.65-20.27q14.91-4.76,29.59-8a304.69,304.69,0,0,1,45.38-6.76,249,249,0,0,1,27.89-.42,189.81,189.81,0,0,1,44.37,6.82,138.13,138.13,0,0,1,22.25,8.39,105.79,105.79,0,0,1,28.25,19.52A91.52,91.52,0,0,1,711.54,240Z" transform="translate(0 0)"/><path class="cls-25" d="M690.75,251.05a78.83,78.83,0,0,1,5.36,7.8,77.81,77.81,0,0,1,10.61,31.67,93.77,93.77,0,0,1,0,21,128,128,0,0,1-9.52,35.38A176.08,176.08,0,0,1,685,370.51a237.2,237.2,0,0,1-31.72,40.66,295,295,0,0,1-23.73,22.05,335.55,335.55,0,0,1-43.24,30.55c-4.9,2.93-9.94,5.78-15.08,8.52s-10.3,5.34-15.48,7.79a338.86,338.86,0,0,1-55.39,20.65,293.92,293.92,0,0,1-31.66,6.9,242.43,242.43,0,0,1-46.5,3.11A184.3,184.3,0,0,1,395.33,508a131.93,131.93,0,0,1-39.06-13.16A94.76,94.76,0,0,1,339,483a78.17,78.17,0,0,1-18.64-23.57,75,75,0,0,1-3.8-8.63,80.38,80.38,0,0,1-2.72-9.05,91.23,91.23,0,0,1-1.29-34,120.19,120.19,0,0,1,4.82-20.67,163,163,0,0,1,14.95-32.6,209.18,209.18,0,0,1,13.87-20.58,266,266,0,0,1,30.94-33.94Q387,290.72,398.25,282A342.1,342.1,0,0,1,435,257.2q6.15-3.6,12.54-7t12.83-6.52a345.23,345.23,0,0,1,46-18.35q13.54-4.31,26.86-7.24a272,272,0,0,1,41.1-6,219.36,219.36,0,0,1,25.19-.26,168.66,168.66,0,0,1,39.92,6.44,122.44,122.44,0,0,1,19.9,7.76,93.49,93.49,0,0,1,25.1,17.86A82,82,0,0,1,690.75,251.05Z" transform="translate(0 0)"/><path class="cls-26" d="M655.8,306.53a91.35,91.35,0,0,1-3,13.56,113.5,113.5,0,0,1-4.82,13c0,.09-.08.19-.13.28a134.83,134.83,0,0,1-9.3,17.31,182.36,182.36,0,0,1-24,30.08A230.82,230.82,0,0,1,596.83,397a256,256,0,0,1-32.07,22.51q-5.44,3.24-11.15,6.29t-11.44,5.76q-5,2.37-10,4.49a254,254,0,0,1-31,10.93,226.67,226.67,0,0,1-23.48,5.29,186,186,0,0,1-34.67,2.7,143.24,143.24,0,0,1-20.22-1.76,109.54,109.54,0,0,1-22.59-6.07c-2.09-.82-4.13-1.71-6.09-2.67-.32-.17-.66-.34-1-.51-1.16-.58-2.29-1.18-3.39-1.79l-.07,0a73.29,73.29,0,0,1-9.94-6.72,61.42,61.42,0,0,1-7.12-6.72A57.93,57.93,0,0,1,365,418.1a54.83,54.83,0,0,1-3.11-6.4,57.55,57.55,0,0,1-2.3-6.74,62.53,62.53,0,0,1-2.19-14.09,72.35,72.35,0,0,1,.41-11.45,87.37,87.37,0,0,1,3.27-15.69A120.23,120.23,0,0,1,372,338.79,158.88,158.88,0,0,1,382.39,323a199.58,199.58,0,0,1,23.54-26.23q7.62-7.16,16.26-13.91a258.52,258.52,0,0,1,28.35-19.23q4.75-2.79,9.7-5.43t9.93-5A260.11,260.11,0,0,1,505.76,239q10.46-3.27,20.73-5.47a203.44,203.44,0,0,1,31.58-4.33,162.32,162.32,0,0,1,19.24,0,124,124,0,0,1,30.21,5.39,88.84,88.84,0,0,1,14.87,6.22,68.47,68.47,0,0,1,18.45,14,58.85,58.85,0,0,1,4.55,5.55,57.32,57.32,0,0,1,3.81,6,59.27,59.27,0,0,1,7.13,24.22A73.3,73.3,0,0,1,655.8,306.53Z" transform="translate(0 0)"/><path class="cls-27" d="M842.35,485.07l.21-.3-.4.58C842.22,485.26,842.28,485.16,842.35,485.07Z" transform="translate(0 0)"/><path class="cls-28" d="M655.8,321.37a91.35,91.35,0,0,1-3,13.56,113.5,113.5,0,0,1-4.82,13c0,.09-.08.19-.13.28a134.83,134.83,0,0,1-9.3,17.31,182.36,182.36,0,0,1-24,30.08,230.82,230.82,0,0,1-17.73,16.26c-3.39,2.79-6.9,5.54-10.53,8.21-6.78,5-14,9.8-21.54,14.3q-4,2.39-8.15,4.66c-1,.55-2,1.09-3,1.63q-5.7,3-11.44,5.76-5,2.37-10,4.49a254,254,0,0,1-31,10.93,226.67,226.67,0,0,1-23.48,5.29,186,186,0,0,1-34.67,2.7A143.24,143.24,0,0,1,422.85,468,109.54,109.54,0,0,1,400.26,462c-2.09-.82-4.13-1.71-6.09-2.67-.32-.17-.66-.34-1-.51-1.16-.58-2.29-1.18-3.39-1.79l-.07,0a73.29,73.29,0,0,1-9.94-6.72,61.42,61.42,0,0,1-7.12-6.72A57.93,57.93,0,0,1,365,432.94a54.83,54.83,0,0,1-3.11-6.4,57.55,57.55,0,0,1-2.3-6.74,62.53,62.53,0,0,1-2.19-14.09,72.35,72.35,0,0,1,.41-11.45,87.37,87.37,0,0,1,3.27-15.69A120.23,120.23,0,0,1,372,353.63a158.88,158.88,0,0,1,10.41-15.84,199.58,199.58,0,0,1,23.54-26.23q7.62-7.15,16.26-13.91a258.52,258.52,0,0,1,28.35-19.23q4.75-2.79,9.7-5.43t9.93-5a260.11,260.11,0,0,1,35.59-14.1q10.46-3.27,20.73-5.47a203.44,203.44,0,0,1,31.58-4.33,162.32,162.32,0,0,1,19.24,0,124,124,0,0,1,30.21,5.39,88.84,88.84,0,0,1,14.87,6.22,68.47,68.47,0,0,1,18.45,14,58.85,58.85,0,0,1,4.55,5.55,57.32,57.32,0,0,1,3.81,6,59.27,59.27,0,0,1,7.13,24.22A73.3,73.3,0,0,1,655.8,321.37Z" transform="translate(0 0)"/><path class="cls-29" d="M532.21,450.88a254,254,0,0,1-31,10.93,226.67,226.67,0,0,1-23.48,5.29,186,186,0,0,1-34.67,2.7A143.24,143.24,0,0,1,422.85,468,109.54,109.54,0,0,1,400.26,462L451.48,355l9.32-28.93,29.45,23Z" transform="translate(0 0)"/><g class="cls-30"><path class="cls-7" d="M980.88,167.11a182.11,182.11,0,0,1,34.34,25.59c2.69,2.41,5.15,5,7.73,7.58s5,5.26,7.31,8,4.73,5.52,6.91,8.43c1.1,1.45,2.24,2.88,3.31,4.35l3.18,4.45A220.34,220.34,0,0,1,1078.21,306c.42,1.79.74,3.6,1.07,5.41l1,5.42.81,5.45c.27,1.82.53,3.64.72,5.46l.61,5.47c.22,1.83.32,3.66.48,5.48s.31,3.66.41,5.49l.23,5.49.12,2.74,0,2.75.07,5.48c0,1.83-.06,3.66-.08,5.48s0,3.66-.15,5.48l-.3,5.47-.15,2.73-.23,2.72c-.3,3.63-.58,7.27-1,10.88a318.23,318.23,0,0,1-8,42.73,360.32,360.32,0,0,1-13.41,41,400.36,400.36,0,0,1-17.78,39q-9.84,19-21.33,36.91t-24.23,34.82c-8.52,11.25-17.35,22.23-26.61,32.82-18.55,21.11-37.82,41.64-59.43,59.51a541.44,541.44,0,0,1-68,48.81,4.36,4.36,0,0,1-5.09-7l0,0c21-17.84,41.42-36,60.67-55.29,2.43-2.39,4.82-4.81,7.2-7.25s4.79-4.82,7.13-7.28,4.79-4.82,7.11-7.3l7-7.37L934,630l6.75-7.61q6.69-7.67,13-15.61c8.43-10.6,16.54-21.43,24.08-32.63s14.63-22.66,21.16-34.4S1011.57,516,1017,503.83s10.18-24.66,14.41-37.22a363.32,363.32,0,0,0,16.91-76.92,280,280,0,0,0-2.23-77.46,256.37,256.37,0,0,0-24.39-73.37,269.63,269.63,0,0,0-20.51-33.8,340.21,340.21,0,0,0-25.41-31.57l0,0a4.15,4.15,0,0,1,5.15-6.36Z" transform="translate(0 0)"/></g><g class="cls-30"><path class="cls-7" d="M548.37,868.2C499.43,879.61,448.77,885,398,883.07c-3.17-.14-6.35-.19-9.52-.4L379,882l-4.76-.35c-1.58-.12-3.17-.21-4.75-.41l-9.5-1.07-4.74-.55-2.38-.28-2.36-.36L341,877.49c-6.32-.86-12.58-2.24-18.86-3.42a381.9,381.9,0,0,1-73.61-22.5c-5.92-2.59-11.89-5-17.66-8l-8.7-4.32-8.5-4.74c-5.74-3-11.16-6.68-16.69-10.1l-2.07-1.29-2-1.4-4-2.81-4-2.81c-1.32-1-2.7-1.83-4-2.87l-7.72-6.06c-1.27-1-2.58-2-3.83-3l-3.7-3.25-7.37-6.49-7-6.92L147.84,784c-1.15-1.18-2.21-2.44-3.32-3.65L138,773c-2.14-2.5-4.13-5.13-6.19-7.7s-4.13-5.13-5.95-7.88l-5.64-8.12c-1-1.33-1.78-2.78-2.65-4.18L115,740.86c-3.56-5.56-6.47-11.5-9.53-17.34-.37-.74-.77-1.46-1.11-2.21l-1-2.26-2-4.53-2-4.53-1-2.26-.85-2.32c-2.24-6.2-4.66-12.33-6.35-18.7L89.76,682c-.44-1.58-1-3.14-1.32-4.75l-1.15-4.79-.57-2.39-.49-2.41-1-4.83c-.34-1.6-.57-3.23-.85-4.84s-.55-3.23-.79-4.85L83,648.25a257.85,257.85,0,0,1-2-39,311.88,311.88,0,0,1,11.68-76.29,402.8,402.8,0,0,1,27.68-71.08,510.31,510.31,0,0,1,38.79-65A612.93,612.93,0,0,1,206,338c8.38-9.32,17.06-18.35,25.83-27.27l6.6-6.68c2.18-2.24,4.47-4.38,6.66-6.61s4.45-4.39,6.7-6.58l3.37-3.27,3.41-3.22c4.53-4.32,9.17-8.52,13.82-12.71l7.08-6.18c2.38-2,4.78-4,7.19-6,9.68-8,19.71-15.45,30-22.6l7.71-5.34,7.81-5.19c5.23-3.42,10.48-6.8,15.83-10.05,10.64-6.54,21.41-12.86,32.42-18.72a572.76,572.76,0,0,1,67.81-31.23,4.37,4.37,0,0,1,3.73,7.87h0c-10.66,6.14-21.25,12.29-31.69,18.67s-20.75,12.92-31,19.58l-7.62,5.06c-2.51,1.72-5,3.46-7.54,5.15s-5,3.46-7.52,5.19-5,3.5-7.45,5.27-4.95,3.54-7.38,5.36-4.92,3.57-7.34,5.4l-7.28,5.48L330,254.94c-9.57,7.49-19,15.09-28.44,22.72-2.33,1.93-4.69,3.83-7.06,5.73l-7,5.8c-4.66,3.88-9.31,7.78-13.87,11.77l-3.44,3-3.39,3c-2.26,2-4.54,4-6.75,6.1-4.47,4.1-8.81,8.34-13.14,12.59-8.58,8.57-16.74,17.55-24.7,26.68A570.64,570.64,0,0,0,178,409.84a477,477,0,0,0-35.52,62.72,377.09,377.09,0,0,0-24.12,67.18,285.39,285.39,0,0,0-8.82,69.76c0,46.59,14.36,92.41,41.93,129.11,1.6,2.37,3.47,4.56,5.28,6.78s3.59,4.47,5.49,6.63l5.85,6.33c1,1,1.92,2.13,2.94,3.14l3.11,3,6.21,6,6.56,5.65,3.27,2.84c1.11.92,2.28,1.77,3.42,2.66l6.87,5.3c18.66,13.75,39.34,24.85,60.91,34,1.35.57,2.67,1.21,4,1.72l4.12,1.57,8.24,3.14c2.75,1,5.58,1.88,8.36,2.83s5.58,1.89,8.4,2.75l8.52,2.42c2.84.79,5.65,1.69,8.54,2.35l8.61,2.13,4.31,1.07,4.36.89c5.81,1.16,11.58,2.51,17.47,3.37l8.79,1.45,2.2.37,2.21.28,4.43.56,8.85,1.15c1.48.22,3,.34,4.45.48l4.45.42,8.9.85c3,.27,6,.37,8.94.57,47.72,2.95,96-.58,143.67-8.43h.07a12.9,12.9,0,0,1,5,25.3Z" transform="translate(0 0)"/></g><path class="cls-29" d="M586.3,420c-6.78,5-14,9.8-21.54,14.3q-4,2.39-8.15,4.66L500.18,337.41l6.75-13.22Z" transform="translate(0 0)"/><g class="cls-30"><path class="cls-7" d="M582.5,91.14a643.51,643.51,0,0,1,64.9-15.08l8.21-1.47c2.74-.47,5.49-.88,8.24-1.3,5.51-.79,11-1.71,16.53-2.34l8.28-1c2.76-.36,5.53-.68,8.3-.92,5.55-.51,11.09-1.08,16.64-1.53a655.16,655.16,0,0,1,133.67,2.71A509.74,509.74,0,0,1,913.2,82.93,445.09,445.09,0,0,1,976.8,105c2.6,1,5.12,2.33,7.67,3.5l7.62,3.62c2.52,1.25,5,2.61,7.49,3.91s5,2.6,7.44,4,4.87,2.84,7.28,4.29,4.87,2.82,7.2,4.42l7.06,4.63c1.17.78,2.36,1.53,3.51,2.34l3.41,2.5,6.79,5c1.15.81,2.23,1.72,3.32,2.6l3.28,2.67c2.16,1.79,4.35,3.55,6.47,5.4l6.23,5.69c2.08,1.89,4.14,3.79,6.06,5.84l5.86,6c2,2,3.74,4.18,5.59,6.29s3.62,4.26,5.4,6.42a3.51,3.51,0,0,1-5.07,4.82l-.06-.06c-32.13-29.41-69.28-52-109.21-68.2a438.9,438.9,0,0,0-61.54-19.78,567.52,567.52,0,0,0-63.75-11.78A646.63,646.63,0,0,0,780,84.22q-32.53-.9-65.14,1.25c-5.43.34-10.85.81-16.27,1.2-2.71.18-5.42.48-8.13.73l-8.12.77c-5.43.45-10.82,1.18-16.23,1.79-2.7.34-5.42.59-8.12,1L649.92,92c-21.6,2.93-43.12,6.61-64.61,10.72h0a6,6,0,0,1-2.79-11.6Z" transform="translate(0 0)"/></g><g class="cls-30"><path class="cls-7" d="M72.87,812.61a175,175,0,0,1-19.13-25.7A207.63,207.63,0,0,1,39,758.17c-2.05-5-4-10-5.72-15.2-.84-2.56-1.74-5.12-2.52-7.71s-1.53-5.19-2.22-7.8a241.41,241.41,0,0,1-6.24-31.84,294.72,294.72,0,0,1-.64-64.56,339,339,0,0,1,12.28-62.82,439.16,439.16,0,0,1,22.28-59.33,590.89,590.89,0,0,1,29.12-55.64,607.7,607.7,0,0,1,34.49-52q9.3-12.48,19.18-24.47c6.61-8,13.38-15.78,20.37-23.38a3.51,3.51,0,0,1,5.41,4.46c-6.06,8.24-12,16.54-17.72,25s-11.29,17-16.62,25.62A587.58,587.58,0,0,0,101,461.7,470.41,470.41,0,0,0,62.43,575.3c-7.78,38.87-11,78.18-7.63,116.89.36,4.84.88,9.67,1.44,14.49.26,2.42.59,4.82.9,7.23s.67,4.82,1,7.22.77,4.81,1.19,7.2.85,4.81,1.3,7.2c1,4.76,2,9.53,3.22,14.26,2.34,9.49,5.15,18.9,8.35,28.29s6.86,18.68,10.68,28.13l0,.07a6,6,0,0,1-10.09,6.33Z" transform="translate(0 0)"/></g><g class="cls-30"><path class="cls-7" d="M1080.41,615.19a658.9,658.9,0,0,1-39.68,57.35l-10.83,13.71-11.28,13.34-2.83,3.34-2.92,3.25-5.86,6.49-5.86,6.49c-2,2.16-4,4.22-6,6.33-16,17-33,33-50.53,48.47L931.3,785.42c-4.49,3.74-9.06,7.38-13.59,11.08L910.9,802l-7,5.33L890,818l-14.25,10.24c-2.39,1.7-4.75,3.43-7.15,5.1l-7.28,4.91-14.57,9.82-14.83,9.42-7.41,4.73L817,866.78l-15,9.14q-15.16,8.93-31,16.66l-8,3.74c-2.65,1.27-5.35,2.41-8,3.61-5.35,2.42-10.76,4.68-16.18,6.94l-8.15,3.31-8.21,3.18c-2.73,1.07-5.49,2.07-8.23,3.11L710,918l-4.15,1.45c-5.53,2-11.1,3.81-16.66,5.66s-11.2,3.5-16.82,5.15c-11.27,3.24-22.6,6.26-34.08,8.71a13,13,0,0,1-7.64-24.65h0c21-8.67,41.92-17.3,62.53-26.58s40.94-19,61.11-29.07c10.1-5,20.26-9.92,30.44-14.81L800,836.34l7.6-3.77,7.45-4,14.9-8.1,14.67-8.52,7.33-4.28c2.43-1.45,4.81-3,7.22-4.46l14.41-9,14.15-9.37,7.08-4.7,6.93-4.9c4.61-3.29,9.28-6.52,13.86-9.85l13.57-10.23c17.92-13.87,35.52-28.24,52.12-43.74a662.57,662.57,0,0,0,90.57-101.87l0,0a5.13,5.13,0,0,1,8.55,5.67Z" transform="translate(0 0)"/></g><g class="cls-6"><line class="cls-31" x1="717.04" y1="835.28" x2="717.04" y2="835.28"/><path class="cls-32" d="M745.48,825.25C793.75,805.68,896,753.38,993.85,633.68" transform="translate(0 0)"/><line class="cls-31" x1="1003.28" y1="621.91" x2="1003.28" y2="621.91"/></g><path class="cls-33" d="M934.65,289.42S967.22,398,872.93,510.87" transform="translate(0 0)"/><path class="cls-34" d="M69.26,439s70.58-118.71,170.65-179.14" transform="translate(0 0)"/><path class="cls-35" d="M202.81,529.2C177.68,427.06,277.63,292.88,422.6,215.52S737,128.6,811.15,204.58A129.69,129.69,0,0,1,837,242.43a129.17,129.17,0,0,0-32.66-57.1c-74.16-76-243.57-66.42-388.55,10.95S170.85,407.81,196,510a125.22,125.22,0,0,0,7.42,21.54C203.2,530.73,203,530,202.81,529.2Z" transform="translate(0 0)"/><path class="cls-36" d="M535.05,302.42a35.82,35.82,0,0,1-2.8,9.52,49.73,49.73,0,0,1-3.38,6.31A66.31,66.31,0,0,1,520.26,329a83.59,83.59,0,0,1-6.36,5.84A92.91,92.91,0,0,1,502.39,343c-1.3.78-2.64,1.53-4,2.26s-2.73,1.42-4.1,2.07-2.69,1.24-4,1.8h0a89.21,89.21,0,0,1-10.63,3.72,82.25,82.25,0,0,1-8.42,1.9,66.81,66.81,0,0,1-12.44,1,50.78,50.78,0,0,1-7.25-.64,36.9,36.9,0,0,1-10.66-3.31,26.66,26.66,0,0,1-4.81-3.07,21.49,21.49,0,0,1-5.29-6.21,20.22,20.22,0,0,1-1.12-2.29,21.54,21.54,0,0,1-.82-2.42,24,24,0,0,1-.64-9.17c.09-.81.22-1.63.38-2.45,4.18-25.63,4.81-49-2.39-75.32a190.76,190.76,0,0,0-9.88-27.37c-.26-.61-.54-1.22-.82-1.84l23-15.52,2.12,3c38.78,53.93,74,64.6,82.54,69.8a24.61,24.61,0,0,1,6.62,5,21.2,21.2,0,0,1,3,4.15,21.25,21.25,0,0,1,2.55,8.69A26,26,0,0,1,535.05,302.42Z" transform="translate(0 0)"/><path class="cls-29" d="M442.26,250.84c-2.3-4.83-9.63-2.17-8.27,3,3.92,14.85,7,31.31,7.21,46.83.52,38.33,22,24.5,17.52,1.45C456.63,291.4,455.43,278.53,442.26,250.84Z" transform="translate(0 0)"/><path class="cls-37" d="M535.05,302.42a35.82,35.82,0,0,1-2.8,9.52,49.73,49.73,0,0,1-3.38,6.31A66.31,66.31,0,0,1,520.26,329a83.59,83.59,0,0,1-6.36,5.84A92.91,92.91,0,0,1,502.39,343c-1.3.78-2.64,1.53-4,2.26s-2.73,1.42-4.1,2.07-2.69,1.24-4,1.8c25.88-15.05,9.43-46.17-11.47-74.28s-37-35.87-52.65-24c0,0-5.42.15-5.85,0s-9.92-23.85-9.92-23.85l5.89-3.48,24.28-14.37c38.78,53.93,74,64.6,82.54,69.8a24.61,24.61,0,0,1,6.62,5,21.2,21.2,0,0,1,3,4.15,21.25,21.25,0,0,1,2.55,8.69A26,26,0,0,1,535.05,302.42Z" transform="translate(0 0)"/><polygon class="cls-38" points="573.42 196.34 566.1 223.71 435.44 228.47 401.81 293.6 382.45 331.1 347.11 327.74 373.81 281.4 373.81 281.39 373.82 281.39 403.64 229.63 311.69 232.98 327.17 212.29 416.99 206.47 445.85 156.38 454.72 140.99 482.63 137.08 474.91 152.03 447.83 204.47 573.42 196.34"/><path class="cls-37" d="M474.91,152l-27.08,52.44s-7.59-1.93-12.88,7.14a15.8,15.8,0,0,0,.49,16.86L401.81,293.6l-13.1,11.52-14.9-23.72h0c13.52-.2,23.93-7.56,41.61-41.95s25.12-46.2,33.55-61.32-3.13-21.74-3.13-21.74l27-7.41Z" transform="translate(0 0)"/><circle class="cls-39" cx="373.82" cy="319.6" r="38.21"/><circle class="cls-40" cx="552.69" cy="213.1" r="33.13"/><circle class="cls-41" cx="465.02" cy="136.28" r="27.78"/><circle class="cls-42" cx="319.69" cy="218.46" r="27.78"/><circle class="cls-29" cx="358.37" cy="313.83" r="10.76"/><circle class="cls-29" cx="543" cy="208.01" r="10.76"/><circle class="cls-29" cx="454.51" cy="126.58" r="7.01"/><circle class="cls-29" cx="306.27" cy="213.1" r="7.01"/></g></g></g></svg>